M48
; DRILL file {KiCad 9.0.6} date 2026-02-12T10:09:24-0500
; FORMAT={-:-/ absolute / metric / decimal}
; #@! TF.CreationDate,2026-02-12T10:09:24-05:00
; #@! TF.GenerationSoftware,Kicad,Pcbnew,9.0.6
; #@! TF.FileFunction,Plated,1,2,PTH
FMAT,2
METRIC
; #@! TA.AperFunction,Plated,PTH,ViaDrill
T1C0.300
; #@! TA.AperFunction,Plated,PTH,ComponentDrill
T2C1.000
; #@! TA.AperFunction,Plated,PTH,ComponentDrill
T3C1.300
%
G90
G05
T1
X117.0Y-62.6
X117.5Y-48.9
X118.3Y-55.35
X119.4Y-52.55
X122.3Y-47.55
X122.3Y-48.95
X122.3Y-50.45
X122.3Y-53.45
X122.3Y-58.65
X122.75Y-45.1
X122.8Y-59.75
X124.8Y-62.05
X125.25Y-42.6
X126.25Y-59.35
X126.5Y-131.0
X127.25Y-63.1
X127.4Y-56.95
X127.7Y-60.65
X130.4Y-63.55
X131.5Y-50.35
X132.2Y-62.15
X133.25Y-48.35
X134.4Y-63.55
X134.5Y-50.35
X135.5Y-108.1
X136.25Y-48.35
X136.5Y-62.15
X136.6Y-123.6
X136.7Y-78.1
X136.8Y-92.8
X137.4Y-50.35
X137.6Y-44.3
X137.9Y-40.6
X138.3Y-63.55
X138.6Y-87.2
X138.8Y-102.5
X138.9Y-42.45
X138.9Y-117.9
X139.0Y-73.9
X140.5Y-62.35
X140.9Y-87.3
X141.0Y-102.5
X141.1Y-117.9
X141.25Y-50.35
X141.5Y-74.0
X142.5Y-46.6
X142.7Y-60.95
X143.5Y-60.95
X144.0Y-62.85
X144.4Y-56.35
X145.25Y-50.85
X145.4Y-60.95
X146.2Y-60.95
X146.25Y-40.1
X146.3Y-87.5
X146.8Y-102.9
X147.0Y-74.3
X147.0Y-118.3
X151.4Y-68.9
X151.6Y-64.2
X153.1Y-117.0
X154.0Y-44.4
X154.4Y-117.0
X154.5Y-39.95
X155.7Y-39.95
X156.0Y-44.4
X157.0Y-84.6
X158.1Y-67.0
X158.2Y-68.7
X159.1Y-74.5
X159.1Y-96.2
X159.15Y-79.85
X159.15Y-88.85
X159.4Y-56.4
X159.4Y-67.0
X161.5Y-73.0
X162.0Y-86.5
X162.6Y-127.5
X162.7Y-70.7
X163.1Y-102.5
X163.6Y-75.8
X163.6Y-78.4
X164.0Y-42.0
X164.9Y-42.0
X165.0Y-88.2
X165.2Y-112.7
X166.0Y-57.3
X166.8Y-121.7
X167.4Y-90.6
X167.5Y-78.5
X168.0Y-115.5
X168.2Y-70.7
X169.1Y-53.1
X170.3Y-70.9
X171.7Y-41.9
X171.8Y-98.9
X172.3Y-102.9
X172.6Y-72.4
X172.6Y-73.8
X172.8Y-41.9
X173.6Y-84.1
X173.9Y-62.3
X174.3Y-102.9
X174.4Y-96.3
X174.6Y-101.3
X174.6Y-115.3
X175.6Y-82.1
X176.0Y-73.8
X176.0Y-76.1
X176.0Y-119.3
X176.1Y-104.8
X176.2Y-87.8
X176.2Y-90.2
X180.6Y-132.0
X181.8Y-113.4
X181.9Y-98.4
X182.0Y-62.8
X182.2Y-69.7
X182.4Y-83.6
X183.4Y-48.4
X183.4Y-49.8
X184.1Y-98.4
X184.1Y-113.4
X184.5Y-69.7
X184.6Y-83.6
X186.0Y-77.8
X186.3Y-92.1
X186.8Y-46.0
X188.3Y-107.3
X193.3Y-58.4
X194.6Y-126.8
X197.7Y-41.0
X203.6Y-48.8
T2
X151.17Y-119.0
X153.71Y-119.0
X153.89Y-75.95
X153.89Y-78.49
X153.89Y-81.03
X153.89Y-83.57
X153.89Y-86.11
X153.89Y-88.65
X153.89Y-91.19
X153.89Y-93.73
X153.89Y-96.27
X153.89Y-98.81
X153.89Y-101.35
X153.89Y-103.89
X153.89Y-106.43
X153.89Y-108.97
X153.89Y-111.51
X156.13Y-65.75
X156.25Y-119.0
X158.67Y-65.75
X158.79Y-119.0
X161.21Y-65.75
X161.33Y-119.0
X163.75Y-65.75
X163.87Y-119.0
X166.29Y-65.75
X166.41Y-119.0
X168.83Y-65.75
X168.95Y-119.0
X169.13Y-75.95
X169.13Y-78.49
X169.13Y-81.03
X169.13Y-83.57
X169.13Y-86.11
X169.13Y-88.65
X169.13Y-91.19
X169.13Y-93.73
X169.13Y-96.27
X169.13Y-98.81
X169.13Y-101.35
X169.13Y-103.89
X169.13Y-106.43
X169.13Y-108.97
X169.13Y-111.51
X171.37Y-65.75
X171.49Y-119.0
X173.91Y-65.75
X181.0Y-44.1
X181.0Y-46.64
X181.0Y-49.18
X181.0Y-51.72
X181.0Y-54.26
X181.0Y-56.8
T3
X123.75Y-69.5
X123.75Y-74.5
X123.75Y-83.0
X123.75Y-88.0
X123.75Y-98.3
X123.75Y-103.3
X124.0Y-113.3
X124.0Y-118.3
X132.0Y-42.35
X137.0Y-42.35
X150.1Y-42.35
X155.1Y-42.35
X199.0Y-69.0
X199.0Y-74.0
X199.0Y-83.0
X199.0Y-88.0
X199.082Y-97.75
X199.082Y-102.75
X199.232Y-112.9
X199.232Y-117.9
M30
