%TF.GenerationSoftware,KiCad,Pcbnew,9.0.6*%
%TF.CreationDate,2026-02-12T10:09:26-05:00*%
%TF.ProjectId,polaris3.1,706f6c61-7269-4733-932e-312e6b696361,rev?*%
%TF.SameCoordinates,Original*%
%TF.FileFunction,Paste,Top*%
%TF.FilePolarity,Positive*%
%FSLAX46Y46*%
G04 Gerber Fmt 4.6, Leading zero omitted, Abs format (unit mm)*
G04 Created by KiCad (PCBNEW 9.0.6) date 2026-02-12 10:09:26*
%MOMM*%
%LPD*%
G01*
G04 APERTURE LIST*
G04 Aperture macros list*
%AMRoundRect*
0 Rectangle with rounded corners*
0 $1 Rounding radius*
0 $2 $3 $4 $5 $6 $7 $8 $9 X,Y pos of 4 corners*
0 Add a 4 corners polygon primitive as box body*
4,1,4,$2,$3,$4,$5,$6,$7,$8,$9,$2,$3,0*
0 Add four circle primitives for the rounded corners*
1,1,$1+$1,$2,$3*
1,1,$1+$1,$4,$5*
1,1,$1+$1,$6,$7*
1,1,$1+$1,$8,$9*
0 Add four rect primitives between the rounded corners*
20,1,$1+$1,$2,$3,$4,$5,0*
20,1,$1+$1,$4,$5,$6,$7,0*
20,1,$1+$1,$6,$7,$8,$9,0*
20,1,$1+$1,$8,$9,$2,$3,0*%
G04 Aperture macros list end*
%ADD10RoundRect,0.200000X0.200000X0.275000X-0.200000X0.275000X-0.200000X-0.275000X0.200000X-0.275000X0*%
%ADD11RoundRect,0.250000X-0.450000X0.262500X-0.450000X-0.262500X0.450000X-0.262500X0.450000X0.262500X0*%
%ADD12RoundRect,0.250000X-0.475000X0.250000X-0.475000X-0.250000X0.475000X-0.250000X0.475000X0.250000X0*%
%ADD13RoundRect,0.250000X0.262500X0.450000X-0.262500X0.450000X-0.262500X-0.450000X0.262500X-0.450000X0*%
%ADD14RoundRect,0.250000X-1.100000X0.500000X-1.100000X-0.500000X1.100000X-0.500000X1.100000X0.500000X0*%
%ADD15RoundRect,0.150000X0.150000X-0.512500X0.150000X0.512500X-0.150000X0.512500X-0.150000X-0.512500X0*%
%ADD16RoundRect,0.150000X0.512500X0.150000X-0.512500X0.150000X-0.512500X-0.150000X0.512500X-0.150000X0*%
%ADD17RoundRect,0.200000X-0.275000X0.200000X-0.275000X-0.200000X0.275000X-0.200000X0.275000X0.200000X0*%
%ADD18RoundRect,0.218750X-0.256250X0.218750X-0.256250X-0.218750X0.256250X-0.218750X0.256250X0.218750X0*%
%ADD19R,3.550000X3.500000*%
%ADD20RoundRect,0.150000X-0.150000X0.512500X-0.150000X-0.512500X0.150000X-0.512500X0.150000X0.512500X0*%
%ADD21RoundRect,0.250000X0.450000X-0.262500X0.450000X0.262500X-0.450000X0.262500X-0.450000X-0.262500X0*%
%ADD22RoundRect,0.250000X0.250000X0.475000X-0.250000X0.475000X-0.250000X-0.475000X0.250000X-0.475000X0*%
%ADD23RoundRect,0.200000X-0.200000X-0.275000X0.200000X-0.275000X0.200000X0.275000X-0.200000X0.275000X0*%
G04 APERTURE END LIST*
D10*
%TO.C,R13*%
X121000000Y-55350000D03*
X119350000Y-55350000D03*
%TD*%
D11*
%TO.C,R1*%
X144000000Y-71215000D03*
X144000000Y-73040000D03*
%TD*%
D12*
%TO.C,C6*%
X145850000Y-57700000D03*
X145850000Y-59600000D03*
%TD*%
D13*
%TO.C,R21*%
X179325000Y-90075000D03*
X177500000Y-90075000D03*
%TD*%
D14*
%TO.C,D11*%
X188000000Y-97600000D03*
X188000000Y-102400000D03*
%TD*%
D11*
%TO.C,R7*%
X143750000Y-99750000D03*
X143750000Y-101575000D03*
%TD*%
%TO.C,R11*%
X176000000Y-70750000D03*
X176000000Y-72575000D03*
%TD*%
%TO.C,R23*%
X179250000Y-99500000D03*
X179250000Y-101325000D03*
%TD*%
D15*
%TO.C,Q2*%
X182050000Y-101100000D03*
X183950000Y-101100000D03*
X183000000Y-98825000D03*
%TD*%
D13*
%TO.C,R16*%
X183075000Y-76000000D03*
X181250000Y-76000000D03*
%TD*%
D15*
%TO.C,Q4*%
X182550000Y-86350000D03*
X184450000Y-86350000D03*
X183500000Y-84075000D03*
%TD*%
D11*
%TO.C,R5*%
X146750000Y-99750000D03*
X146750000Y-101575000D03*
%TD*%
D16*
%TO.C,U2*%
X125350000Y-57350000D03*
X125350000Y-56400000D03*
X125350000Y-55450000D03*
X123075000Y-55450000D03*
X123075000Y-56400000D03*
X123075000Y-57350000D03*
%TD*%
D14*
%TO.C,D3*%
X135250000Y-98450000D03*
X135250000Y-103250000D03*
%TD*%
D17*
%TO.C,R14*%
X120850000Y-57350000D03*
X120850000Y-59000000D03*
%TD*%
D18*
%TO.C,D6*%
X172250000Y-43112500D03*
X172250000Y-44687500D03*
%TD*%
D14*
%TO.C,D9*%
X187750000Y-68950000D03*
X187750000Y-73750000D03*
%TD*%
D11*
%TO.C,R26*%
X176000000Y-114000000D03*
X176000000Y-115825000D03*
%TD*%
%TO.C,R18*%
X176250000Y-84750000D03*
X176250000Y-86575000D03*
%TD*%
%TO.C,R15*%
X179250000Y-70750000D03*
X179250000Y-72575000D03*
%TD*%
%TO.C,R27*%
X179250000Y-114000000D03*
X179250000Y-115825000D03*
%TD*%
D15*
%TO.C,Q1*%
X182350000Y-72575000D03*
X184250000Y-72575000D03*
X183300000Y-70300000D03*
%TD*%
D19*
%TO.C,L1*%
X129850000Y-56350000D03*
X138800000Y-56350000D03*
%TD*%
D20*
%TO.C,Q5*%
X141200000Y-71215000D03*
X139300000Y-71215000D03*
X140250000Y-73490000D03*
%TD*%
D13*
%TO.C,R24*%
X183075000Y-104750000D03*
X181250000Y-104750000D03*
%TD*%
D21*
%TO.C,R10*%
X164500000Y-49075000D03*
X164500000Y-47250000D03*
%TD*%
D11*
%TO.C,R3*%
X146332500Y-84400000D03*
X146332500Y-86225000D03*
%TD*%
D21*
%TO.C,R9*%
X172250000Y-49012500D03*
X172250000Y-47187500D03*
%TD*%
D11*
%TO.C,R4*%
X143500000Y-84325000D03*
X143500000Y-86150000D03*
%TD*%
%TO.C,R22*%
X176000000Y-99500000D03*
X176000000Y-101325000D03*
%TD*%
D14*
%TO.C,D10*%
X135500000Y-69815000D03*
X135500000Y-74615000D03*
%TD*%
D13*
%TO.C,R25*%
X179075000Y-104750000D03*
X177250000Y-104750000D03*
%TD*%
D12*
%TO.C,C4*%
X143100000Y-57700000D03*
X143100000Y-59600000D03*
%TD*%
D11*
%TO.C,R19*%
X179500000Y-84750000D03*
X179500000Y-86575000D03*
%TD*%
%TO.C,R6*%
X147000000Y-115250000D03*
X147000000Y-117075000D03*
%TD*%
D22*
%TO.C,C3*%
X125500000Y-53100000D03*
X123600000Y-53100000D03*
%TD*%
D13*
%TO.C,R20*%
X183325000Y-90075000D03*
X181500000Y-90075000D03*
%TD*%
D20*
%TO.C,Q8*%
X140950000Y-115225000D03*
X139050000Y-115225000D03*
X140000000Y-117500000D03*
%TD*%
D22*
%TO.C,C1*%
X125500000Y-48350000D03*
X123600000Y-48350000D03*
%TD*%
D14*
%TO.C,D4*%
X135250000Y-113450000D03*
X135250000Y-118250000D03*
%TD*%
D22*
%TO.C,C2*%
X125500000Y-50600000D03*
X123600000Y-50600000D03*
%TD*%
D14*
%TO.C,D1*%
X135332500Y-83150000D03*
X135332500Y-87950000D03*
%TD*%
D15*
%TO.C,Q3*%
X182000000Y-116075000D03*
X183900000Y-116075000D03*
X182950000Y-113800000D03*
%TD*%
D14*
%TO.C,D8*%
X187750000Y-113175000D03*
X187750000Y-117975000D03*
%TD*%
D23*
%TO.C,R12*%
X119350000Y-53600000D03*
X121000000Y-53600000D03*
%TD*%
D13*
%TO.C,R17*%
X179075000Y-76000000D03*
X177250000Y-76000000D03*
%TD*%
D14*
%TO.C,D2*%
X188000000Y-83025000D03*
X188000000Y-87825000D03*
%TD*%
D11*
%TO.C,R2*%
X147000000Y-71215000D03*
X147000000Y-73040000D03*
%TD*%
D20*
%TO.C,Q6*%
X140732500Y-84400000D03*
X138832500Y-84400000D03*
X139782500Y-86675000D03*
%TD*%
D11*
%TO.C,R8*%
X143750000Y-115250000D03*
X143750000Y-117075000D03*
%TD*%
D20*
%TO.C,Q7*%
X140900000Y-99750000D03*
X139000000Y-99750000D03*
X139950000Y-102025000D03*
%TD*%
D13*
%TO.C,R28*%
X182987500Y-119250000D03*
X181162500Y-119250000D03*
%TD*%
%TO.C,R29*%
X179075000Y-119250000D03*
X177250000Y-119250000D03*
%TD*%
D18*
%TO.C,D7*%
X164500000Y-43225000D03*
X164500000Y-44800000D03*
%TD*%
D22*
%TO.C,C5*%
X122750000Y-61100000D03*
X120850000Y-61100000D03*
%TD*%
M02*
