%TF.GenerationSoftware,KiCad,Pcbnew,9.0.6*%
%TF.CreationDate,2026-02-15T15:54:59-05:00*%
%TF.ProjectId,polaris3.1,706f6c61-7269-4733-932e-312e6b696361,rev?*%
%TF.SameCoordinates,Original*%
%TF.FileFunction,Paste,Top*%
%TF.FilePolarity,Positive*%
%FSLAX46Y46*%
G04 Gerber Fmt 4.6, Leading zero omitted, Abs format (unit mm)*
G04 Created by KiCad (PCBNEW 9.0.6) date 2026-02-15 15:54:59*
%MOMM*%
%LPD*%
G01*
G04 APERTURE LIST*
G04 Aperture macros list*
%AMRoundRect*
0 Rectangle with rounded corners*
0 $1 Rounding radius*
0 $2 $3 $4 $5 $6 $7 $8 $9 X,Y pos of 4 corners*
0 Add a 4 corners polygon primitive as box body*
4,1,4,$2,$3,$4,$5,$6,$7,$8,$9,$2,$3,0*
0 Add four circle primitives for the rounded corners*
1,1,$1+$1,$2,$3*
1,1,$1+$1,$4,$5*
1,1,$1+$1,$6,$7*
1,1,$1+$1,$8,$9*
0 Add four rect primitives between the rounded corners*
20,1,$1+$1,$2,$3,$4,$5,0*
20,1,$1+$1,$4,$5,$6,$7,0*
20,1,$1+$1,$6,$7,$8,$9,0*
20,1,$1+$1,$8,$9,$2,$3,0*%
G04 Aperture macros list end*
%ADD10RoundRect,0.200000X0.200000X0.275000X-0.200000X0.275000X-0.200000X-0.275000X0.200000X-0.275000X0*%
%ADD11RoundRect,0.250000X-0.450000X0.262500X-0.450000X-0.262500X0.450000X-0.262500X0.450000X0.262500X0*%
%ADD12RoundRect,0.250000X-0.475000X0.250000X-0.475000X-0.250000X0.475000X-0.250000X0.475000X0.250000X0*%
%ADD13RoundRect,0.250000X0.262500X0.450000X-0.262500X0.450000X-0.262500X-0.450000X0.262500X-0.450000X0*%
%ADD14RoundRect,0.250000X-1.100000X0.500000X-1.100000X-0.500000X1.100000X-0.500000X1.100000X0.500000X0*%
%ADD15RoundRect,0.150000X0.150000X-0.512500X0.150000X0.512500X-0.150000X0.512500X-0.150000X-0.512500X0*%
%ADD16RoundRect,0.150000X0.512500X0.150000X-0.512500X0.150000X-0.512500X-0.150000X0.512500X-0.150000X0*%
%ADD17RoundRect,0.200000X-0.275000X0.200000X-0.275000X-0.200000X0.275000X-0.200000X0.275000X0.200000X0*%
%ADD18RoundRect,0.218750X-0.256250X0.218750X-0.256250X-0.218750X0.256250X-0.218750X0.256250X0.218750X0*%
%ADD19R,3.550000X3.500000*%
%ADD20RoundRect,0.150000X-0.150000X0.512500X-0.150000X-0.512500X0.150000X-0.512500X0.150000X0.512500X0*%
%ADD21RoundRect,0.250000X0.450000X-0.262500X0.450000X0.262500X-0.450000X0.262500X-0.450000X-0.262500X0*%
%ADD22RoundRect,0.250000X0.250000X0.475000X-0.250000X0.475000X-0.250000X-0.475000X0.250000X-0.475000X0*%
%ADD23RoundRect,0.200000X-0.200000X-0.275000X0.200000X-0.275000X0.200000X0.275000X-0.200000X0.275000X0*%
G04 APERTURE END LIST*
D10*
%TO.C,R13*%
X100825000Y-68740000D03*
X99175000Y-68740000D03*
%TD*%
D11*
%TO.C,R1*%
X123825000Y-84605000D03*
X123825000Y-86430000D03*
%TD*%
D12*
%TO.C,C6*%
X125675000Y-71090000D03*
X125675000Y-72990000D03*
%TD*%
D13*
%TO.C,R21*%
X159150000Y-103465000D03*
X157325000Y-103465000D03*
%TD*%
D14*
%TO.C,D11*%
X167825000Y-110990000D03*
X167825000Y-115790000D03*
%TD*%
D11*
%TO.C,R7*%
X123575000Y-113140000D03*
X123575000Y-114965000D03*
%TD*%
%TO.C,R11*%
X155825000Y-84140000D03*
X155825000Y-85965000D03*
%TD*%
%TO.C,R23*%
X159075000Y-112890000D03*
X159075000Y-114715000D03*
%TD*%
D15*
%TO.C,Q2*%
X161875000Y-114490000D03*
X163775000Y-114490000D03*
X162825000Y-112215000D03*
%TD*%
D13*
%TO.C,R16*%
X162900000Y-89390000D03*
X161075000Y-89390000D03*
%TD*%
D15*
%TO.C,Q4*%
X162375000Y-99740000D03*
X164275000Y-99740000D03*
X163325000Y-97465000D03*
%TD*%
D11*
%TO.C,R5*%
X126575000Y-113140000D03*
X126575000Y-114965000D03*
%TD*%
D16*
%TO.C,U2*%
X105175000Y-70740000D03*
X105175000Y-69790000D03*
X105175000Y-68840000D03*
X102900000Y-68840000D03*
X102900000Y-69790000D03*
X102900000Y-70740000D03*
%TD*%
D14*
%TO.C,D3*%
X115075000Y-111840000D03*
X115075000Y-116640000D03*
%TD*%
D17*
%TO.C,R14*%
X100675000Y-70740000D03*
X100675000Y-72390000D03*
%TD*%
D18*
%TO.C,D6*%
X152075000Y-56502500D03*
X152075000Y-58077500D03*
%TD*%
D14*
%TO.C,D9*%
X167575000Y-82340000D03*
X167575000Y-87140000D03*
%TD*%
D11*
%TO.C,R26*%
X155825000Y-127390000D03*
X155825000Y-129215000D03*
%TD*%
%TO.C,R18*%
X156075000Y-98140000D03*
X156075000Y-99965000D03*
%TD*%
%TO.C,R15*%
X159075000Y-84140000D03*
X159075000Y-85965000D03*
%TD*%
%TO.C,R27*%
X159075000Y-127390000D03*
X159075000Y-129215000D03*
%TD*%
D15*
%TO.C,Q1*%
X162175000Y-85965000D03*
X164075000Y-85965000D03*
X163125000Y-83690000D03*
%TD*%
D19*
%TO.C,L1*%
X109675000Y-69740000D03*
X118625000Y-69740000D03*
%TD*%
D20*
%TO.C,Q5*%
X121025000Y-84605000D03*
X119125000Y-84605000D03*
X120075000Y-86880000D03*
%TD*%
D13*
%TO.C,R24*%
X162900000Y-118140000D03*
X161075000Y-118140000D03*
%TD*%
D21*
%TO.C,R10*%
X144325000Y-62465000D03*
X144325000Y-60640000D03*
%TD*%
D11*
%TO.C,R3*%
X126157500Y-97790000D03*
X126157500Y-99615000D03*
%TD*%
D21*
%TO.C,R9*%
X152075000Y-62402500D03*
X152075000Y-60577500D03*
%TD*%
D11*
%TO.C,R4*%
X123325000Y-97715000D03*
X123325000Y-99540000D03*
%TD*%
%TO.C,R22*%
X155825000Y-112890000D03*
X155825000Y-114715000D03*
%TD*%
D14*
%TO.C,D10*%
X115325000Y-83205000D03*
X115325000Y-88005000D03*
%TD*%
D13*
%TO.C,R25*%
X158900000Y-118140000D03*
X157075000Y-118140000D03*
%TD*%
D12*
%TO.C,C4*%
X122925000Y-71090000D03*
X122925000Y-72990000D03*
%TD*%
D11*
%TO.C,R19*%
X159325000Y-98140000D03*
X159325000Y-99965000D03*
%TD*%
%TO.C,R6*%
X126825000Y-128640000D03*
X126825000Y-130465000D03*
%TD*%
D22*
%TO.C,C3*%
X105325000Y-66490000D03*
X103425000Y-66490000D03*
%TD*%
D13*
%TO.C,R20*%
X163150000Y-103465000D03*
X161325000Y-103465000D03*
%TD*%
D20*
%TO.C,Q8*%
X120775000Y-128615000D03*
X118875000Y-128615000D03*
X119825000Y-130890000D03*
%TD*%
D22*
%TO.C,C1*%
X105325000Y-61740000D03*
X103425000Y-61740000D03*
%TD*%
D14*
%TO.C,D4*%
X115075000Y-126840000D03*
X115075000Y-131640000D03*
%TD*%
D22*
%TO.C,C2*%
X105325000Y-63990000D03*
X103425000Y-63990000D03*
%TD*%
D14*
%TO.C,D1*%
X115157500Y-96540000D03*
X115157500Y-101340000D03*
%TD*%
D15*
%TO.C,Q3*%
X161825000Y-129465000D03*
X163725000Y-129465000D03*
X162775000Y-127190000D03*
%TD*%
D14*
%TO.C,D8*%
X167575000Y-126565000D03*
X167575000Y-131365000D03*
%TD*%
D23*
%TO.C,R12*%
X99175000Y-66990000D03*
X100825000Y-66990000D03*
%TD*%
D13*
%TO.C,R17*%
X158900000Y-89390000D03*
X157075000Y-89390000D03*
%TD*%
D14*
%TO.C,D2*%
X167825000Y-96415000D03*
X167825000Y-101215000D03*
%TD*%
D11*
%TO.C,R2*%
X126825000Y-84605000D03*
X126825000Y-86430000D03*
%TD*%
D20*
%TO.C,Q6*%
X120557500Y-97790000D03*
X118657500Y-97790000D03*
X119607500Y-100065000D03*
%TD*%
D11*
%TO.C,R8*%
X123575000Y-128640000D03*
X123575000Y-130465000D03*
%TD*%
D20*
%TO.C,Q7*%
X120725000Y-113140000D03*
X118825000Y-113140000D03*
X119775000Y-115415000D03*
%TD*%
D13*
%TO.C,R28*%
X162812500Y-132640000D03*
X160987500Y-132640000D03*
%TD*%
%TO.C,R29*%
X158900000Y-132640000D03*
X157075000Y-132640000D03*
%TD*%
D18*
%TO.C,D7*%
X144325000Y-56615000D03*
X144325000Y-58190000D03*
%TD*%
D22*
%TO.C,C5*%
X102575000Y-74490000D03*
X100675000Y-74490000D03*
%TD*%
M02*
