%TF.GenerationSoftware,KiCad,Pcbnew,9.0.6*%
%TF.CreationDate,2026-02-12T10:09:26-05:00*%
%TF.ProjectId,polaris3.1,706f6c61-7269-4733-932e-312e6b696361,rev?*%
%TF.SameCoordinates,Original*%
%TF.FileFunction,Copper,L2,Bot*%
%TF.FilePolarity,Positive*%
%FSLAX46Y46*%
G04 Gerber Fmt 4.6, Leading zero omitted, Abs format (unit mm)*
G04 Created by KiCad (PCBNEW 9.0.6) date 2026-02-12 10:09:26*
%MOMM*%
%LPD*%
G01*
G04 APERTURE LIST*
G04 Aperture macros list*
%AMRoundRect*
0 Rectangle with rounded corners*
0 $1 Rounding radius*
0 $2 $3 $4 $5 $6 $7 $8 $9 X,Y pos of 4 corners*
0 Add a 4 corners polygon primitive as box body*
4,1,4,$2,$3,$4,$5,$6,$7,$8,$9,$2,$3,0*
0 Add four circle primitives for the rounded corners*
1,1,$1+$1,$2,$3*
1,1,$1+$1,$4,$5*
1,1,$1+$1,$6,$7*
1,1,$1+$1,$8,$9*
0 Add four rect primitives between the rounded corners*
20,1,$1+$1,$2,$3,$4,$5,0*
20,1,$1+$1,$4,$5,$6,$7,0*
20,1,$1+$1,$6,$7,$8,$9,0*
20,1,$1+$1,$8,$9,$2,$3,0*%
G04 Aperture macros list end*
%TA.AperFunction,ComponentPad*%
%ADD10RoundRect,0.250000X-1.000000X1.000000X-1.000000X-1.000000X1.000000X-1.000000X1.000000X1.000000X0*%
%TD*%
%TA.AperFunction,ComponentPad*%
%ADD11C,2.500000*%
%TD*%
%TA.AperFunction,ComponentPad*%
%ADD12RoundRect,0.250000X1.000000X-1.000000X1.000000X1.000000X-1.000000X1.000000X-1.000000X-1.000000X0*%
%TD*%
%TA.AperFunction,ComponentPad*%
%ADD13R,1.700000X1.700000*%
%TD*%
%TA.AperFunction,ComponentPad*%
%ADD14C,1.700000*%
%TD*%
%TA.AperFunction,ComponentPad*%
%ADD15RoundRect,0.250000X-1.050000X-1.050000X1.050000X-1.050000X1.050000X1.050000X-1.050000X1.050000X0*%
%TD*%
%TA.AperFunction,ComponentPad*%
%ADD16C,2.600000*%
%TD*%
%TA.AperFunction,ComponentPad*%
%ADD17R,1.600000X1.600000*%
%TD*%
%TA.AperFunction,ComponentPad*%
%ADD18O,1.600000X1.600000*%
%TD*%
%TA.AperFunction,ViaPad*%
%ADD19C,0.600000*%
%TD*%
%TA.AperFunction,Conductor*%
%ADD20C,0.300000*%
%TD*%
%TA.AperFunction,Conductor*%
%ADD21C,0.500000*%
%TD*%
G04 APERTURE END LIST*
D10*
%TO.P,J11,1,Pin_1*%
%TO.N,+15V*%
X199000000Y-69000000D03*
D11*
%TO.P,J11,2,Pin_2*%
%TO.N,Net-(D9-A)*%
X199000000Y-74000000D03*
%TD*%
D12*
%TO.P,J4,1,Pin_1*%
%TO.N,Net-(D3-A)*%
X123750000Y-103300000D03*
D11*
%TO.P,J4,2,Pin_2*%
%TO.N,+12V*%
X123750000Y-98300000D03*
%TD*%
D13*
%TO.P,J8,1,Pin_1*%
%TO.N,+3.3V*%
X156130000Y-65750000D03*
D14*
%TO.P,J8,2,Pin_2*%
%TO.N,GND*%
X158670000Y-65750000D03*
%TO.P,J8,3,Pin_3*%
%TO.N,I2C_SCL*%
X161210000Y-65750000D03*
%TO.P,J8,4,Pin_4*%
%TO.N,unconnected-(J8-Pin_4-Pad4)*%
X163750000Y-65750000D03*
%TO.P,J8,5,Pin_5*%
%TO.N,I2C_SDA*%
X166290000Y-65750000D03*
%TO.P,J8,6,Pin_6*%
%TO.N,unconnected-(J8-Pin_6-Pad6)*%
X168830000Y-65750000D03*
%TO.P,J8,7,Pin_7*%
%TO.N,unconnected-(J8-Pin_7-Pad7)*%
X171370000Y-65750000D03*
%TO.P,J8,8,Pin_8*%
%TO.N,unconnected-(J8-Pin_8-Pad8)*%
X173910000Y-65750000D03*
%TD*%
D10*
%TO.P,J12,1,Pin_1*%
%TO.N,+15V*%
X199000000Y-83000000D03*
D11*
%TO.P,J12,2,Pin_2*%
%TO.N,Net-(D2-A)*%
X199000000Y-88000000D03*
%TD*%
D10*
%TO.P,J6,1,Pin_1*%
%TO.N,+15V*%
X199082500Y-97750000D03*
D11*
%TO.P,J6,2,Pin_2*%
%TO.N,Net-(D11-A)*%
X199082500Y-102750000D03*
%TD*%
D15*
%TO.P,J1,1,Pin_1*%
%TO.N,+12V*%
X150100000Y-42350000D03*
D16*
%TO.P,J1,2,Pin_2*%
%TO.N,GND*%
X155100000Y-42350000D03*
%TD*%
D12*
%TO.P,J3,1,Pin_1*%
%TO.N,Net-(D1-A)*%
X123750000Y-88000000D03*
D11*
%TO.P,J3,2,Pin_2*%
%TO.N,+12V*%
X123750000Y-83000000D03*
%TD*%
D10*
%TO.P,J13,1,Pin_1*%
%TO.N,+15V*%
X199232500Y-112900000D03*
D11*
%TO.P,J13,2,Pin_2*%
%TO.N,Net-(D8-A)*%
X199232500Y-117900000D03*
%TD*%
D15*
%TO.P,J7,1,Pin_1*%
%TO.N,+15V*%
X132000000Y-42350000D03*
D16*
%TO.P,J7,2,Pin_2*%
%TO.N,GND*%
X137000000Y-42350000D03*
%TD*%
D12*
%TO.P,J2,1,Pin_1*%
%TO.N,Net-(D10-A)*%
X123750000Y-74500000D03*
D11*
%TO.P,J2,2,Pin_2*%
%TO.N,+12V*%
X123750000Y-69500000D03*
%TD*%
D13*
%TO.P,IMU1,1,Pin_1*%
%TO.N,+3.3V*%
X181000000Y-44100000D03*
D14*
%TO.P,IMU1,2,Pin_2*%
%TO.N,unconnected-(IMU1-Pin_2-Pad2)*%
X181000000Y-46640000D03*
%TO.P,IMU1,3,Pin_3*%
%TO.N,GND*%
X181000000Y-49180000D03*
%TO.P,IMU1,4,Pin_4*%
%TO.N,I2C_SDA*%
X181000000Y-51720000D03*
%TO.P,IMU1,5,Pin_5*%
%TO.N,I2C_SCL*%
X181000000Y-54260000D03*
%TO.P,IMU1,6,Pin_6*%
%TO.N,unconnected-(IMU1-Pin_6-Pad6)*%
X181000000Y-56800000D03*
%TD*%
D12*
%TO.P,J5,1,Pin_1*%
%TO.N,Net-(D4-A)*%
X124000000Y-118300000D03*
D11*
%TO.P,J5,2,Pin_2*%
%TO.N,+12V*%
X124000000Y-113300000D03*
%TD*%
D17*
%TO.P,A1,1,D1/TX*%
%TO.N,PYRO_1*%
X153890000Y-75950000D03*
D18*
%TO.P,A1,2,D0/RX*%
%TO.N,PYRO_2*%
X153890000Y-78490000D03*
%TO.P,A1,3,~{RESET}*%
%TO.N,RESET*%
X153890000Y-81030000D03*
%TO.P,A1,4,GND*%
%TO.N,GND*%
X153890000Y-83570000D03*
%TO.P,A1,5,D2*%
%TO.N,PYRO_3*%
X153890000Y-86110000D03*
%TO.P,A1,6,D3*%
%TO.N,PYRO_4*%
X153890000Y-88650000D03*
%TO.P,A1,7,D4*%
%TO.N,SD_DET*%
X153890000Y-91190000D03*
%TO.P,A1,8,D5*%
%TO.N,D5*%
X153890000Y-93730000D03*
%TO.P,A1,9,D6*%
%TO.N,SOL_1*%
X153890000Y-96270000D03*
%TO.P,A1,10,D7*%
%TO.N,SOL_2*%
X153890000Y-98810000D03*
%TO.P,A1,11,D8*%
%TO.N,CAN_TX*%
X153890000Y-101350000D03*
%TO.P,A1,12,D9*%
%TO.N,CAN_RX*%
X153890000Y-103890000D03*
%TO.P,A1,13,D10/CS*%
%TO.N,SPI_CS*%
X153890000Y-106430000D03*
%TO.P,A1,14,D11/COPI*%
%TO.N,SPI_SI*%
X153890000Y-108970000D03*
%TO.P,A1,15,D12/CIPO*%
%TO.N,SPI_SO*%
X153890000Y-111510000D03*
%TO.P,A1,16,D13/SCK*%
%TO.N,SPI_CLK*%
X169130000Y-111510000D03*
%TO.P,A1,17,3V3*%
%TO.N,+3.3V*%
X169130000Y-108970000D03*
%TO.P,A1,18,B0*%
%TO.N,unconnected-(A1-B0-Pad18)*%
X169130000Y-106430000D03*
%TO.P,A1,19,A0*%
%TO.N,PYRO_4_CONTINUITY*%
X169130000Y-103890000D03*
%TO.P,A1,20,A1*%
%TO.N,PYRO_3_CONTINUITY*%
X169130000Y-101350000D03*
%TO.P,A1,21,A2*%
%TO.N,PYRO_2_CONTINUITY*%
X169130000Y-98810000D03*
%TO.P,A1,22,A3*%
%TO.N,PYRO_1_CONTINUITY*%
X169130000Y-96270000D03*
%TO.P,A1,23,SDA/A4*%
%TO.N,I2C_SDA*%
X169130000Y-93730000D03*
%TO.P,A1,24,SCL/A5*%
%TO.N,I2C_SCL*%
X169130000Y-91190000D03*
%TO.P,A1,25,A6*%
%TO.N,A6*%
X169130000Y-88650000D03*
%TO.P,A1,26,A7*%
%TO.N,A7*%
X169130000Y-86110000D03*
%TO.P,A1,27,VUSB/5V*%
%TO.N,unconnected-(A1-VUSB{slash}5V-Pad27)*%
X169130000Y-83570000D03*
%TO.P,A1,28,B1*%
%TO.N,unconnected-(A1-B1-Pad28)*%
X169130000Y-81030000D03*
%TO.P,A1,29,GND*%
%TO.N,GND*%
X169130000Y-78490000D03*
%TO.P,A1,30,VIN*%
%TO.N,+12V*%
X169130000Y-75950000D03*
%TD*%
D13*
%TO.P,J10,1,Pin_1*%
%TO.N,+3.3V*%
X151170000Y-119000000D03*
D14*
%TO.P,J10,2,Pin_2*%
%TO.N,GND*%
X153710000Y-119000000D03*
%TO.P,J10,3,Pin_3*%
%TO.N,SPI_CLK*%
X156250000Y-119000000D03*
%TO.P,J10,4,Pin_4*%
%TO.N,SPI_SO*%
X158790000Y-119000000D03*
%TO.P,J10,5,Pin_5*%
%TO.N,SPI_SI*%
X161330000Y-119000000D03*
%TO.P,J10,6,Pin_6*%
%TO.N,SPI_CS*%
X163870000Y-119000000D03*
%TO.P,J10,7,Pin_7*%
%TO.N,unconnected-(J10-Pin_7-Pad7)*%
X166410000Y-119000000D03*
%TO.P,J10,8,Pin_8*%
%TO.N,unconnected-(J10-Pin_8-Pad8)*%
X168950000Y-119000000D03*
%TO.P,J10,9,Pin_9*%
%TO.N,SD_DET*%
X171490000Y-119000000D03*
%TD*%
D19*
%TO.N,GND*%
X147000000Y-118300000D03*
X141100000Y-117900000D03*
X138900000Y-117900000D03*
X146800000Y-102900000D03*
X141000000Y-102500000D03*
X138800000Y-102500000D03*
X140900000Y-87300000D03*
X138600000Y-87200000D03*
X146300000Y-87500000D03*
X141500000Y-74000000D03*
X139000000Y-73900000D03*
X147000000Y-74300000D03*
X151400000Y-68900000D03*
X173900000Y-62300000D03*
X161500000Y-73000000D03*
X170300000Y-70900000D03*
X167500000Y-78500000D03*
X166800000Y-121700000D03*
X154400000Y-117000000D03*
X153100000Y-117000000D03*
X174600000Y-115300000D03*
X176000000Y-119300000D03*
X184100000Y-113400000D03*
X181800000Y-113400000D03*
X176100000Y-104800000D03*
X174600000Y-101300000D03*
X184100000Y-98400000D03*
X181900000Y-98400000D03*
X176200000Y-90200000D03*
X176200000Y-87800000D03*
X176000000Y-73800000D03*
X184600000Y-83600000D03*
X182400000Y-83600000D03*
X184500000Y-69700000D03*
X182200000Y-69700000D03*
X176000000Y-76100000D03*
X183400000Y-49800000D03*
X183400000Y-48400000D03*
X159400000Y-67000000D03*
X158100000Y-67000000D03*
X117500000Y-48900000D03*
X156000000Y-44400000D03*
X154000000Y-44400000D03*
X172800000Y-41900000D03*
X171700000Y-41900000D03*
X164900000Y-42000000D03*
X164000000Y-42000000D03*
X135500000Y-108100000D03*
X136800000Y-92800000D03*
X169100000Y-53100000D03*
X137400000Y-50350000D03*
X122300000Y-53450000D03*
X130400000Y-63550000D03*
X118300000Y-55350000D03*
X186800000Y-46000000D03*
X137600000Y-44300000D03*
X124800000Y-62050000D03*
X157000000Y-84600000D03*
X122300000Y-50450000D03*
X138300000Y-63550000D03*
X180600000Y-132000000D03*
X145400000Y-60950000D03*
X197700000Y-41000000D03*
X126250000Y-59350000D03*
X159400000Y-56400000D03*
X136700000Y-78100000D03*
X127700000Y-60650000D03*
X143500000Y-60950000D03*
X140500000Y-62350000D03*
X131500000Y-50350000D03*
X122300000Y-48950000D03*
X137900000Y-40600000D03*
X146250000Y-40100000D03*
X134500000Y-50350000D03*
X166000000Y-57300000D03*
X162000000Y-86500000D03*
X155700000Y-39950000D03*
X134400000Y-63550000D03*
X188300000Y-107300000D03*
X138900000Y-42450000D03*
X142500000Y-46600000D03*
X125250000Y-42600000D03*
X122300000Y-47550000D03*
X132200000Y-62150000D03*
X133250000Y-48350000D03*
X141250000Y-50350000D03*
X203600000Y-48800000D03*
X144000000Y-62850000D03*
X142700000Y-60950000D03*
X193300000Y-58400000D03*
X117000000Y-62600000D03*
X162600000Y-127500000D03*
X122300000Y-58650000D03*
X136250000Y-48350000D03*
X186300000Y-92100000D03*
X145250000Y-50850000D03*
X122750000Y-45100000D03*
X182000000Y-62800000D03*
X136500000Y-62150000D03*
X146200000Y-60950000D03*
X194600000Y-126800000D03*
X163100000Y-102500000D03*
X126500000Y-131000000D03*
X127250000Y-63100000D03*
X186000000Y-77800000D03*
X154500000Y-39950000D03*
%TO.N,PYRO_3_CONTINUITY*%
X174300000Y-102900000D03*
X172300000Y-102900000D03*
%TO.N,+12V*%
X144400000Y-56350000D03*
X119400000Y-52550000D03*
X151600000Y-64200000D03*
X168200000Y-70700000D03*
X158200000Y-68700000D03*
X162700000Y-70700000D03*
%TO.N,PYRO_1*%
X163600000Y-75800000D03*
X172600000Y-72400000D03*
%TO.N,+3.3V*%
X159150000Y-88850000D03*
X159150000Y-79850000D03*
X159100000Y-96200000D03*
X159100000Y-74500000D03*
%TO.N,PYRO_2*%
X163600000Y-78400000D03*
X172600000Y-73800000D03*
%TO.N,PYRO_1_CONTINUITY*%
X175600000Y-82100000D03*
X173600000Y-84100000D03*
%TO.N,PYRO_2_CONTINUITY*%
X171800000Y-98900000D03*
X174400000Y-96300000D03*
%TO.N,I2C_SCL*%
X167400000Y-90600000D03*
X165000000Y-88200000D03*
%TO.N,Net-(U2-SW)*%
X122800000Y-59750000D03*
X127400000Y-56950000D03*
%TO.N,SD_DET*%
X165200000Y-112700000D03*
X168000000Y-115500000D03*
%TO.N,GND*%
X136600000Y-123600000D03*
%TD*%
D20*
%TO.N,PYRO_3_CONTINUITY*%
X174300000Y-102900000D02*
X172300000Y-102900000D01*
D21*
%TO.N,+12V*%
X156100000Y-68700000D02*
X151600000Y-64200000D01*
D20*
X143200000Y-52550000D02*
X144400000Y-53750000D01*
X119400000Y-52550000D02*
X143200000Y-52550000D01*
D21*
X158200000Y-68700000D02*
X156100000Y-68700000D01*
X168200000Y-70700000D02*
X162700000Y-70700000D01*
D20*
X144400000Y-56350000D02*
X144400000Y-56450000D01*
X144400000Y-53750000D02*
X144400000Y-56350000D01*
%TO.N,PYRO_1*%
X163600000Y-75800000D02*
X167000000Y-72400000D01*
X167000000Y-72400000D02*
X172600000Y-72400000D01*
D21*
%TO.N,+3.3V*%
X159100000Y-96200000D02*
X159100000Y-88900000D01*
X159100000Y-88900000D02*
X159150000Y-88850000D01*
X159100000Y-79800000D02*
X159100000Y-74500000D01*
X159150000Y-79850000D02*
X159100000Y-79800000D01*
D20*
%TO.N,PYRO_2*%
X172600000Y-73800000D02*
X168200000Y-73800000D01*
X168200000Y-73800000D02*
X163600000Y-78400000D01*
%TO.N,PYRO_1_CONTINUITY*%
X173600000Y-84100000D02*
X175600000Y-82100000D01*
%TO.N,PYRO_2_CONTINUITY*%
X171800000Y-98900000D02*
X174400000Y-96300000D01*
%TO.N,I2C_SCL*%
X167400000Y-90600000D02*
X165000000Y-88200000D01*
%TO.N,Net-(U2-SW)*%
X125400000Y-57150000D02*
X122800000Y-59750000D01*
X127200000Y-57150000D02*
X125400000Y-57150000D01*
X127400000Y-56950000D02*
X127200000Y-57150000D01*
%TO.N,SD_DET*%
X168000000Y-115500000D02*
X165200000Y-112700000D01*
%TD*%
%TA.AperFunction,Conductor*%
%TO.N,GND*%
G36*
X204402702Y-36500617D02*
G01*
X204786771Y-36517386D01*
X204797506Y-36518326D01*
X205175971Y-36568152D01*
X205186597Y-36570025D01*
X205559284Y-36652648D01*
X205569710Y-36655442D01*
X205933765Y-36770227D01*
X205943911Y-36773920D01*
X206296578Y-36920000D01*
X206306369Y-36924566D01*
X206644942Y-37100816D01*
X206654310Y-37106224D01*
X206976244Y-37311318D01*
X206985105Y-37317523D01*
X207287930Y-37549889D01*
X207296217Y-37556843D01*
X207577635Y-37814715D01*
X207585284Y-37822364D01*
X207843156Y-38103782D01*
X207850110Y-38112069D01*
X208082476Y-38414894D01*
X208088681Y-38423755D01*
X208293775Y-38745689D01*
X208299183Y-38755057D01*
X208475430Y-39093623D01*
X208480002Y-39103427D01*
X208626075Y-39456078D01*
X208629775Y-39466244D01*
X208744554Y-39830278D01*
X208747354Y-39840727D01*
X208829971Y-40213389D01*
X208831849Y-40224042D01*
X208881671Y-40602473D01*
X208882614Y-40613249D01*
X208899382Y-40997297D01*
X208899500Y-41002706D01*
X208899500Y-129997293D01*
X208899382Y-130002702D01*
X208882614Y-130386750D01*
X208881671Y-130397526D01*
X208831849Y-130775957D01*
X208829971Y-130786610D01*
X208747354Y-131159272D01*
X208744554Y-131169721D01*
X208629775Y-131533755D01*
X208626075Y-131543921D01*
X208480002Y-131896572D01*
X208475430Y-131906376D01*
X208299183Y-132244942D01*
X208293775Y-132254310D01*
X208088681Y-132576244D01*
X208082476Y-132585105D01*
X207850110Y-132887930D01*
X207843156Y-132896217D01*
X207585284Y-133177635D01*
X207577635Y-133185284D01*
X207296217Y-133443156D01*
X207287930Y-133450110D01*
X206985105Y-133682476D01*
X206976244Y-133688681D01*
X206654310Y-133893775D01*
X206644942Y-133899183D01*
X206306376Y-134075430D01*
X206296572Y-134080002D01*
X205943921Y-134226075D01*
X205933755Y-134229775D01*
X205569721Y-134344554D01*
X205559272Y-134347354D01*
X205186610Y-134429971D01*
X205175957Y-134431849D01*
X204797526Y-134481671D01*
X204786750Y-134482614D01*
X204402703Y-134499382D01*
X204397294Y-134499500D01*
X119402706Y-134499500D01*
X119397297Y-134499382D01*
X119013249Y-134482614D01*
X119002473Y-134481671D01*
X118624042Y-134431849D01*
X118613389Y-134429971D01*
X118240727Y-134347354D01*
X118230278Y-134344554D01*
X117866244Y-134229775D01*
X117856078Y-134226075D01*
X117503427Y-134080002D01*
X117493623Y-134075430D01*
X117155057Y-133899183D01*
X117145689Y-133893775D01*
X116823755Y-133688681D01*
X116814894Y-133682476D01*
X116512069Y-133450110D01*
X116503782Y-133443156D01*
X116222364Y-133185284D01*
X116214715Y-133177635D01*
X115956843Y-132896217D01*
X115949889Y-132887930D01*
X115717523Y-132585105D01*
X115711318Y-132576244D01*
X115506224Y-132254310D01*
X115500816Y-132244942D01*
X115324569Y-131906376D01*
X115319997Y-131896572D01*
X115259492Y-131750499D01*
X115173920Y-131543911D01*
X115170224Y-131533755D01*
X115055442Y-131169710D01*
X115052648Y-131159284D01*
X114970025Y-130786597D01*
X114968152Y-130775971D01*
X114918326Y-130397506D01*
X114917386Y-130386771D01*
X114900618Y-130002702D01*
X114900500Y-129997293D01*
X114900500Y-129885258D01*
X117649500Y-129885258D01*
X117649500Y-130114741D01*
X117664346Y-130227502D01*
X117679452Y-130342238D01*
X117738842Y-130563887D01*
X117826650Y-130775876D01*
X117826657Y-130775890D01*
X117941392Y-130974617D01*
X118081081Y-131156661D01*
X118081089Y-131156670D01*
X118243330Y-131318911D01*
X118243338Y-131318918D01*
X118425382Y-131458607D01*
X118425385Y-131458608D01*
X118425388Y-131458611D01*
X118624112Y-131573344D01*
X118624117Y-131573346D01*
X118624123Y-131573349D01*
X118715480Y-131611190D01*
X118836113Y-131661158D01*
X119057762Y-131720548D01*
X119285266Y-131750500D01*
X119285273Y-131750500D01*
X119514727Y-131750500D01*
X119514734Y-131750500D01*
X119742238Y-131720548D01*
X119963887Y-131661158D01*
X120175888Y-131573344D01*
X120374612Y-131458611D01*
X120556661Y-131318919D01*
X120556665Y-131318914D01*
X120556670Y-131318911D01*
X120718911Y-131156670D01*
X120718914Y-131156665D01*
X120718919Y-131156661D01*
X120858611Y-130974612D01*
X120973344Y-130775888D01*
X121061158Y-130563887D01*
X121120548Y-130342238D01*
X121150500Y-130114734D01*
X121150500Y-129885266D01*
X121150499Y-129885258D01*
X202649500Y-129885258D01*
X202649500Y-130114741D01*
X202664346Y-130227502D01*
X202679452Y-130342238D01*
X202738842Y-130563887D01*
X202826650Y-130775876D01*
X202826657Y-130775890D01*
X202941392Y-130974617D01*
X203081081Y-131156661D01*
X203081089Y-131156670D01*
X203243330Y-131318911D01*
X203243338Y-131318918D01*
X203425382Y-131458607D01*
X203425385Y-131458608D01*
X203425388Y-131458611D01*
X203624112Y-131573344D01*
X203624117Y-131573346D01*
X203624123Y-131573349D01*
X203715480Y-131611190D01*
X203836113Y-131661158D01*
X204057762Y-131720548D01*
X204285266Y-131750500D01*
X204285273Y-131750500D01*
X204514727Y-131750500D01*
X204514734Y-131750500D01*
X204742238Y-131720548D01*
X204963887Y-131661158D01*
X205175888Y-131573344D01*
X205374612Y-131458611D01*
X205556661Y-131318919D01*
X205556665Y-131318914D01*
X205556670Y-131318911D01*
X205718911Y-131156670D01*
X205718914Y-131156665D01*
X205718919Y-131156661D01*
X205858611Y-130974612D01*
X205973344Y-130775888D01*
X206061158Y-130563887D01*
X206120548Y-130342238D01*
X206150500Y-130114734D01*
X206150500Y-129885266D01*
X206120548Y-129657762D01*
X206061158Y-129436113D01*
X205973344Y-129224112D01*
X205858611Y-129025388D01*
X205858608Y-129025385D01*
X205858607Y-129025382D01*
X205718918Y-128843338D01*
X205718911Y-128843330D01*
X205556670Y-128681089D01*
X205556661Y-128681081D01*
X205374617Y-128541392D01*
X205175890Y-128426657D01*
X205175876Y-128426650D01*
X204963887Y-128338842D01*
X204742238Y-128279452D01*
X204704215Y-128274446D01*
X204514741Y-128249500D01*
X204514734Y-128249500D01*
X204285266Y-128249500D01*
X204285258Y-128249500D01*
X204068715Y-128278009D01*
X204057762Y-128279452D01*
X203964076Y-128304554D01*
X203836112Y-128338842D01*
X203624123Y-128426650D01*
X203624109Y-128426657D01*
X203425382Y-128541392D01*
X203243338Y-128681081D01*
X203081081Y-128843338D01*
X202941392Y-129025382D01*
X202826657Y-129224109D01*
X202826650Y-129224123D01*
X202738842Y-129436112D01*
X202679453Y-129657759D01*
X202679451Y-129657770D01*
X202649500Y-129885258D01*
X121150499Y-129885258D01*
X121120548Y-129657762D01*
X121061158Y-129436113D01*
X120973344Y-129224112D01*
X120858611Y-129025388D01*
X120858608Y-129025385D01*
X120858607Y-129025382D01*
X120718918Y-128843338D01*
X120718911Y-128843330D01*
X120556670Y-128681089D01*
X120556661Y-128681081D01*
X120374617Y-128541392D01*
X120175890Y-128426657D01*
X120175876Y-128426650D01*
X119963887Y-128338842D01*
X119742238Y-128279452D01*
X119704215Y-128274446D01*
X119514741Y-128249500D01*
X119514734Y-128249500D01*
X119285266Y-128249500D01*
X119285258Y-128249500D01*
X119068715Y-128278009D01*
X119057762Y-128279452D01*
X118964076Y-128304554D01*
X118836112Y-128338842D01*
X118624123Y-128426650D01*
X118624109Y-128426657D01*
X118425382Y-128541392D01*
X118243338Y-128681081D01*
X118081081Y-128843338D01*
X117941392Y-129025382D01*
X117826657Y-129224109D01*
X117826650Y-129224123D01*
X117738842Y-129436112D01*
X117679453Y-129657759D01*
X117679451Y-129657770D01*
X117649500Y-129885258D01*
X114900500Y-129885258D01*
X114900500Y-117256898D01*
X122449500Y-117256898D01*
X122449500Y-119343102D01*
X122455126Y-119389954D01*
X122460122Y-119431561D01*
X122460122Y-119431563D01*
X122460123Y-119431564D01*
X122477722Y-119476192D01*
X122515639Y-119572343D01*
X122607077Y-119692922D01*
X122727656Y-119784360D01*
X122727657Y-119784360D01*
X122727658Y-119784361D01*
X122868436Y-119839877D01*
X122956898Y-119850500D01*
X122956903Y-119850500D01*
X125043097Y-119850500D01*
X125043102Y-119850500D01*
X125131564Y-119839877D01*
X125272342Y-119784361D01*
X125392922Y-119692922D01*
X125484361Y-119572342D01*
X125539877Y-119431564D01*
X125550500Y-119343102D01*
X125550500Y-118105131D01*
X150019500Y-118105131D01*
X150019500Y-119894856D01*
X150019502Y-119894882D01*
X150022413Y-119919987D01*
X150022415Y-119919991D01*
X150067793Y-120022764D01*
X150067794Y-120022765D01*
X150147235Y-120102206D01*
X150250009Y-120147585D01*
X150275135Y-120150500D01*
X152064864Y-120150499D01*
X152064879Y-120150497D01*
X152064882Y-120150497D01*
X152089987Y-120147586D01*
X152089988Y-120147585D01*
X152089991Y-120147585D01*
X152192765Y-120102206D01*
X152272206Y-120022765D01*
X152317585Y-119919991D01*
X152320500Y-119894865D01*
X152320499Y-118909448D01*
X155099500Y-118909448D01*
X155099500Y-119090551D01*
X155127829Y-119269410D01*
X155183787Y-119441636D01*
X155183788Y-119441639D01*
X155239664Y-119551300D01*
X155250386Y-119572343D01*
X155266006Y-119602997D01*
X155372441Y-119749494D01*
X155372445Y-119749499D01*
X155500500Y-119877554D01*
X155500505Y-119877558D01*
X155628287Y-119970396D01*
X155647006Y-119983996D01*
X155723094Y-120022765D01*
X155808360Y-120066211D01*
X155808363Y-120066212D01*
X155894476Y-120094191D01*
X155980591Y-120122171D01*
X156063429Y-120135291D01*
X156159449Y-120150500D01*
X156159454Y-120150500D01*
X156340551Y-120150500D01*
X156427259Y-120136765D01*
X156519409Y-120122171D01*
X156691639Y-120066211D01*
X156852994Y-119983996D01*
X156999501Y-119877553D01*
X157127553Y-119749501D01*
X157233996Y-119602994D01*
X157316211Y-119441639D01*
X157372171Y-119269409D01*
X157386422Y-119179425D01*
X157397527Y-119109321D01*
X157427456Y-119046186D01*
X157486768Y-119009255D01*
X157556630Y-119010253D01*
X157614863Y-119048863D01*
X157642473Y-119109321D01*
X157667829Y-119269410D01*
X157723787Y-119441636D01*
X157723788Y-119441639D01*
X157779664Y-119551300D01*
X157790386Y-119572343D01*
X157806006Y-119602997D01*
X157912441Y-119749494D01*
X157912445Y-119749499D01*
X158040500Y-119877554D01*
X158040505Y-119877558D01*
X158168287Y-119970396D01*
X158187006Y-119983996D01*
X158263094Y-120022765D01*
X158348360Y-120066211D01*
X158348363Y-120066212D01*
X158434476Y-120094191D01*
X158520591Y-120122171D01*
X158603429Y-120135291D01*
X158699449Y-120150500D01*
X158699454Y-120150500D01*
X158880551Y-120150500D01*
X158967259Y-120136765D01*
X159059409Y-120122171D01*
X159231639Y-120066211D01*
X159392994Y-119983996D01*
X159539501Y-119877553D01*
X159667553Y-119749501D01*
X159773996Y-119602994D01*
X159856211Y-119441639D01*
X159912171Y-119269409D01*
X159926422Y-119179425D01*
X159937527Y-119109321D01*
X159967456Y-119046186D01*
X160026768Y-119009255D01*
X160096630Y-119010253D01*
X160154863Y-119048863D01*
X160182473Y-119109321D01*
X160207829Y-119269410D01*
X160263787Y-119441636D01*
X160263788Y-119441639D01*
X160319664Y-119551300D01*
X160330386Y-119572343D01*
X160346006Y-119602997D01*
X160452441Y-119749494D01*
X160452445Y-119749499D01*
X160580500Y-119877554D01*
X160580505Y-119877558D01*
X160708287Y-119970396D01*
X160727006Y-119983996D01*
X160803094Y-120022765D01*
X160888360Y-120066211D01*
X160888363Y-120066212D01*
X160974476Y-120094191D01*
X161060591Y-120122171D01*
X161143429Y-120135291D01*
X161239449Y-120150500D01*
X161239454Y-120150500D01*
X161420551Y-120150500D01*
X161507259Y-120136765D01*
X161599409Y-120122171D01*
X161771639Y-120066211D01*
X161932994Y-119983996D01*
X162079501Y-119877553D01*
X162207553Y-119749501D01*
X162313996Y-119602994D01*
X162396211Y-119441639D01*
X162452171Y-119269409D01*
X162466422Y-119179425D01*
X162477527Y-119109321D01*
X162507456Y-119046186D01*
X162566768Y-119009255D01*
X162636630Y-119010253D01*
X162694863Y-119048863D01*
X162722473Y-119109321D01*
X162747829Y-119269410D01*
X162803787Y-119441636D01*
X162803788Y-119441639D01*
X162859664Y-119551300D01*
X162870386Y-119572343D01*
X162886006Y-119602997D01*
X162992441Y-119749494D01*
X162992445Y-119749499D01*
X163120500Y-119877554D01*
X163120505Y-119877558D01*
X163248287Y-119970396D01*
X163267006Y-119983996D01*
X163343094Y-120022765D01*
X163428360Y-120066211D01*
X163428363Y-120066212D01*
X163514476Y-120094191D01*
X163600591Y-120122171D01*
X163683429Y-120135291D01*
X163779449Y-120150500D01*
X163779454Y-120150500D01*
X163960551Y-120150500D01*
X164047259Y-120136765D01*
X164139409Y-120122171D01*
X164311639Y-120066211D01*
X164472994Y-119983996D01*
X164619501Y-119877553D01*
X164747553Y-119749501D01*
X164853996Y-119602994D01*
X164936211Y-119441639D01*
X164992171Y-119269409D01*
X165006422Y-119179425D01*
X165017527Y-119109321D01*
X165047456Y-119046186D01*
X165106768Y-119009255D01*
X165176630Y-119010253D01*
X165234863Y-119048863D01*
X165262473Y-119109321D01*
X165287829Y-119269410D01*
X165343787Y-119441636D01*
X165343788Y-119441639D01*
X165399664Y-119551300D01*
X165410386Y-119572343D01*
X165426006Y-119602997D01*
X165532441Y-119749494D01*
X165532445Y-119749499D01*
X165660500Y-119877554D01*
X165660505Y-119877558D01*
X165788287Y-119970396D01*
X165807006Y-119983996D01*
X165883094Y-120022765D01*
X165968360Y-120066211D01*
X165968363Y-120066212D01*
X166054476Y-120094191D01*
X166140591Y-120122171D01*
X166223429Y-120135291D01*
X166319449Y-120150500D01*
X166319454Y-120150500D01*
X166500551Y-120150500D01*
X166587259Y-120136765D01*
X166679409Y-120122171D01*
X166851639Y-120066211D01*
X167012994Y-119983996D01*
X167159501Y-119877553D01*
X167287553Y-119749501D01*
X167393996Y-119602994D01*
X167476211Y-119441639D01*
X167532171Y-119269409D01*
X167546422Y-119179425D01*
X167557527Y-119109321D01*
X167587456Y-119046186D01*
X167646768Y-119009255D01*
X167716630Y-119010253D01*
X167774863Y-119048863D01*
X167802473Y-119109321D01*
X167827829Y-119269410D01*
X167883787Y-119441636D01*
X167883788Y-119441639D01*
X167939664Y-119551300D01*
X167950386Y-119572343D01*
X167966006Y-119602997D01*
X168072441Y-119749494D01*
X168072445Y-119749499D01*
X168200500Y-119877554D01*
X168200505Y-119877558D01*
X168328287Y-119970396D01*
X168347006Y-119983996D01*
X168423094Y-120022765D01*
X168508360Y-120066211D01*
X168508363Y-120066212D01*
X168594476Y-120094191D01*
X168680591Y-120122171D01*
X168763429Y-120135291D01*
X168859449Y-120150500D01*
X168859454Y-120150500D01*
X169040551Y-120150500D01*
X169127259Y-120136765D01*
X169219409Y-120122171D01*
X169391639Y-120066211D01*
X169552994Y-119983996D01*
X169699501Y-119877553D01*
X169827553Y-119749501D01*
X169933996Y-119602994D01*
X170016211Y-119441639D01*
X170072171Y-119269409D01*
X170086422Y-119179425D01*
X170097527Y-119109321D01*
X170127456Y-119046186D01*
X170186768Y-119009255D01*
X170256630Y-119010253D01*
X170314863Y-119048863D01*
X170342473Y-119109321D01*
X170367829Y-119269410D01*
X170423787Y-119441636D01*
X170423788Y-119441639D01*
X170479664Y-119551300D01*
X170490386Y-119572343D01*
X170506006Y-119602997D01*
X170612441Y-119749494D01*
X170612445Y-119749499D01*
X170740500Y-119877554D01*
X170740505Y-119877558D01*
X170868287Y-119970396D01*
X170887006Y-119983996D01*
X170963094Y-120022765D01*
X171048360Y-120066211D01*
X171048363Y-120066212D01*
X171134476Y-120094191D01*
X171220591Y-120122171D01*
X171303429Y-120135291D01*
X171399449Y-120150500D01*
X171399454Y-120150500D01*
X171580551Y-120150500D01*
X171667259Y-120136765D01*
X171759409Y-120122171D01*
X171931639Y-120066211D01*
X172092994Y-119983996D01*
X172239501Y-119877553D01*
X172367553Y-119749501D01*
X172473996Y-119602994D01*
X172556211Y-119441639D01*
X172612171Y-119269409D01*
X172626765Y-119177259D01*
X172640500Y-119090551D01*
X172640500Y-118909448D01*
X172624019Y-118805397D01*
X172612171Y-118730591D01*
X172556211Y-118558361D01*
X172556211Y-118558360D01*
X172524021Y-118495185D01*
X172473996Y-118397006D01*
X172376688Y-118263072D01*
X172367558Y-118250505D01*
X172367554Y-118250500D01*
X172239499Y-118122445D01*
X172239494Y-118122441D01*
X172092997Y-118016006D01*
X172092996Y-118016005D01*
X172092994Y-118016004D01*
X172016906Y-117977235D01*
X171931639Y-117933788D01*
X171931633Y-117933786D01*
X171800046Y-117891032D01*
X171800045Y-117891032D01*
X171759410Y-117877829D01*
X171580551Y-117849500D01*
X171580546Y-117849500D01*
X171399454Y-117849500D01*
X171399449Y-117849500D01*
X171220589Y-117877829D01*
X171048363Y-117933787D01*
X171048360Y-117933788D01*
X170887002Y-118016006D01*
X170740505Y-118122441D01*
X170740500Y-118122445D01*
X170612445Y-118250500D01*
X170612441Y-118250505D01*
X170506006Y-118397002D01*
X170423788Y-118558360D01*
X170423787Y-118558363D01*
X170367829Y-118730589D01*
X170342473Y-118890678D01*
X170312544Y-118953813D01*
X170253232Y-118990744D01*
X170183369Y-118989746D01*
X170125137Y-118951136D01*
X170097527Y-118890678D01*
X170083740Y-118803639D01*
X170072171Y-118730591D01*
X170016211Y-118558361D01*
X170016211Y-118558360D01*
X169984021Y-118495185D01*
X169933996Y-118397006D01*
X169836688Y-118263072D01*
X169827558Y-118250505D01*
X169827554Y-118250500D01*
X169699499Y-118122445D01*
X169699494Y-118122441D01*
X169552997Y-118016006D01*
X169552996Y-118016005D01*
X169552994Y-118016004D01*
X169476906Y-117977235D01*
X169391639Y-117933788D01*
X169391636Y-117933787D01*
X169219410Y-117877829D01*
X169040551Y-117849500D01*
X169040546Y-117849500D01*
X168859454Y-117849500D01*
X168859449Y-117849500D01*
X168680589Y-117877829D01*
X168508363Y-117933787D01*
X168508360Y-117933788D01*
X168347002Y-118016006D01*
X168200505Y-118122441D01*
X168200500Y-118122445D01*
X168072445Y-118250500D01*
X168072441Y-118250505D01*
X167966006Y-118397002D01*
X167883788Y-118558360D01*
X167883787Y-118558363D01*
X167827829Y-118730589D01*
X167802473Y-118890678D01*
X167772544Y-118953813D01*
X167713232Y-118990744D01*
X167643369Y-118989746D01*
X167585137Y-118951136D01*
X167557527Y-118890678D01*
X167543740Y-118803639D01*
X167532171Y-118730591D01*
X167476211Y-118558361D01*
X167476211Y-118558360D01*
X167444021Y-118495185D01*
X167393996Y-118397006D01*
X167296688Y-118263072D01*
X167287558Y-118250505D01*
X167287554Y-118250500D01*
X167159499Y-118122445D01*
X167159494Y-118122441D01*
X167012997Y-118016006D01*
X167012996Y-118016005D01*
X167012994Y-118016004D01*
X166936906Y-117977235D01*
X166851639Y-117933788D01*
X166851636Y-117933787D01*
X166679410Y-117877829D01*
X166500551Y-117849500D01*
X166500546Y-117849500D01*
X166319454Y-117849500D01*
X166319449Y-117849500D01*
X166140589Y-117877829D01*
X165968363Y-117933787D01*
X165968360Y-117933788D01*
X165807002Y-118016006D01*
X165660505Y-118122441D01*
X165660500Y-118122445D01*
X165532445Y-118250500D01*
X165532441Y-118250505D01*
X165426006Y-118397002D01*
X165343788Y-118558360D01*
X165343787Y-118558363D01*
X165287829Y-118730589D01*
X165262473Y-118890678D01*
X165232544Y-118953813D01*
X165173232Y-118990744D01*
X165103369Y-118989746D01*
X165045137Y-118951136D01*
X165017527Y-118890678D01*
X165003740Y-118803639D01*
X164992171Y-118730591D01*
X164936211Y-118558361D01*
X164936211Y-118558360D01*
X164904021Y-118495185D01*
X164853996Y-118397006D01*
X164756688Y-118263072D01*
X164747558Y-118250505D01*
X164747554Y-118250500D01*
X164619499Y-118122445D01*
X164619494Y-118122441D01*
X164472997Y-118016006D01*
X164472996Y-118016005D01*
X164472994Y-118016004D01*
X164396906Y-117977235D01*
X164311639Y-117933788D01*
X164311636Y-117933787D01*
X164139410Y-117877829D01*
X163960551Y-117849500D01*
X163960546Y-117849500D01*
X163779454Y-117849500D01*
X163779449Y-117849500D01*
X163600589Y-117877829D01*
X163428363Y-117933787D01*
X163428360Y-117933788D01*
X163267002Y-118016006D01*
X163120505Y-118122441D01*
X163120500Y-118122445D01*
X162992445Y-118250500D01*
X162992441Y-118250505D01*
X162886006Y-118397002D01*
X162803788Y-118558360D01*
X162803787Y-118558363D01*
X162747829Y-118730589D01*
X162722473Y-118890678D01*
X162692544Y-118953813D01*
X162633232Y-118990744D01*
X162563369Y-118989746D01*
X162505137Y-118951136D01*
X162477527Y-118890678D01*
X162463740Y-118803639D01*
X162452171Y-118730591D01*
X162396211Y-118558361D01*
X162396211Y-118558360D01*
X162364021Y-118495185D01*
X162313996Y-118397006D01*
X162216688Y-118263072D01*
X162207558Y-118250505D01*
X162207554Y-118250500D01*
X162079499Y-118122445D01*
X162079494Y-118122441D01*
X161932997Y-118016006D01*
X161932996Y-118016005D01*
X161932994Y-118016004D01*
X161856906Y-117977235D01*
X161771639Y-117933788D01*
X161771636Y-117933787D01*
X161599410Y-117877829D01*
X161420551Y-117849500D01*
X161420546Y-117849500D01*
X161239454Y-117849500D01*
X161239449Y-117849500D01*
X161060589Y-117877829D01*
X160888363Y-117933787D01*
X160888360Y-117933788D01*
X160727002Y-118016006D01*
X160580505Y-118122441D01*
X160580500Y-118122445D01*
X160452445Y-118250500D01*
X160452441Y-118250505D01*
X160346006Y-118397002D01*
X160263788Y-118558360D01*
X160263787Y-118558363D01*
X160207829Y-118730589D01*
X160182473Y-118890678D01*
X160152544Y-118953813D01*
X160093232Y-118990744D01*
X160023369Y-118989746D01*
X159965137Y-118951136D01*
X159937527Y-118890678D01*
X159923740Y-118803639D01*
X159912171Y-118730591D01*
X159856211Y-118558361D01*
X159856211Y-118558360D01*
X159824021Y-118495185D01*
X159773996Y-118397006D01*
X159676688Y-118263072D01*
X159667558Y-118250505D01*
X159667554Y-118250500D01*
X159539499Y-118122445D01*
X159539494Y-118122441D01*
X159392997Y-118016006D01*
X159392996Y-118016005D01*
X159392994Y-118016004D01*
X159316906Y-117977235D01*
X159231639Y-117933788D01*
X159231636Y-117933787D01*
X159059410Y-117877829D01*
X158880551Y-117849500D01*
X158880546Y-117849500D01*
X158699454Y-117849500D01*
X158699449Y-117849500D01*
X158520589Y-117877829D01*
X158348363Y-117933787D01*
X158348360Y-117933788D01*
X158187002Y-118016006D01*
X158040505Y-118122441D01*
X158040500Y-118122445D01*
X157912445Y-118250500D01*
X157912441Y-118250505D01*
X157806006Y-118397002D01*
X157723788Y-118558360D01*
X157723787Y-118558363D01*
X157667829Y-118730589D01*
X157642473Y-118890678D01*
X157612544Y-118953813D01*
X157553232Y-118990744D01*
X157483369Y-118989746D01*
X157425137Y-118951136D01*
X157397527Y-118890678D01*
X157383740Y-118803639D01*
X157372171Y-118730591D01*
X157316211Y-118558361D01*
X157316211Y-118558360D01*
X157284021Y-118495185D01*
X157233996Y-118397006D01*
X157136688Y-118263072D01*
X157127558Y-118250505D01*
X157127554Y-118250500D01*
X156999499Y-118122445D01*
X156999494Y-118122441D01*
X156852997Y-118016006D01*
X156852996Y-118016005D01*
X156852994Y-118016004D01*
X156776906Y-117977235D01*
X156691639Y-117933788D01*
X156691636Y-117933787D01*
X156519410Y-117877829D01*
X156340551Y-117849500D01*
X156340546Y-117849500D01*
X156159454Y-117849500D01*
X156159449Y-117849500D01*
X155980589Y-117877829D01*
X155808363Y-117933787D01*
X155808360Y-117933788D01*
X155647002Y-118016006D01*
X155500505Y-118122441D01*
X155500500Y-118122445D01*
X155372445Y-118250500D01*
X155372441Y-118250505D01*
X155266006Y-118397002D01*
X155183788Y-118558360D01*
X155183787Y-118558363D01*
X155127829Y-118730589D01*
X155099500Y-118909448D01*
X152320499Y-118909448D01*
X152320499Y-118105136D01*
X152320497Y-118105117D01*
X152317586Y-118080012D01*
X152317585Y-118080010D01*
X152317585Y-118080009D01*
X152272206Y-117977235D01*
X152192765Y-117897794D01*
X152192763Y-117897793D01*
X152089992Y-117852415D01*
X152064865Y-117849500D01*
X150275143Y-117849500D01*
X150275117Y-117849502D01*
X150250012Y-117852413D01*
X150250008Y-117852415D01*
X150147235Y-117897793D01*
X150067794Y-117977234D01*
X150022415Y-118080006D01*
X150022415Y-118080008D01*
X150019500Y-118105131D01*
X125550500Y-118105131D01*
X125550500Y-117777973D01*
X197682000Y-117777973D01*
X197682000Y-118022027D01*
X197720179Y-118263076D01*
X197763694Y-118397002D01*
X197795597Y-118495187D01*
X197906396Y-118712642D01*
X198049839Y-118910076D01*
X198049843Y-118910081D01*
X198222418Y-119082656D01*
X198222423Y-119082660D01*
X198394636Y-119207779D01*
X198419861Y-119226106D01*
X198637315Y-119336904D01*
X198869424Y-119412321D01*
X199110473Y-119450500D01*
X199110474Y-119450500D01*
X199354526Y-119450500D01*
X199354527Y-119450500D01*
X199595576Y-119412321D01*
X199827685Y-119336904D01*
X200045139Y-119226106D01*
X200242583Y-119082655D01*
X200415155Y-118910083D01*
X200558606Y-118712639D01*
X200669404Y-118495185D01*
X200744821Y-118263076D01*
X200783000Y-118022027D01*
X200783000Y-117777973D01*
X200744821Y-117536924D01*
X200669404Y-117304815D01*
X200558606Y-117087361D01*
X200515228Y-117027656D01*
X200415160Y-116889923D01*
X200415156Y-116889918D01*
X200242581Y-116717343D01*
X200242576Y-116717339D01*
X200045142Y-116573896D01*
X200045141Y-116573895D01*
X200045139Y-116573894D01*
X199827685Y-116463096D01*
X199595576Y-116387679D01*
X199595574Y-116387678D01*
X199595572Y-116387678D01*
X199427269Y-116361021D01*
X199354527Y-116349500D01*
X199110473Y-116349500D01*
X199054593Y-116358350D01*
X198869427Y-116387678D01*
X198637312Y-116463097D01*
X198419857Y-116573896D01*
X198222423Y-116717339D01*
X198222418Y-116717343D01*
X198049843Y-116889918D01*
X198049839Y-116889923D01*
X197906396Y-117087357D01*
X197795597Y-117304812D01*
X197720178Y-117536927D01*
X197682000Y-117777973D01*
X125550500Y-117777973D01*
X125550500Y-117256898D01*
X125539877Y-117168436D01*
X125484361Y-117027658D01*
X125484360Y-117027657D01*
X125484360Y-117027656D01*
X125392922Y-116907077D01*
X125272343Y-116815639D01*
X125131561Y-116760122D01*
X125085926Y-116754642D01*
X125043102Y-116749500D01*
X122956898Y-116749500D01*
X122917853Y-116754188D01*
X122868438Y-116760122D01*
X122727656Y-116815639D01*
X122607077Y-116907077D01*
X122515639Y-117027656D01*
X122460122Y-117168438D01*
X122454188Y-117217853D01*
X122449500Y-117256898D01*
X114900500Y-117256898D01*
X114900500Y-113177973D01*
X122449500Y-113177973D01*
X122449500Y-113422027D01*
X122487679Y-113663076D01*
X122563096Y-113895185D01*
X122632584Y-114031564D01*
X122673896Y-114112642D01*
X122817339Y-114310076D01*
X122817343Y-114310081D01*
X122989918Y-114482656D01*
X122989923Y-114482660D01*
X123162136Y-114607779D01*
X123187361Y-114626106D01*
X123404815Y-114736904D01*
X123636924Y-114812321D01*
X123877973Y-114850500D01*
X123877974Y-114850500D01*
X124122026Y-114850500D01*
X124122027Y-114850500D01*
X124363076Y-114812321D01*
X124595185Y-114736904D01*
X124812639Y-114626106D01*
X125010083Y-114482655D01*
X125182655Y-114310083D01*
X125326106Y-114112639D01*
X125436904Y-113895185D01*
X125512321Y-113663076D01*
X125550500Y-113422027D01*
X125550500Y-113177973D01*
X125512321Y-112936924D01*
X125436904Y-112704815D01*
X125394169Y-112620943D01*
X164599500Y-112620943D01*
X164599500Y-112779056D01*
X164640423Y-112931783D01*
X164640426Y-112931790D01*
X164719475Y-113068709D01*
X164719479Y-113068714D01*
X164719480Y-113068716D01*
X164831284Y-113180520D01*
X164831286Y-113180521D01*
X164831290Y-113180524D01*
X164968209Y-113259573D01*
X164968216Y-113259577D01*
X165120943Y-113300500D01*
X165120945Y-113300500D01*
X165128099Y-113301442D01*
X165191996Y-113329707D01*
X165199597Y-113336700D01*
X167363299Y-115500402D01*
X167396784Y-115561725D01*
X167398556Y-115571893D01*
X167399498Y-115579050D01*
X167440423Y-115731783D01*
X167440426Y-115731790D01*
X167519475Y-115868709D01*
X167519479Y-115868714D01*
X167519480Y-115868716D01*
X167631284Y-115980520D01*
X167631286Y-115980521D01*
X167631290Y-115980524D01*
X167768209Y-116059573D01*
X167768216Y-116059577D01*
X167920943Y-116100500D01*
X167920945Y-116100500D01*
X168079055Y-116100500D01*
X168079057Y-116100500D01*
X168231784Y-116059577D01*
X168368716Y-115980520D01*
X168480520Y-115868716D01*
X168559577Y-115731784D01*
X168600500Y-115579057D01*
X168600500Y-115420943D01*
X168559577Y-115268216D01*
X168559573Y-115268209D01*
X168480524Y-115131290D01*
X168480518Y-115131282D01*
X168368717Y-115019481D01*
X168368709Y-115019475D01*
X168231790Y-114940426D01*
X168231786Y-114940424D01*
X168231784Y-114940423D01*
X168079057Y-114899500D01*
X168079050Y-114899498D01*
X168071893Y-114898556D01*
X168007997Y-114870287D01*
X168000402Y-114863299D01*
X165836700Y-112699597D01*
X165803215Y-112638274D01*
X165801442Y-112628099D01*
X165800500Y-112620945D01*
X165800500Y-112620943D01*
X165759577Y-112468216D01*
X165749771Y-112451231D01*
X165680524Y-112331290D01*
X165680518Y-112331282D01*
X165568717Y-112219481D01*
X165568709Y-112219475D01*
X165431790Y-112140426D01*
X165431786Y-112140424D01*
X165431784Y-112140423D01*
X165279057Y-112099500D01*
X165120943Y-112099500D01*
X164968216Y-112140423D01*
X164968209Y-112140426D01*
X164831290Y-112219475D01*
X164831282Y-112219481D01*
X164719481Y-112331282D01*
X164719475Y-112331290D01*
X164640426Y-112468209D01*
X164640423Y-112468216D01*
X164599500Y-112620943D01*
X125394169Y-112620943D01*
X125326106Y-112487361D01*
X125225880Y-112349411D01*
X125182660Y-112289923D01*
X125182656Y-112289918D01*
X125010081Y-112117343D01*
X125010076Y-112117339D01*
X124812642Y-111973896D01*
X124812641Y-111973895D01*
X124812639Y-111973894D01*
X124595185Y-111863096D01*
X124363076Y-111787679D01*
X124363074Y-111787678D01*
X124363072Y-111787678D01*
X124194769Y-111761021D01*
X124122027Y-111749500D01*
X123877973Y-111749500D01*
X123822093Y-111758350D01*
X123636927Y-111787678D01*
X123404812Y-111863097D01*
X123187357Y-111973896D01*
X122989923Y-112117339D01*
X122989918Y-112117343D01*
X122817343Y-112289918D01*
X122817339Y-112289923D01*
X122673896Y-112487357D01*
X122563097Y-112704812D01*
X122487678Y-112936927D01*
X122449500Y-113177973D01*
X114900500Y-113177973D01*
X114900500Y-111423389D01*
X152789500Y-111423389D01*
X152789500Y-111596611D01*
X152816598Y-111767701D01*
X152870127Y-111932445D01*
X152948768Y-112086788D01*
X153050586Y-112226928D01*
X153173072Y-112349414D01*
X153313212Y-112451232D01*
X153467555Y-112529873D01*
X153632299Y-112583402D01*
X153803389Y-112610500D01*
X153803390Y-112610500D01*
X153976610Y-112610500D01*
X153976611Y-112610500D01*
X154147701Y-112583402D01*
X154312445Y-112529873D01*
X154466788Y-112451232D01*
X154606928Y-112349414D01*
X154729414Y-112226928D01*
X154831232Y-112086788D01*
X154909873Y-111932445D01*
X154963402Y-111767701D01*
X154990500Y-111596611D01*
X154990500Y-111423389D01*
X168029500Y-111423389D01*
X168029500Y-111596611D01*
X168056598Y-111767701D01*
X168110127Y-111932445D01*
X168188768Y-112086788D01*
X168290586Y-112226928D01*
X168413072Y-112349414D01*
X168553212Y-112451232D01*
X168707555Y-112529873D01*
X168872299Y-112583402D01*
X169043389Y-112610500D01*
X169043390Y-112610500D01*
X169216610Y-112610500D01*
X169216611Y-112610500D01*
X169387701Y-112583402D01*
X169552445Y-112529873D01*
X169706788Y-112451232D01*
X169846928Y-112349414D01*
X169969414Y-112226928D01*
X170071232Y-112086788D01*
X170149873Y-111932445D01*
X170174420Y-111856898D01*
X197682000Y-111856898D01*
X197682000Y-113943102D01*
X197687626Y-113989954D01*
X197692622Y-114031561D01*
X197748139Y-114172343D01*
X197839577Y-114292922D01*
X197960156Y-114384360D01*
X197960157Y-114384360D01*
X197960158Y-114384361D01*
X198100936Y-114439877D01*
X198189398Y-114450500D01*
X198189403Y-114450500D01*
X200275597Y-114450500D01*
X200275602Y-114450500D01*
X200364064Y-114439877D01*
X200504842Y-114384361D01*
X200625422Y-114292922D01*
X200716861Y-114172342D01*
X200772377Y-114031564D01*
X200783000Y-113943102D01*
X200783000Y-111856898D01*
X200772377Y-111768436D01*
X200716861Y-111627658D01*
X200716860Y-111627657D01*
X200716860Y-111627656D01*
X200625422Y-111507077D01*
X200504843Y-111415639D01*
X200364061Y-111360122D01*
X200318426Y-111354642D01*
X200275602Y-111349500D01*
X198189398Y-111349500D01*
X198150353Y-111354188D01*
X198100938Y-111360122D01*
X197960156Y-111415639D01*
X197839577Y-111507077D01*
X197748139Y-111627656D01*
X197692622Y-111768438D01*
X197690312Y-111787678D01*
X197682000Y-111856898D01*
X170174420Y-111856898D01*
X170203402Y-111767701D01*
X170230500Y-111596611D01*
X170230500Y-111423389D01*
X170203402Y-111252299D01*
X170149873Y-111087555D01*
X170071232Y-110933212D01*
X169969414Y-110793072D01*
X169846928Y-110670586D01*
X169706788Y-110568768D01*
X169552445Y-110490127D01*
X169387701Y-110436598D01*
X169387699Y-110436597D01*
X169387698Y-110436597D01*
X169256271Y-110415781D01*
X169216611Y-110409500D01*
X169043389Y-110409500D01*
X169003728Y-110415781D01*
X168872302Y-110436597D01*
X168707552Y-110490128D01*
X168553211Y-110568768D01*
X168473256Y-110626859D01*
X168413072Y-110670586D01*
X168413070Y-110670588D01*
X168413069Y-110670588D01*
X168290588Y-110793069D01*
X168290588Y-110793070D01*
X168290586Y-110793072D01*
X168246859Y-110853256D01*
X168188768Y-110933211D01*
X168110128Y-111087552D01*
X168056597Y-111252302D01*
X168039520Y-111360123D01*
X168029500Y-111423389D01*
X154990500Y-111423389D01*
X154963402Y-111252299D01*
X154909873Y-111087555D01*
X154831232Y-110933212D01*
X154729414Y-110793072D01*
X154606928Y-110670586D01*
X154466788Y-110568768D01*
X154312445Y-110490127D01*
X154147701Y-110436598D01*
X154147699Y-110436597D01*
X154147698Y-110436597D01*
X154016271Y-110415781D01*
X153976611Y-110409500D01*
X153803389Y-110409500D01*
X153763728Y-110415781D01*
X153632302Y-110436597D01*
X153467552Y-110490128D01*
X153313211Y-110568768D01*
X153233256Y-110626859D01*
X153173072Y-110670586D01*
X153173070Y-110670588D01*
X153173069Y-110670588D01*
X153050588Y-110793069D01*
X153050588Y-110793070D01*
X153050586Y-110793072D01*
X153006859Y-110853256D01*
X152948768Y-110933211D01*
X152870128Y-111087552D01*
X152816597Y-111252302D01*
X152799520Y-111360123D01*
X152789500Y-111423389D01*
X114900500Y-111423389D01*
X114900500Y-108883389D01*
X152789500Y-108883389D01*
X152789500Y-109056611D01*
X152816598Y-109227701D01*
X152870127Y-109392445D01*
X152948768Y-109546788D01*
X153050586Y-109686928D01*
X153173072Y-109809414D01*
X153313212Y-109911232D01*
X153467555Y-109989873D01*
X153632299Y-110043402D01*
X153803389Y-110070500D01*
X153803390Y-110070500D01*
X153976610Y-110070500D01*
X153976611Y-110070500D01*
X154147701Y-110043402D01*
X154312445Y-109989873D01*
X154466788Y-109911232D01*
X154606928Y-109809414D01*
X154729414Y-109686928D01*
X154831232Y-109546788D01*
X154909873Y-109392445D01*
X154963402Y-109227701D01*
X154990500Y-109056611D01*
X154990500Y-108883389D01*
X168029500Y-108883389D01*
X168029500Y-109056611D01*
X168056598Y-109227701D01*
X168110127Y-109392445D01*
X168188768Y-109546788D01*
X168290586Y-109686928D01*
X168413072Y-109809414D01*
X168553212Y-109911232D01*
X168707555Y-109989873D01*
X168872299Y-110043402D01*
X169043389Y-110070500D01*
X169043390Y-110070500D01*
X169216610Y-110070500D01*
X169216611Y-110070500D01*
X169387701Y-110043402D01*
X169552445Y-109989873D01*
X169706788Y-109911232D01*
X169846928Y-109809414D01*
X169969414Y-109686928D01*
X170071232Y-109546788D01*
X170149873Y-109392445D01*
X170203402Y-109227701D01*
X170230500Y-109056611D01*
X170230500Y-108883389D01*
X170203402Y-108712299D01*
X170149873Y-108547555D01*
X170071232Y-108393212D01*
X169969414Y-108253072D01*
X169846928Y-108130586D01*
X169706788Y-108028768D01*
X169552445Y-107950127D01*
X169387701Y-107896598D01*
X169387699Y-107896597D01*
X169387698Y-107896597D01*
X169256271Y-107875781D01*
X169216611Y-107869500D01*
X169043389Y-107869500D01*
X169003728Y-107875781D01*
X168872302Y-107896597D01*
X168707552Y-107950128D01*
X168553211Y-108028768D01*
X168473256Y-108086859D01*
X168413072Y-108130586D01*
X168413070Y-108130588D01*
X168413069Y-108130588D01*
X168290588Y-108253069D01*
X168290588Y-108253070D01*
X168290586Y-108253072D01*
X168246859Y-108313256D01*
X168188768Y-108393211D01*
X168110128Y-108547552D01*
X168056597Y-108712302D01*
X168029500Y-108883389D01*
X154990500Y-108883389D01*
X154963402Y-108712299D01*
X154909873Y-108547555D01*
X154831232Y-108393212D01*
X154729414Y-108253072D01*
X154606928Y-108130586D01*
X154466788Y-108028768D01*
X154312445Y-107950127D01*
X154147701Y-107896598D01*
X154147699Y-107896597D01*
X154147698Y-107896597D01*
X154016271Y-107875781D01*
X153976611Y-107869500D01*
X153803389Y-107869500D01*
X153763728Y-107875781D01*
X153632302Y-107896597D01*
X153467552Y-107950128D01*
X153313211Y-108028768D01*
X153233256Y-108086859D01*
X153173072Y-108130586D01*
X153173070Y-108130588D01*
X153173069Y-108130588D01*
X153050588Y-108253069D01*
X153050588Y-108253070D01*
X153050586Y-108253072D01*
X153006859Y-108313256D01*
X152948768Y-108393211D01*
X152870128Y-108547552D01*
X152816597Y-108712302D01*
X152789500Y-108883389D01*
X114900500Y-108883389D01*
X114900500Y-106343389D01*
X152789500Y-106343389D01*
X152789500Y-106516611D01*
X152816598Y-106687701D01*
X152870127Y-106852445D01*
X152948768Y-107006788D01*
X153050586Y-107146928D01*
X153173072Y-107269414D01*
X153313212Y-107371232D01*
X153467555Y-107449873D01*
X153632299Y-107503402D01*
X153803389Y-107530500D01*
X153803390Y-107530500D01*
X153976610Y-107530500D01*
X153976611Y-107530500D01*
X154147701Y-107503402D01*
X154312445Y-107449873D01*
X154466788Y-107371232D01*
X154606928Y-107269414D01*
X154729414Y-107146928D01*
X154831232Y-107006788D01*
X154909873Y-106852445D01*
X154963402Y-106687701D01*
X154990500Y-106516611D01*
X154990500Y-106343389D01*
X168029500Y-106343389D01*
X168029500Y-106516611D01*
X168056598Y-106687701D01*
X168110127Y-106852445D01*
X168188768Y-107006788D01*
X168290586Y-107146928D01*
X168413072Y-107269414D01*
X168553212Y-107371232D01*
X168707555Y-107449873D01*
X168872299Y-107503402D01*
X169043389Y-107530500D01*
X169043390Y-107530500D01*
X169216610Y-107530500D01*
X169216611Y-107530500D01*
X169387701Y-107503402D01*
X169552445Y-107449873D01*
X169706788Y-107371232D01*
X169846928Y-107269414D01*
X169969414Y-107146928D01*
X170071232Y-107006788D01*
X170149873Y-106852445D01*
X170203402Y-106687701D01*
X170230500Y-106516611D01*
X170230500Y-106343389D01*
X170203402Y-106172299D01*
X170149873Y-106007555D01*
X170071232Y-105853212D01*
X169969414Y-105713072D01*
X169846928Y-105590586D01*
X169706788Y-105488768D01*
X169552445Y-105410127D01*
X169387701Y-105356598D01*
X169387699Y-105356597D01*
X169387698Y-105356597D01*
X169256271Y-105335781D01*
X169216611Y-105329500D01*
X169043389Y-105329500D01*
X169003728Y-105335781D01*
X168872302Y-105356597D01*
X168707552Y-105410128D01*
X168553211Y-105488768D01*
X168473256Y-105546859D01*
X168413072Y-105590586D01*
X168413070Y-105590588D01*
X168413069Y-105590588D01*
X168290588Y-105713069D01*
X168290588Y-105713070D01*
X168290586Y-105713072D01*
X168246859Y-105773256D01*
X168188768Y-105853211D01*
X168110128Y-106007552D01*
X168056597Y-106172302D01*
X168029500Y-106343389D01*
X154990500Y-106343389D01*
X154963402Y-106172299D01*
X154909873Y-106007555D01*
X154831232Y-105853212D01*
X154729414Y-105713072D01*
X154606928Y-105590586D01*
X154466788Y-105488768D01*
X154312445Y-105410127D01*
X154147701Y-105356598D01*
X154147699Y-105356597D01*
X154147698Y-105356597D01*
X154016271Y-105335781D01*
X153976611Y-105329500D01*
X153803389Y-105329500D01*
X153763728Y-105335781D01*
X153632302Y-105356597D01*
X153467552Y-105410128D01*
X153313211Y-105488768D01*
X153233256Y-105546859D01*
X153173072Y-105590586D01*
X153173070Y-105590588D01*
X153173069Y-105590588D01*
X153050588Y-105713069D01*
X153050588Y-105713070D01*
X153050586Y-105713072D01*
X153006859Y-105773256D01*
X152948768Y-105853211D01*
X152870128Y-106007552D01*
X152816597Y-106172302D01*
X152789500Y-106343389D01*
X114900500Y-106343389D01*
X114900500Y-102256898D01*
X122199500Y-102256898D01*
X122199500Y-104343102D01*
X122205126Y-104389954D01*
X122210122Y-104431561D01*
X122265639Y-104572343D01*
X122357077Y-104692922D01*
X122477656Y-104784360D01*
X122477657Y-104784360D01*
X122477658Y-104784361D01*
X122618436Y-104839877D01*
X122706898Y-104850500D01*
X122706903Y-104850500D01*
X124793097Y-104850500D01*
X124793102Y-104850500D01*
X124881564Y-104839877D01*
X125022342Y-104784361D01*
X125142922Y-104692922D01*
X125234361Y-104572342D01*
X125289877Y-104431564D01*
X125300500Y-104343102D01*
X125300500Y-103803389D01*
X152789500Y-103803389D01*
X152789500Y-103976611D01*
X152816598Y-104147701D01*
X152870127Y-104312445D01*
X152948768Y-104466788D01*
X153050586Y-104606928D01*
X153173072Y-104729414D01*
X153313212Y-104831232D01*
X153467555Y-104909873D01*
X153632299Y-104963402D01*
X153803389Y-104990500D01*
X153803390Y-104990500D01*
X153976610Y-104990500D01*
X153976611Y-104990500D01*
X154147701Y-104963402D01*
X154312445Y-104909873D01*
X154466788Y-104831232D01*
X154606928Y-104729414D01*
X154729414Y-104606928D01*
X154831232Y-104466788D01*
X154909873Y-104312445D01*
X154963402Y-104147701D01*
X154990500Y-103976611D01*
X154990500Y-103803389D01*
X168029500Y-103803389D01*
X168029500Y-103976611D01*
X168056598Y-104147701D01*
X168110127Y-104312445D01*
X168188768Y-104466788D01*
X168290586Y-104606928D01*
X168413072Y-104729414D01*
X168553212Y-104831232D01*
X168707555Y-104909873D01*
X168872299Y-104963402D01*
X169043389Y-104990500D01*
X169043390Y-104990500D01*
X169216610Y-104990500D01*
X169216611Y-104990500D01*
X169387701Y-104963402D01*
X169552445Y-104909873D01*
X169706788Y-104831232D01*
X169846928Y-104729414D01*
X169969414Y-104606928D01*
X170071232Y-104466788D01*
X170149873Y-104312445D01*
X170203402Y-104147701D01*
X170230500Y-103976611D01*
X170230500Y-103803389D01*
X170203402Y-103632299D01*
X170149873Y-103467555D01*
X170071232Y-103313212D01*
X169969414Y-103173072D01*
X169846928Y-103050586D01*
X169706788Y-102948768D01*
X169656806Y-102923301D01*
X169656804Y-102923299D01*
X169552450Y-102870129D01*
X169552447Y-102870128D01*
X169552445Y-102870127D01*
X169401073Y-102820943D01*
X171699500Y-102820943D01*
X171699500Y-102979056D01*
X171740423Y-103131783D01*
X171740426Y-103131790D01*
X171819475Y-103268709D01*
X171819479Y-103268714D01*
X171819480Y-103268716D01*
X171931284Y-103380520D01*
X171931286Y-103380521D01*
X171931290Y-103380524D01*
X172068209Y-103459573D01*
X172068216Y-103459577D01*
X172220943Y-103500500D01*
X172220945Y-103500500D01*
X172379055Y-103500500D01*
X172379057Y-103500500D01*
X172531784Y-103459577D01*
X172668716Y-103380520D01*
X172668721Y-103380514D01*
X172674443Y-103376125D01*
X172739612Y-103350930D01*
X172749931Y-103350500D01*
X173850069Y-103350500D01*
X173917108Y-103370185D01*
X173925557Y-103376125D01*
X173931281Y-103380517D01*
X173931284Y-103380520D01*
X173931287Y-103380521D01*
X173931290Y-103380524D01*
X174068209Y-103459573D01*
X174068216Y-103459577D01*
X174220943Y-103500500D01*
X174220945Y-103500500D01*
X174379055Y-103500500D01*
X174379057Y-103500500D01*
X174531784Y-103459577D01*
X174668716Y-103380520D01*
X174780520Y-103268716D01*
X174859577Y-103131784D01*
X174900500Y-102979057D01*
X174900500Y-102820943D01*
X174859577Y-102668216D01*
X174836343Y-102627973D01*
X197532000Y-102627973D01*
X197532000Y-102872026D01*
X197560281Y-103050588D01*
X197570179Y-103113076D01*
X197645596Y-103345185D01*
X197724732Y-103500499D01*
X197756396Y-103562642D01*
X197899839Y-103760076D01*
X197899843Y-103760081D01*
X198072418Y-103932656D01*
X198072423Y-103932660D01*
X198132917Y-103976611D01*
X198269861Y-104076106D01*
X198487315Y-104186904D01*
X198719424Y-104262321D01*
X198960473Y-104300500D01*
X198960474Y-104300500D01*
X199204526Y-104300500D01*
X199204527Y-104300500D01*
X199445576Y-104262321D01*
X199677685Y-104186904D01*
X199895139Y-104076106D01*
X200092583Y-103932655D01*
X200265155Y-103760083D01*
X200408606Y-103562639D01*
X200519404Y-103345185D01*
X200594821Y-103113076D01*
X200633000Y-102872027D01*
X200633000Y-102627973D01*
X200594821Y-102386924D01*
X200519404Y-102154815D01*
X200408606Y-101937361D01*
X200320170Y-101815639D01*
X200265160Y-101739923D01*
X200265156Y-101739918D01*
X200092581Y-101567343D01*
X200092576Y-101567339D01*
X199895142Y-101423896D01*
X199895141Y-101423895D01*
X199895139Y-101423894D01*
X199677685Y-101313096D01*
X199445576Y-101237679D01*
X199445574Y-101237678D01*
X199445572Y-101237678D01*
X199277269Y-101211021D01*
X199204527Y-101199500D01*
X198960473Y-101199500D01*
X198904593Y-101208350D01*
X198719427Y-101237678D01*
X198487312Y-101313097D01*
X198269857Y-101423896D01*
X198072423Y-101567339D01*
X198072418Y-101567343D01*
X197899843Y-101739918D01*
X197899839Y-101739923D01*
X197756396Y-101937357D01*
X197645597Y-102154812D01*
X197570178Y-102386927D01*
X197532000Y-102627973D01*
X174836343Y-102627973D01*
X174780524Y-102531290D01*
X174780518Y-102531282D01*
X174668717Y-102419481D01*
X174668709Y-102419475D01*
X174531790Y-102340426D01*
X174531786Y-102340424D01*
X174531784Y-102340423D01*
X174379057Y-102299500D01*
X174220943Y-102299500D01*
X174068216Y-102340423D01*
X174068209Y-102340426D01*
X173931290Y-102419475D01*
X173925557Y-102423875D01*
X173860388Y-102449070D01*
X173850069Y-102449500D01*
X172749931Y-102449500D01*
X172682892Y-102429815D01*
X172674443Y-102423875D01*
X172668709Y-102419475D01*
X172531790Y-102340426D01*
X172531786Y-102340424D01*
X172531784Y-102340423D01*
X172379057Y-102299500D01*
X172220943Y-102299500D01*
X172068216Y-102340423D01*
X172068209Y-102340426D01*
X171931290Y-102419475D01*
X171931282Y-102419481D01*
X171819481Y-102531282D01*
X171819475Y-102531290D01*
X171740426Y-102668209D01*
X171740423Y-102668216D01*
X171699500Y-102820943D01*
X169401073Y-102820943D01*
X169387701Y-102816598D01*
X169387699Y-102816597D01*
X169387698Y-102816597D01*
X169256271Y-102795781D01*
X169216611Y-102789500D01*
X169043389Y-102789500D01*
X169003728Y-102795781D01*
X168872302Y-102816597D01*
X168707552Y-102870128D01*
X168553211Y-102948768D01*
X168473256Y-103006859D01*
X168413072Y-103050586D01*
X168413070Y-103050588D01*
X168413069Y-103050588D01*
X168290588Y-103173069D01*
X168290588Y-103173070D01*
X168290586Y-103173072D01*
X168246859Y-103233256D01*
X168188768Y-103313211D01*
X168110128Y-103467552D01*
X168056597Y-103632302D01*
X168036360Y-103760076D01*
X168029500Y-103803389D01*
X154990500Y-103803389D01*
X154963402Y-103632299D01*
X154909873Y-103467555D01*
X154831232Y-103313212D01*
X154729414Y-103173072D01*
X154606928Y-103050586D01*
X154466788Y-102948768D01*
X154312445Y-102870127D01*
X154147701Y-102816598D01*
X154147699Y-102816597D01*
X154147698Y-102816597D01*
X154016271Y-102795781D01*
X153976611Y-102789500D01*
X153803389Y-102789500D01*
X153763728Y-102795781D01*
X153632302Y-102816597D01*
X153467552Y-102870128D01*
X153313211Y-102948768D01*
X153233256Y-103006859D01*
X153173072Y-103050586D01*
X153173070Y-103050588D01*
X153173069Y-103050588D01*
X153050588Y-103173069D01*
X153050588Y-103173070D01*
X153050586Y-103173072D01*
X153006859Y-103233256D01*
X152948768Y-103313211D01*
X152870128Y-103467552D01*
X152816597Y-103632302D01*
X152796360Y-103760076D01*
X152789500Y-103803389D01*
X125300500Y-103803389D01*
X125300500Y-102256898D01*
X125289877Y-102168436D01*
X125234361Y-102027658D01*
X125234360Y-102027657D01*
X125234360Y-102027656D01*
X125142922Y-101907077D01*
X125022343Y-101815639D01*
X124881561Y-101760122D01*
X124835926Y-101754642D01*
X124793102Y-101749500D01*
X122706898Y-101749500D01*
X122667853Y-101754188D01*
X122618438Y-101760122D01*
X122477656Y-101815639D01*
X122357077Y-101907077D01*
X122265639Y-102027656D01*
X122210122Y-102168438D01*
X122204188Y-102217853D01*
X122199500Y-102256898D01*
X114900500Y-102256898D01*
X114900500Y-101263389D01*
X152789500Y-101263389D01*
X152789500Y-101436611D01*
X152816598Y-101607701D01*
X152870127Y-101772445D01*
X152948768Y-101926788D01*
X153050586Y-102066928D01*
X153173072Y-102189414D01*
X153313212Y-102291232D01*
X153467555Y-102369873D01*
X153632299Y-102423402D01*
X153803389Y-102450500D01*
X153803390Y-102450500D01*
X153976610Y-102450500D01*
X153976611Y-102450500D01*
X154147701Y-102423402D01*
X154312445Y-102369873D01*
X154466788Y-102291232D01*
X154606928Y-102189414D01*
X154729414Y-102066928D01*
X154831232Y-101926788D01*
X154909873Y-101772445D01*
X154963402Y-101607701D01*
X154990500Y-101436611D01*
X154990500Y-101263389D01*
X168029500Y-101263389D01*
X168029500Y-101436611D01*
X168056598Y-101607701D01*
X168110127Y-101772445D01*
X168188768Y-101926788D01*
X168290586Y-102066928D01*
X168413072Y-102189414D01*
X168553212Y-102291232D01*
X168707555Y-102369873D01*
X168872299Y-102423402D01*
X169043389Y-102450500D01*
X169043390Y-102450500D01*
X169216610Y-102450500D01*
X169216611Y-102450500D01*
X169387701Y-102423402D01*
X169552445Y-102369873D01*
X169706788Y-102291232D01*
X169846928Y-102189414D01*
X169969414Y-102066928D01*
X170071232Y-101926788D01*
X170149873Y-101772445D01*
X170203402Y-101607701D01*
X170230500Y-101436611D01*
X170230500Y-101263389D01*
X170203402Y-101092299D01*
X170149873Y-100927555D01*
X170071232Y-100773212D01*
X169969414Y-100633072D01*
X169846928Y-100510586D01*
X169706788Y-100408768D01*
X169552445Y-100330127D01*
X169387701Y-100276598D01*
X169387699Y-100276597D01*
X169387698Y-100276597D01*
X169256271Y-100255781D01*
X169216611Y-100249500D01*
X169043389Y-100249500D01*
X169003728Y-100255781D01*
X168872302Y-100276597D01*
X168707552Y-100330128D01*
X168553211Y-100408768D01*
X168473256Y-100466859D01*
X168413072Y-100510586D01*
X168413070Y-100510588D01*
X168413069Y-100510588D01*
X168290588Y-100633069D01*
X168290588Y-100633070D01*
X168290586Y-100633072D01*
X168246859Y-100693256D01*
X168188768Y-100773211D01*
X168110128Y-100927552D01*
X168056597Y-101092302D01*
X168039619Y-101199500D01*
X168029500Y-101263389D01*
X154990500Y-101263389D01*
X154963402Y-101092299D01*
X154909873Y-100927555D01*
X154831232Y-100773212D01*
X154729414Y-100633072D01*
X154606928Y-100510586D01*
X154466788Y-100408768D01*
X154312445Y-100330127D01*
X154147701Y-100276598D01*
X154147699Y-100276597D01*
X154147698Y-100276597D01*
X154016271Y-100255781D01*
X153976611Y-100249500D01*
X153803389Y-100249500D01*
X153763728Y-100255781D01*
X153632302Y-100276597D01*
X153467552Y-100330128D01*
X153313211Y-100408768D01*
X153233256Y-100466859D01*
X153173072Y-100510586D01*
X153173070Y-100510588D01*
X153173069Y-100510588D01*
X153050588Y-100633069D01*
X153050588Y-100633070D01*
X153050586Y-100633072D01*
X153006859Y-100693256D01*
X152948768Y-100773211D01*
X152870128Y-100927552D01*
X152816597Y-101092302D01*
X152799619Y-101199500D01*
X152789500Y-101263389D01*
X114900500Y-101263389D01*
X114900500Y-98177973D01*
X122199500Y-98177973D01*
X122199500Y-98422026D01*
X122216804Y-98531282D01*
X122237679Y-98663076D01*
X122313096Y-98895185D01*
X122334199Y-98936603D01*
X122423896Y-99112642D01*
X122567339Y-99310076D01*
X122567343Y-99310081D01*
X122739918Y-99482656D01*
X122739923Y-99482660D01*
X122912136Y-99607779D01*
X122937361Y-99626106D01*
X123154815Y-99736904D01*
X123386924Y-99812321D01*
X123627973Y-99850500D01*
X123627974Y-99850500D01*
X123872026Y-99850500D01*
X123872027Y-99850500D01*
X124113076Y-99812321D01*
X124345185Y-99736904D01*
X124562639Y-99626106D01*
X124760083Y-99482655D01*
X124932655Y-99310083D01*
X125076106Y-99112639D01*
X125186904Y-98895185D01*
X125242724Y-98723389D01*
X152789500Y-98723389D01*
X152789500Y-98896611D01*
X152816598Y-99067701D01*
X152870127Y-99232445D01*
X152948768Y-99386788D01*
X153050586Y-99526928D01*
X153173072Y-99649414D01*
X153313212Y-99751232D01*
X153467555Y-99829873D01*
X153632299Y-99883402D01*
X153803389Y-99910500D01*
X153803390Y-99910500D01*
X153976610Y-99910500D01*
X153976611Y-99910500D01*
X154147701Y-99883402D01*
X154312445Y-99829873D01*
X154466788Y-99751232D01*
X154606928Y-99649414D01*
X154729414Y-99526928D01*
X154831232Y-99386788D01*
X154909873Y-99232445D01*
X154963402Y-99067701D01*
X154990500Y-98896611D01*
X154990500Y-98723389D01*
X168029500Y-98723389D01*
X168029500Y-98896611D01*
X168056598Y-99067701D01*
X168110127Y-99232445D01*
X168188768Y-99386788D01*
X168290586Y-99526928D01*
X168413072Y-99649414D01*
X168553212Y-99751232D01*
X168707555Y-99829873D01*
X168872299Y-99883402D01*
X169043389Y-99910500D01*
X169043390Y-99910500D01*
X169216610Y-99910500D01*
X169216611Y-99910500D01*
X169387701Y-99883402D01*
X169552445Y-99829873D01*
X169706788Y-99751232D01*
X169846928Y-99649414D01*
X169969414Y-99526928D01*
X170071232Y-99386788D01*
X170149873Y-99232445D01*
X170203402Y-99067701D01*
X170230500Y-98896611D01*
X170230500Y-98820943D01*
X171199500Y-98820943D01*
X171199500Y-98979057D01*
X171211099Y-99022343D01*
X171240423Y-99131783D01*
X171240426Y-99131790D01*
X171319475Y-99268709D01*
X171319479Y-99268714D01*
X171319480Y-99268716D01*
X171431284Y-99380520D01*
X171431286Y-99380521D01*
X171431290Y-99380524D01*
X171568209Y-99459573D01*
X171568216Y-99459577D01*
X171720943Y-99500500D01*
X171720945Y-99500500D01*
X171879055Y-99500500D01*
X171879057Y-99500500D01*
X172031784Y-99459577D01*
X172168716Y-99380520D01*
X172280520Y-99268716D01*
X172359577Y-99131784D01*
X172400500Y-98979057D01*
X172400500Y-98979044D01*
X172401441Y-98971901D01*
X172429707Y-98908003D01*
X172436688Y-98900414D01*
X174400404Y-96936698D01*
X174461725Y-96903215D01*
X174471901Y-96901441D01*
X174479045Y-96900500D01*
X174479057Y-96900500D01*
X174631784Y-96859577D01*
X174768716Y-96780520D01*
X174842338Y-96706898D01*
X197532000Y-96706898D01*
X197532000Y-98793102D01*
X197537626Y-98839954D01*
X197542622Y-98881561D01*
X197542622Y-98881563D01*
X197542623Y-98881564D01*
X197548557Y-98896611D01*
X197598139Y-99022343D01*
X197689577Y-99142922D01*
X197810156Y-99234360D01*
X197810157Y-99234360D01*
X197810158Y-99234361D01*
X197950936Y-99289877D01*
X198039398Y-99300500D01*
X198039403Y-99300500D01*
X200125597Y-99300500D01*
X200125602Y-99300500D01*
X200214064Y-99289877D01*
X200354842Y-99234361D01*
X200475422Y-99142922D01*
X200566861Y-99022342D01*
X200622377Y-98881564D01*
X200633000Y-98793102D01*
X200633000Y-96706898D01*
X200622377Y-96618436D01*
X200566861Y-96477658D01*
X200566860Y-96477657D01*
X200566860Y-96477656D01*
X200475422Y-96357077D01*
X200354843Y-96265639D01*
X200258692Y-96227722D01*
X200214064Y-96210123D01*
X200214063Y-96210122D01*
X200214061Y-96210122D01*
X200168426Y-96204642D01*
X200125602Y-96199500D01*
X198039398Y-96199500D01*
X198000353Y-96204188D01*
X197950938Y-96210122D01*
X197810156Y-96265639D01*
X197689577Y-96357077D01*
X197598139Y-96477656D01*
X197542622Y-96618438D01*
X197539890Y-96641192D01*
X197532000Y-96706898D01*
X174842338Y-96706898D01*
X174880520Y-96668716D01*
X174959577Y-96531784D01*
X175000500Y-96379057D01*
X175000500Y-96220943D01*
X174959577Y-96068216D01*
X174959573Y-96068209D01*
X174880524Y-95931290D01*
X174880518Y-95931282D01*
X174768717Y-95819481D01*
X174768709Y-95819475D01*
X174631790Y-95740426D01*
X174631786Y-95740424D01*
X174631784Y-95740423D01*
X174479057Y-95699500D01*
X174320943Y-95699500D01*
X174168216Y-95740423D01*
X174168209Y-95740426D01*
X174031290Y-95819475D01*
X174031282Y-95819481D01*
X173919481Y-95931282D01*
X173919475Y-95931290D01*
X173840426Y-96068209D01*
X173840423Y-96068216D01*
X173799498Y-96220949D01*
X173798556Y-96228107D01*
X173770287Y-96292003D01*
X173763299Y-96299597D01*
X171799597Y-98263299D01*
X171738274Y-98296784D01*
X171728107Y-98298556D01*
X171720949Y-98299498D01*
X171568216Y-98340423D01*
X171568209Y-98340426D01*
X171431290Y-98419475D01*
X171431282Y-98419481D01*
X171319481Y-98531282D01*
X171319475Y-98531290D01*
X171240426Y-98668209D01*
X171240423Y-98668216D01*
X171199500Y-98820943D01*
X170230500Y-98820943D01*
X170230500Y-98723389D01*
X170203402Y-98552299D01*
X170149873Y-98387555D01*
X170071232Y-98233212D01*
X169969414Y-98093072D01*
X169846928Y-97970586D01*
X169706788Y-97868768D01*
X169552445Y-97790127D01*
X169387701Y-97736598D01*
X169387699Y-97736597D01*
X169387698Y-97736597D01*
X169256271Y-97715781D01*
X169216611Y-97709500D01*
X169043389Y-97709500D01*
X169003728Y-97715781D01*
X168872302Y-97736597D01*
X168707552Y-97790128D01*
X168553211Y-97868768D01*
X168473256Y-97926859D01*
X168413072Y-97970586D01*
X168413070Y-97970588D01*
X168413069Y-97970588D01*
X168290588Y-98093069D01*
X168290588Y-98093070D01*
X168290586Y-98093072D01*
X168246859Y-98153256D01*
X168188768Y-98233211D01*
X168110128Y-98387552D01*
X168056597Y-98552302D01*
X168029500Y-98723389D01*
X154990500Y-98723389D01*
X154963402Y-98552299D01*
X154909873Y-98387555D01*
X154831232Y-98233212D01*
X154729414Y-98093072D01*
X154606928Y-97970586D01*
X154466788Y-97868768D01*
X154312445Y-97790127D01*
X154147701Y-97736598D01*
X154147699Y-97736597D01*
X154147698Y-97736597D01*
X154016271Y-97715781D01*
X153976611Y-97709500D01*
X153803389Y-97709500D01*
X153763728Y-97715781D01*
X153632302Y-97736597D01*
X153467552Y-97790128D01*
X153313211Y-97868768D01*
X153233256Y-97926859D01*
X153173072Y-97970586D01*
X153173070Y-97970588D01*
X153173069Y-97970588D01*
X153050588Y-98093069D01*
X153050588Y-98093070D01*
X153050586Y-98093072D01*
X153006859Y-98153256D01*
X152948768Y-98233211D01*
X152870128Y-98387552D01*
X152816597Y-98552302D01*
X152789500Y-98723389D01*
X125242724Y-98723389D01*
X125262321Y-98663076D01*
X125300500Y-98422027D01*
X125300500Y-98177973D01*
X125262321Y-97936924D01*
X125186904Y-97704815D01*
X125076106Y-97487361D01*
X124971514Y-97343402D01*
X124932660Y-97289923D01*
X124932656Y-97289918D01*
X124760081Y-97117343D01*
X124760076Y-97117339D01*
X124562642Y-96973896D01*
X124562641Y-96973895D01*
X124562639Y-96973894D01*
X124345185Y-96863096D01*
X124113076Y-96787679D01*
X124113074Y-96787678D01*
X124113072Y-96787678D01*
X123935624Y-96759573D01*
X123872027Y-96749500D01*
X123627973Y-96749500D01*
X123572093Y-96758350D01*
X123386927Y-96787678D01*
X123154812Y-96863097D01*
X122937357Y-96973896D01*
X122739923Y-97117339D01*
X122739918Y-97117343D01*
X122567343Y-97289918D01*
X122567339Y-97289923D01*
X122423896Y-97487357D01*
X122313097Y-97704812D01*
X122237678Y-97936927D01*
X122199500Y-98177973D01*
X114900500Y-98177973D01*
X114900500Y-96183389D01*
X152789500Y-96183389D01*
X152789500Y-96356610D01*
X152808671Y-96477656D01*
X152816598Y-96527701D01*
X152870127Y-96692445D01*
X152948768Y-96846788D01*
X153050586Y-96986928D01*
X153173072Y-97109414D01*
X153313212Y-97211232D01*
X153467555Y-97289873D01*
X153632299Y-97343402D01*
X153803389Y-97370500D01*
X153803390Y-97370500D01*
X153976610Y-97370500D01*
X153976611Y-97370500D01*
X154147701Y-97343402D01*
X154312445Y-97289873D01*
X154466788Y-97211232D01*
X154606928Y-97109414D01*
X154729414Y-96986928D01*
X154831232Y-96846788D01*
X154909873Y-96692445D01*
X154963402Y-96527701D01*
X154990500Y-96356611D01*
X154990500Y-96183389D01*
X154980610Y-96120943D01*
X158499500Y-96120943D01*
X158499500Y-96279057D01*
X158526295Y-96379055D01*
X158540423Y-96431783D01*
X158540426Y-96431790D01*
X158619475Y-96568709D01*
X158619479Y-96568714D01*
X158619480Y-96568716D01*
X158731284Y-96680520D01*
X158731286Y-96680521D01*
X158731290Y-96680524D01*
X158850762Y-96749500D01*
X158868216Y-96759577D01*
X159020943Y-96800500D01*
X159020945Y-96800500D01*
X159179055Y-96800500D01*
X159179057Y-96800500D01*
X159331784Y-96759577D01*
X159468716Y-96680520D01*
X159580520Y-96568716D01*
X159659577Y-96431784D01*
X159700500Y-96279057D01*
X159700500Y-96183389D01*
X168029500Y-96183389D01*
X168029500Y-96356610D01*
X168048671Y-96477656D01*
X168056598Y-96527701D01*
X168110127Y-96692445D01*
X168188768Y-96846788D01*
X168290586Y-96986928D01*
X168413072Y-97109414D01*
X168553212Y-97211232D01*
X168707555Y-97289873D01*
X168872299Y-97343402D01*
X169043389Y-97370500D01*
X169043390Y-97370500D01*
X169216610Y-97370500D01*
X169216611Y-97370500D01*
X169387701Y-97343402D01*
X169552445Y-97289873D01*
X169706788Y-97211232D01*
X169846928Y-97109414D01*
X169969414Y-96986928D01*
X170071232Y-96846788D01*
X170149873Y-96692445D01*
X170203402Y-96527701D01*
X170230500Y-96356611D01*
X170230500Y-96183389D01*
X170203402Y-96012299D01*
X170149873Y-95847555D01*
X170071232Y-95693212D01*
X169969414Y-95553072D01*
X169846928Y-95430586D01*
X169706788Y-95328768D01*
X169552445Y-95250127D01*
X169387701Y-95196598D01*
X169387699Y-95196597D01*
X169387698Y-95196597D01*
X169256271Y-95175781D01*
X169216611Y-95169500D01*
X169043389Y-95169500D01*
X169003728Y-95175781D01*
X168872302Y-95196597D01*
X168707552Y-95250128D01*
X168553211Y-95328768D01*
X168473256Y-95386859D01*
X168413072Y-95430586D01*
X168413070Y-95430588D01*
X168413069Y-95430588D01*
X168290588Y-95553069D01*
X168290588Y-95553070D01*
X168290586Y-95553072D01*
X168246859Y-95613256D01*
X168188768Y-95693211D01*
X168110128Y-95847552D01*
X168056597Y-96012302D01*
X168029500Y-96183389D01*
X159700500Y-96183389D01*
X159700500Y-96120943D01*
X159659577Y-95968216D01*
X159659576Y-95968214D01*
X159657473Y-95960365D01*
X159658165Y-95960179D01*
X159650500Y-95921637D01*
X159650500Y-93643389D01*
X168029500Y-93643389D01*
X168029500Y-93816611D01*
X168056598Y-93987701D01*
X168110127Y-94152445D01*
X168188768Y-94306788D01*
X168290586Y-94446928D01*
X168413072Y-94569414D01*
X168553212Y-94671232D01*
X168707555Y-94749873D01*
X168872299Y-94803402D01*
X169043389Y-94830500D01*
X169043390Y-94830500D01*
X169216610Y-94830500D01*
X169216611Y-94830500D01*
X169387701Y-94803402D01*
X169552445Y-94749873D01*
X169706788Y-94671232D01*
X169846928Y-94569414D01*
X169969414Y-94446928D01*
X170071232Y-94306788D01*
X170149873Y-94152445D01*
X170203402Y-93987701D01*
X170230500Y-93816611D01*
X170230500Y-93643389D01*
X170203402Y-93472299D01*
X170149873Y-93307555D01*
X170071232Y-93153212D01*
X169969414Y-93013072D01*
X169846928Y-92890586D01*
X169706788Y-92788768D01*
X169552445Y-92710127D01*
X169387701Y-92656598D01*
X169387699Y-92656597D01*
X169387698Y-92656597D01*
X169256271Y-92635781D01*
X169216611Y-92629500D01*
X169043389Y-92629500D01*
X169003728Y-92635781D01*
X168872302Y-92656597D01*
X168707552Y-92710128D01*
X168553211Y-92788768D01*
X168473256Y-92846859D01*
X168413072Y-92890586D01*
X168413070Y-92890588D01*
X168413069Y-92890588D01*
X168290588Y-93013069D01*
X168290588Y-93013070D01*
X168290586Y-93013072D01*
X168246859Y-93073256D01*
X168188768Y-93153211D01*
X168110128Y-93307552D01*
X168056597Y-93472302D01*
X168029500Y-93643389D01*
X159650500Y-93643389D01*
X159650500Y-89217334D01*
X159667113Y-89155334D01*
X159709577Y-89081784D01*
X159750500Y-88929057D01*
X159750500Y-88770943D01*
X159709577Y-88618216D01*
X159680999Y-88568717D01*
X159630524Y-88481290D01*
X159630518Y-88481282D01*
X159518717Y-88369481D01*
X159518709Y-88369475D01*
X159381790Y-88290426D01*
X159381786Y-88290424D01*
X159381784Y-88290423D01*
X159229057Y-88249500D01*
X159070943Y-88249500D01*
X158918216Y-88290423D01*
X158918209Y-88290426D01*
X158781290Y-88369475D01*
X158781282Y-88369481D01*
X158669481Y-88481282D01*
X158669475Y-88481290D01*
X158590426Y-88618209D01*
X158590423Y-88618216D01*
X158549500Y-88770943D01*
X158549500Y-95921637D01*
X158548395Y-95927190D01*
X158545465Y-95953012D01*
X158542371Y-95964841D01*
X158540423Y-95968216D01*
X158499500Y-96120943D01*
X154980610Y-96120943D01*
X154963402Y-96012299D01*
X154909873Y-95847555D01*
X154831232Y-95693212D01*
X154729414Y-95553072D01*
X154606928Y-95430586D01*
X154466788Y-95328768D01*
X154312445Y-95250127D01*
X154147701Y-95196598D01*
X154147699Y-95196597D01*
X154147698Y-95196597D01*
X154016271Y-95175781D01*
X153976611Y-95169500D01*
X153803389Y-95169500D01*
X153763728Y-95175781D01*
X153632302Y-95196597D01*
X153467552Y-95250128D01*
X153313211Y-95328768D01*
X153233256Y-95386859D01*
X153173072Y-95430586D01*
X153173070Y-95430588D01*
X153173069Y-95430588D01*
X153050588Y-95553069D01*
X153050588Y-95553070D01*
X153050586Y-95553072D01*
X153006859Y-95613256D01*
X152948768Y-95693211D01*
X152870128Y-95847552D01*
X152816597Y-96012302D01*
X152789500Y-96183389D01*
X114900500Y-96183389D01*
X114900500Y-93643389D01*
X152789500Y-93643389D01*
X152789500Y-93816611D01*
X152816598Y-93987701D01*
X152870127Y-94152445D01*
X152948768Y-94306788D01*
X153050586Y-94446928D01*
X153173072Y-94569414D01*
X153313212Y-94671232D01*
X153467555Y-94749873D01*
X153632299Y-94803402D01*
X153803389Y-94830500D01*
X153803390Y-94830500D01*
X153976610Y-94830500D01*
X153976611Y-94830500D01*
X154147701Y-94803402D01*
X154312445Y-94749873D01*
X154466788Y-94671232D01*
X154606928Y-94569414D01*
X154729414Y-94446928D01*
X154831232Y-94306788D01*
X154909873Y-94152445D01*
X154963402Y-93987701D01*
X154990500Y-93816611D01*
X154990500Y-93643389D01*
X154963402Y-93472299D01*
X154909873Y-93307555D01*
X154831232Y-93153212D01*
X154729414Y-93013072D01*
X154606928Y-92890586D01*
X154466788Y-92788768D01*
X154312445Y-92710127D01*
X154147701Y-92656598D01*
X154147699Y-92656597D01*
X154147698Y-92656597D01*
X154016271Y-92635781D01*
X153976611Y-92629500D01*
X153803389Y-92629500D01*
X153763728Y-92635781D01*
X153632302Y-92656597D01*
X153467552Y-92710128D01*
X153313211Y-92788768D01*
X153233256Y-92846859D01*
X153173072Y-92890586D01*
X153173070Y-92890588D01*
X153173069Y-92890588D01*
X153050588Y-93013069D01*
X153050588Y-93013070D01*
X153050586Y-93013072D01*
X153006859Y-93073256D01*
X152948768Y-93153211D01*
X152870128Y-93307552D01*
X152816597Y-93472302D01*
X152789500Y-93643389D01*
X114900500Y-93643389D01*
X114900500Y-91103389D01*
X152789500Y-91103389D01*
X152789500Y-91276611D01*
X152816598Y-91447701D01*
X152870127Y-91612445D01*
X152948768Y-91766788D01*
X153050586Y-91906928D01*
X153173072Y-92029414D01*
X153313212Y-92131232D01*
X153467555Y-92209873D01*
X153632299Y-92263402D01*
X153803389Y-92290500D01*
X153803390Y-92290500D01*
X153976610Y-92290500D01*
X153976611Y-92290500D01*
X154147701Y-92263402D01*
X154312445Y-92209873D01*
X154466788Y-92131232D01*
X154606928Y-92029414D01*
X154729414Y-91906928D01*
X154831232Y-91766788D01*
X154909873Y-91612445D01*
X154963402Y-91447701D01*
X154990500Y-91276611D01*
X154990500Y-91103389D01*
X154963402Y-90932299D01*
X154909873Y-90767555D01*
X154831232Y-90613212D01*
X154729414Y-90473072D01*
X154606928Y-90350586D01*
X154466788Y-90248768D01*
X154432473Y-90231284D01*
X154312447Y-90170128D01*
X154312446Y-90170127D01*
X154312445Y-90170127D01*
X154147701Y-90116598D01*
X154147699Y-90116597D01*
X154147698Y-90116597D01*
X154016271Y-90095781D01*
X153976611Y-90089500D01*
X153803389Y-90089500D01*
X153763728Y-90095781D01*
X153632302Y-90116597D01*
X153467552Y-90170128D01*
X153313211Y-90248768D01*
X153233256Y-90306859D01*
X153173072Y-90350586D01*
X153173070Y-90350588D01*
X153173069Y-90350588D01*
X153050588Y-90473069D01*
X153050588Y-90473070D01*
X153050586Y-90473072D01*
X153050582Y-90473078D01*
X152948768Y-90613211D01*
X152870128Y-90767552D01*
X152816597Y-90932302D01*
X152805413Y-91002916D01*
X152789500Y-91103389D01*
X114900500Y-91103389D01*
X114900500Y-86956898D01*
X122199500Y-86956898D01*
X122199500Y-89043102D01*
X122205126Y-89089954D01*
X122210122Y-89131561D01*
X122265639Y-89272343D01*
X122357077Y-89392922D01*
X122477656Y-89484360D01*
X122477657Y-89484360D01*
X122477658Y-89484361D01*
X122618436Y-89539877D01*
X122706898Y-89550500D01*
X122706903Y-89550500D01*
X124793097Y-89550500D01*
X124793102Y-89550500D01*
X124881564Y-89539877D01*
X125022342Y-89484361D01*
X125142922Y-89392922D01*
X125234361Y-89272342D01*
X125289877Y-89131564D01*
X125300500Y-89043102D01*
X125300500Y-88563389D01*
X152789500Y-88563389D01*
X152789500Y-88736611D01*
X152794938Y-88770943D01*
X152805352Y-88836700D01*
X152816598Y-88907701D01*
X152870127Y-89072445D01*
X152948768Y-89226788D01*
X153050586Y-89366928D01*
X153173072Y-89489414D01*
X153313212Y-89591232D01*
X153467555Y-89669873D01*
X153632299Y-89723402D01*
X153803389Y-89750500D01*
X153803390Y-89750500D01*
X153976610Y-89750500D01*
X153976611Y-89750500D01*
X154147701Y-89723402D01*
X154312445Y-89669873D01*
X154466788Y-89591232D01*
X154606928Y-89489414D01*
X154729414Y-89366928D01*
X154831232Y-89226788D01*
X154909873Y-89072445D01*
X154963402Y-88907701D01*
X154990500Y-88736611D01*
X154990500Y-88563389D01*
X154963402Y-88392299D01*
X154909873Y-88227555D01*
X154895628Y-88199597D01*
X154880096Y-88169112D01*
X154880095Y-88169111D01*
X154855552Y-88120943D01*
X164399500Y-88120943D01*
X164399500Y-88279057D01*
X164423728Y-88369475D01*
X164440423Y-88431783D01*
X164440426Y-88431790D01*
X164519475Y-88568709D01*
X164519479Y-88568714D01*
X164519480Y-88568716D01*
X164631284Y-88680520D01*
X164631286Y-88680521D01*
X164631290Y-88680524D01*
X164728437Y-88736611D01*
X164768216Y-88759577D01*
X164920943Y-88800500D01*
X164920945Y-88800500D01*
X164928099Y-88801442D01*
X164991996Y-88829707D01*
X164999597Y-88836700D01*
X166763299Y-90600402D01*
X166796784Y-90661725D01*
X166798556Y-90671893D01*
X166799498Y-90679050D01*
X166840423Y-90831783D01*
X166840426Y-90831790D01*
X166919475Y-90968709D01*
X166919479Y-90968714D01*
X166919480Y-90968716D01*
X167031284Y-91080520D01*
X167031286Y-91080521D01*
X167031290Y-91080524D01*
X167168209Y-91159573D01*
X167168216Y-91159577D01*
X167320943Y-91200500D01*
X167320945Y-91200500D01*
X167479055Y-91200500D01*
X167479057Y-91200500D01*
X167631784Y-91159577D01*
X167768716Y-91080520D01*
X167817819Y-91031417D01*
X167879142Y-90997932D01*
X167948834Y-91002916D01*
X168004767Y-91044788D01*
X168029184Y-91110252D01*
X168029500Y-91119098D01*
X168029500Y-91276611D01*
X168056598Y-91447701D01*
X168110127Y-91612445D01*
X168188768Y-91766788D01*
X168290586Y-91906928D01*
X168413072Y-92029414D01*
X168553212Y-92131232D01*
X168707555Y-92209873D01*
X168872299Y-92263402D01*
X169043389Y-92290500D01*
X169043390Y-92290500D01*
X169216610Y-92290500D01*
X169216611Y-92290500D01*
X169387701Y-92263402D01*
X169552445Y-92209873D01*
X169706788Y-92131232D01*
X169846928Y-92029414D01*
X169969414Y-91906928D01*
X170071232Y-91766788D01*
X170149873Y-91612445D01*
X170203402Y-91447701D01*
X170230500Y-91276611D01*
X170230500Y-91103389D01*
X170203402Y-90932299D01*
X170149873Y-90767555D01*
X170071232Y-90613212D01*
X169969414Y-90473072D01*
X169846928Y-90350586D01*
X169706788Y-90248768D01*
X169672473Y-90231284D01*
X169552447Y-90170128D01*
X169552446Y-90170127D01*
X169552445Y-90170127D01*
X169387701Y-90116598D01*
X169387699Y-90116597D01*
X169387698Y-90116597D01*
X169256271Y-90095781D01*
X169216611Y-90089500D01*
X169043389Y-90089500D01*
X169003728Y-90095781D01*
X168872302Y-90116597D01*
X168707552Y-90170128D01*
X168553211Y-90248768D01*
X168473256Y-90306859D01*
X168413072Y-90350586D01*
X168413070Y-90350588D01*
X168413069Y-90350588D01*
X168290588Y-90473069D01*
X168290581Y-90473078D01*
X168222093Y-90567342D01*
X168166763Y-90610008D01*
X168097150Y-90615986D01*
X168035355Y-90583379D01*
X168002001Y-90526549D01*
X168000500Y-90520947D01*
X168000500Y-90520943D01*
X167959577Y-90368216D01*
X167949400Y-90350588D01*
X167880524Y-90231290D01*
X167880518Y-90231282D01*
X167768717Y-90119481D01*
X167768709Y-90119475D01*
X167631790Y-90040426D01*
X167631786Y-90040424D01*
X167631784Y-90040423D01*
X167479057Y-89999500D01*
X167479050Y-89999498D01*
X167471893Y-89998556D01*
X167407997Y-89970287D01*
X167400402Y-89963299D01*
X166000492Y-88563389D01*
X168029500Y-88563389D01*
X168029500Y-88736611D01*
X168034938Y-88770943D01*
X168045352Y-88836700D01*
X168056598Y-88907701D01*
X168110127Y-89072445D01*
X168188768Y-89226788D01*
X168290586Y-89366928D01*
X168413072Y-89489414D01*
X168553212Y-89591232D01*
X168707555Y-89669873D01*
X168872299Y-89723402D01*
X169043389Y-89750500D01*
X169043390Y-89750500D01*
X169216610Y-89750500D01*
X169216611Y-89750500D01*
X169387701Y-89723402D01*
X169552445Y-89669873D01*
X169706788Y-89591232D01*
X169846928Y-89489414D01*
X169969414Y-89366928D01*
X170071232Y-89226788D01*
X170149873Y-89072445D01*
X170203402Y-88907701D01*
X170230500Y-88736611D01*
X170230500Y-88563389D01*
X170203402Y-88392299D01*
X170149873Y-88227555D01*
X170071232Y-88073212D01*
X169969414Y-87933072D01*
X169914315Y-87877973D01*
X197449500Y-87877973D01*
X197449500Y-88122027D01*
X197487679Y-88363076D01*
X197563096Y-88595185D01*
X197635155Y-88736610D01*
X197673896Y-88812642D01*
X197817339Y-89010076D01*
X197817343Y-89010081D01*
X197989918Y-89182656D01*
X197989923Y-89182660D01*
X198113361Y-89272342D01*
X198187361Y-89326106D01*
X198404815Y-89436904D01*
X198636924Y-89512321D01*
X198877973Y-89550500D01*
X198877974Y-89550500D01*
X199122026Y-89550500D01*
X199122027Y-89550500D01*
X199363076Y-89512321D01*
X199595185Y-89436904D01*
X199812639Y-89326106D01*
X200010083Y-89182655D01*
X200182655Y-89010083D01*
X200326106Y-88812639D01*
X200436904Y-88595185D01*
X200512321Y-88363076D01*
X200550500Y-88122027D01*
X200550500Y-87877973D01*
X200512321Y-87636924D01*
X200436904Y-87404815D01*
X200326106Y-87187361D01*
X200227202Y-87051231D01*
X200182660Y-86989923D01*
X200182656Y-86989918D01*
X200010081Y-86817343D01*
X200010076Y-86817339D01*
X199812642Y-86673896D01*
X199812641Y-86673895D01*
X199812639Y-86673894D01*
X199595185Y-86563096D01*
X199363076Y-86487679D01*
X199363074Y-86487678D01*
X199363072Y-86487678D01*
X199189091Y-86460122D01*
X199122027Y-86449500D01*
X198877973Y-86449500D01*
X198822093Y-86458350D01*
X198636927Y-86487678D01*
X198404812Y-86563097D01*
X198187357Y-86673896D01*
X197989923Y-86817339D01*
X197989918Y-86817343D01*
X197817343Y-86989918D01*
X197817339Y-86989923D01*
X197673896Y-87187357D01*
X197563097Y-87404812D01*
X197487678Y-87636927D01*
X197474604Y-87719475D01*
X197449500Y-87877973D01*
X169914315Y-87877973D01*
X169846928Y-87810586D01*
X169706788Y-87708768D01*
X169552445Y-87630127D01*
X169387701Y-87576598D01*
X169387699Y-87576597D01*
X169387698Y-87576597D01*
X169256271Y-87555781D01*
X169216611Y-87549500D01*
X169043389Y-87549500D01*
X169003728Y-87555781D01*
X168872302Y-87576597D01*
X168707552Y-87630128D01*
X168553211Y-87708768D01*
X168473256Y-87766859D01*
X168413072Y-87810586D01*
X168413070Y-87810588D01*
X168413069Y-87810588D01*
X168290588Y-87933069D01*
X168290588Y-87933070D01*
X168290586Y-87933072D01*
X168246859Y-87993256D01*
X168188768Y-88073211D01*
X168110128Y-88227552D01*
X168056597Y-88392302D01*
X168050344Y-88431783D01*
X168029500Y-88563389D01*
X166000492Y-88563389D01*
X165636700Y-88199597D01*
X165603215Y-88138274D01*
X165601442Y-88128099D01*
X165600500Y-88120945D01*
X165600500Y-88120943D01*
X165559577Y-87968216D01*
X165507476Y-87877973D01*
X165480524Y-87831290D01*
X165480518Y-87831282D01*
X165368717Y-87719481D01*
X165368709Y-87719475D01*
X165231790Y-87640426D01*
X165231786Y-87640424D01*
X165231784Y-87640423D01*
X165079057Y-87599500D01*
X164920943Y-87599500D01*
X164768216Y-87640423D01*
X164768209Y-87640426D01*
X164631290Y-87719475D01*
X164631282Y-87719481D01*
X164519481Y-87831282D01*
X164519475Y-87831290D01*
X164440426Y-87968209D01*
X164440423Y-87968216D01*
X164399500Y-88120943D01*
X154855552Y-88120943D01*
X154831231Y-88073211D01*
X154729414Y-87933072D01*
X154606928Y-87810586D01*
X154466788Y-87708768D01*
X154312445Y-87630127D01*
X154147701Y-87576598D01*
X154147699Y-87576597D01*
X154147698Y-87576597D01*
X154016271Y-87555781D01*
X153976611Y-87549500D01*
X153803389Y-87549500D01*
X153763728Y-87555781D01*
X153632302Y-87576597D01*
X153467552Y-87630128D01*
X153313211Y-87708768D01*
X153233256Y-87766859D01*
X153173072Y-87810586D01*
X153173070Y-87810588D01*
X153173069Y-87810588D01*
X153050588Y-87933069D01*
X153050588Y-87933070D01*
X153050586Y-87933072D01*
X153006859Y-87993256D01*
X152948768Y-88073211D01*
X152870128Y-88227552D01*
X152816597Y-88392302D01*
X152810344Y-88431783D01*
X152789500Y-88563389D01*
X125300500Y-88563389D01*
X125300500Y-86956898D01*
X125289877Y-86868436D01*
X125234361Y-86727658D01*
X125234360Y-86727657D01*
X125234360Y-86727656D01*
X125142922Y-86607077D01*
X125022343Y-86515639D01*
X124881561Y-86460122D01*
X124835926Y-86454642D01*
X124793102Y-86449500D01*
X122706898Y-86449500D01*
X122667853Y-86454188D01*
X122618438Y-86460122D01*
X122477656Y-86515639D01*
X122357077Y-86607077D01*
X122265639Y-86727656D01*
X122210122Y-86868438D01*
X122204188Y-86917853D01*
X122199500Y-86956898D01*
X114900500Y-86956898D01*
X114900500Y-86023389D01*
X152789500Y-86023389D01*
X152789500Y-86196611D01*
X152816598Y-86367701D01*
X152870127Y-86532445D01*
X152948768Y-86686788D01*
X153050586Y-86826928D01*
X153173072Y-86949414D01*
X153313212Y-87051232D01*
X153467555Y-87129873D01*
X153632299Y-87183402D01*
X153803389Y-87210500D01*
X153803390Y-87210500D01*
X153976610Y-87210500D01*
X153976611Y-87210500D01*
X154147701Y-87183402D01*
X154312445Y-87129873D01*
X154466788Y-87051232D01*
X154606928Y-86949414D01*
X154729414Y-86826928D01*
X154831232Y-86686788D01*
X154909873Y-86532445D01*
X154963402Y-86367701D01*
X154990500Y-86196611D01*
X154990500Y-86023389D01*
X168029500Y-86023389D01*
X168029500Y-86196611D01*
X168056598Y-86367701D01*
X168110127Y-86532445D01*
X168188768Y-86686788D01*
X168290586Y-86826928D01*
X168413072Y-86949414D01*
X168553212Y-87051232D01*
X168707555Y-87129873D01*
X168872299Y-87183402D01*
X169043389Y-87210500D01*
X169043390Y-87210500D01*
X169216610Y-87210500D01*
X169216611Y-87210500D01*
X169387701Y-87183402D01*
X169552445Y-87129873D01*
X169706788Y-87051232D01*
X169846928Y-86949414D01*
X169969414Y-86826928D01*
X170071232Y-86686788D01*
X170149873Y-86532445D01*
X170203402Y-86367701D01*
X170230500Y-86196611D01*
X170230500Y-86023389D01*
X170203402Y-85852299D01*
X170149873Y-85687555D01*
X170071232Y-85533212D01*
X169969414Y-85393072D01*
X169846928Y-85270586D01*
X169706788Y-85168768D01*
X169552445Y-85090127D01*
X169387701Y-85036598D01*
X169387699Y-85036597D01*
X169387698Y-85036597D01*
X169256271Y-85015781D01*
X169216611Y-85009500D01*
X169043389Y-85009500D01*
X169003728Y-85015781D01*
X168872302Y-85036597D01*
X168707552Y-85090128D01*
X168553211Y-85168768D01*
X168473256Y-85226859D01*
X168413072Y-85270586D01*
X168413070Y-85270588D01*
X168413069Y-85270588D01*
X168290588Y-85393069D01*
X168290588Y-85393070D01*
X168290586Y-85393072D01*
X168246859Y-85453256D01*
X168188768Y-85533211D01*
X168110128Y-85687552D01*
X168056597Y-85852302D01*
X168029500Y-86023389D01*
X154990500Y-86023389D01*
X154963402Y-85852299D01*
X154909873Y-85687555D01*
X154831232Y-85533212D01*
X154729414Y-85393072D01*
X154606928Y-85270586D01*
X154466788Y-85168768D01*
X154312445Y-85090127D01*
X154147701Y-85036598D01*
X154147699Y-85036597D01*
X154147698Y-85036597D01*
X154016271Y-85015781D01*
X153976611Y-85009500D01*
X153803389Y-85009500D01*
X153763728Y-85015781D01*
X153632302Y-85036597D01*
X153467552Y-85090128D01*
X153313211Y-85168768D01*
X153233256Y-85226859D01*
X153173072Y-85270586D01*
X153173070Y-85270588D01*
X153173069Y-85270588D01*
X153050588Y-85393069D01*
X153050588Y-85393070D01*
X153050586Y-85393072D01*
X153006859Y-85453256D01*
X152948768Y-85533211D01*
X152870128Y-85687552D01*
X152816597Y-85852302D01*
X152789500Y-86023389D01*
X114900500Y-86023389D01*
X114900500Y-82877973D01*
X122199500Y-82877973D01*
X122199500Y-83122026D01*
X122237678Y-83363072D01*
X122237678Y-83363074D01*
X122237679Y-83363076D01*
X122282005Y-83499498D01*
X122313097Y-83595187D01*
X122423896Y-83812642D01*
X122567339Y-84010076D01*
X122567343Y-84010081D01*
X122739918Y-84182656D01*
X122739923Y-84182660D01*
X122863361Y-84272342D01*
X122937361Y-84326106D01*
X123154815Y-84436904D01*
X123386924Y-84512321D01*
X123627973Y-84550500D01*
X123627974Y-84550500D01*
X123872026Y-84550500D01*
X123872027Y-84550500D01*
X124113076Y-84512321D01*
X124345185Y-84436904D01*
X124562639Y-84326106D01*
X124760083Y-84182655D01*
X124932655Y-84010083D01*
X125076106Y-83812639D01*
X125186904Y-83595185D01*
X125223229Y-83483389D01*
X168029500Y-83483389D01*
X168029500Y-83656611D01*
X168056598Y-83827701D01*
X168110127Y-83992445D01*
X168188768Y-84146788D01*
X168290586Y-84286928D01*
X168413072Y-84409414D01*
X168553212Y-84511232D01*
X168707555Y-84589873D01*
X168872299Y-84643402D01*
X169043389Y-84670500D01*
X169043390Y-84670500D01*
X169216610Y-84670500D01*
X169216611Y-84670500D01*
X169387701Y-84643402D01*
X169552445Y-84589873D01*
X169706788Y-84511232D01*
X169846928Y-84409414D01*
X169969414Y-84286928D01*
X170071232Y-84146788D01*
X170135353Y-84020943D01*
X172999500Y-84020943D01*
X172999500Y-84179057D01*
X173028405Y-84286930D01*
X173040423Y-84331783D01*
X173040426Y-84331790D01*
X173119475Y-84468709D01*
X173119479Y-84468714D01*
X173119480Y-84468716D01*
X173231284Y-84580520D01*
X173231286Y-84580521D01*
X173231290Y-84580524D01*
X173340200Y-84643402D01*
X173368216Y-84659577D01*
X173520943Y-84700500D01*
X173520945Y-84700500D01*
X173679055Y-84700500D01*
X173679057Y-84700500D01*
X173831784Y-84659577D01*
X173968716Y-84580520D01*
X174080520Y-84468716D01*
X174159577Y-84331784D01*
X174200500Y-84179057D01*
X174200500Y-84179044D01*
X174201441Y-84171901D01*
X174229707Y-84108003D01*
X174236688Y-84100414D01*
X175600404Y-82736698D01*
X175661725Y-82703215D01*
X175671901Y-82701441D01*
X175679045Y-82700500D01*
X175679057Y-82700500D01*
X175831784Y-82659577D01*
X175968716Y-82580520D01*
X176080520Y-82468716D01*
X176159577Y-82331784D01*
X176200500Y-82179057D01*
X176200500Y-82020943D01*
X176183339Y-81956898D01*
X197449500Y-81956898D01*
X197449500Y-84043102D01*
X197455126Y-84089954D01*
X197460122Y-84131561D01*
X197515639Y-84272343D01*
X197607077Y-84392922D01*
X197727656Y-84484360D01*
X197727657Y-84484360D01*
X197727658Y-84484361D01*
X197868436Y-84539877D01*
X197956898Y-84550500D01*
X197956903Y-84550500D01*
X200043097Y-84550500D01*
X200043102Y-84550500D01*
X200131564Y-84539877D01*
X200272342Y-84484361D01*
X200392922Y-84392922D01*
X200484361Y-84272342D01*
X200539877Y-84131564D01*
X200550500Y-84043102D01*
X200550500Y-81956898D01*
X200539877Y-81868436D01*
X200484361Y-81727658D01*
X200484360Y-81727657D01*
X200484360Y-81727656D01*
X200392922Y-81607077D01*
X200272343Y-81515639D01*
X200131561Y-81460122D01*
X200085926Y-81454642D01*
X200043102Y-81449500D01*
X197956898Y-81449500D01*
X197917853Y-81454188D01*
X197868438Y-81460122D01*
X197727656Y-81515639D01*
X197607077Y-81607077D01*
X197515639Y-81727656D01*
X197460122Y-81868438D01*
X197454188Y-81917853D01*
X197449500Y-81956898D01*
X176183339Y-81956898D01*
X176159577Y-81868216D01*
X176130206Y-81817343D01*
X176080524Y-81731290D01*
X176080518Y-81731282D01*
X175968717Y-81619481D01*
X175968709Y-81619475D01*
X175831790Y-81540426D01*
X175831786Y-81540424D01*
X175831784Y-81540423D01*
X175679057Y-81499500D01*
X175520943Y-81499500D01*
X175368216Y-81540423D01*
X175368209Y-81540426D01*
X175231290Y-81619475D01*
X175231282Y-81619481D01*
X175119481Y-81731282D01*
X175119475Y-81731290D01*
X175040426Y-81868209D01*
X175040423Y-81868216D01*
X174999498Y-82020949D01*
X174998556Y-82028107D01*
X174970287Y-82092003D01*
X174963299Y-82099597D01*
X173599597Y-83463299D01*
X173538274Y-83496784D01*
X173528107Y-83498556D01*
X173520949Y-83499498D01*
X173368216Y-83540423D01*
X173368209Y-83540426D01*
X173231290Y-83619475D01*
X173231282Y-83619481D01*
X173119481Y-83731282D01*
X173119475Y-83731290D01*
X173040426Y-83868209D01*
X173040423Y-83868216D01*
X172999500Y-84020943D01*
X170135353Y-84020943D01*
X170149873Y-83992445D01*
X170203402Y-83827701D01*
X170230500Y-83656611D01*
X170230500Y-83483389D01*
X170203402Y-83312299D01*
X170149873Y-83147555D01*
X170071232Y-82993212D01*
X169969414Y-82853072D01*
X169846928Y-82730586D01*
X169706788Y-82628768D01*
X169552445Y-82550127D01*
X169387701Y-82496598D01*
X169387699Y-82496597D01*
X169387698Y-82496597D01*
X169256271Y-82475781D01*
X169216611Y-82469500D01*
X169043389Y-82469500D01*
X169003728Y-82475781D01*
X168872302Y-82496597D01*
X168707552Y-82550128D01*
X168553211Y-82628768D01*
X168510807Y-82659577D01*
X168413072Y-82730586D01*
X168413070Y-82730588D01*
X168413069Y-82730588D01*
X168290588Y-82853069D01*
X168290588Y-82853070D01*
X168290586Y-82853072D01*
X168246859Y-82913256D01*
X168188768Y-82993211D01*
X168110128Y-83147552D01*
X168056597Y-83312302D01*
X168032682Y-83463299D01*
X168029500Y-83483389D01*
X125223229Y-83483389D01*
X125262321Y-83363076D01*
X125300500Y-83122027D01*
X125300500Y-82877973D01*
X125262321Y-82636924D01*
X125186904Y-82404815D01*
X125076106Y-82187361D01*
X125034794Y-82130500D01*
X124932660Y-81989923D01*
X124932656Y-81989918D01*
X124760081Y-81817343D01*
X124760076Y-81817339D01*
X124562642Y-81673896D01*
X124562641Y-81673895D01*
X124562639Y-81673894D01*
X124345185Y-81563096D01*
X124113076Y-81487679D01*
X124113074Y-81487678D01*
X124113072Y-81487678D01*
X123890633Y-81452447D01*
X123872027Y-81449500D01*
X123627973Y-81449500D01*
X123609367Y-81452447D01*
X123386927Y-81487678D01*
X123154812Y-81563097D01*
X122937357Y-81673896D01*
X122739923Y-81817339D01*
X122739918Y-81817343D01*
X122567343Y-81989918D01*
X122567339Y-81989923D01*
X122423896Y-82187357D01*
X122313097Y-82404812D01*
X122237678Y-82636927D01*
X122199500Y-82877973D01*
X114900500Y-82877973D01*
X114900500Y-80943389D01*
X152789500Y-80943389D01*
X152789500Y-81116610D01*
X152816597Y-81287697D01*
X152870128Y-81452447D01*
X152902326Y-81515639D01*
X152948768Y-81606788D01*
X153050586Y-81746928D01*
X153173072Y-81869414D01*
X153313212Y-81971232D01*
X153467555Y-82049873D01*
X153632299Y-82103402D01*
X153803389Y-82130500D01*
X153803390Y-82130500D01*
X153976610Y-82130500D01*
X153976611Y-82130500D01*
X154147701Y-82103402D01*
X154312445Y-82049873D01*
X154466788Y-81971232D01*
X154606928Y-81869414D01*
X154729414Y-81746928D01*
X154831232Y-81606788D01*
X154909873Y-81452445D01*
X154963402Y-81287701D01*
X154990500Y-81116611D01*
X154990500Y-80943389D01*
X168029500Y-80943389D01*
X168029500Y-81116610D01*
X168056597Y-81287697D01*
X168110128Y-81452447D01*
X168142326Y-81515639D01*
X168188768Y-81606788D01*
X168290586Y-81746928D01*
X168413072Y-81869414D01*
X168553212Y-81971232D01*
X168707555Y-82049873D01*
X168872299Y-82103402D01*
X169043389Y-82130500D01*
X169043390Y-82130500D01*
X169216610Y-82130500D01*
X169216611Y-82130500D01*
X169387701Y-82103402D01*
X169552445Y-82049873D01*
X169706788Y-81971232D01*
X169846928Y-81869414D01*
X169969414Y-81746928D01*
X170071232Y-81606788D01*
X170149873Y-81452445D01*
X170203402Y-81287701D01*
X170230500Y-81116611D01*
X170230500Y-80943389D01*
X170203402Y-80772299D01*
X170149873Y-80607555D01*
X170071232Y-80453212D01*
X169969414Y-80313072D01*
X169846928Y-80190586D01*
X169706788Y-80088768D01*
X169552445Y-80010127D01*
X169387701Y-79956598D01*
X169387699Y-79956597D01*
X169387698Y-79956597D01*
X169256271Y-79935781D01*
X169216611Y-79929500D01*
X169043389Y-79929500D01*
X169003728Y-79935781D01*
X168872302Y-79956597D01*
X168707552Y-80010128D01*
X168553211Y-80088768D01*
X168473256Y-80146859D01*
X168413072Y-80190586D01*
X168413070Y-80190588D01*
X168413069Y-80190588D01*
X168290588Y-80313069D01*
X168290588Y-80313070D01*
X168290586Y-80313072D01*
X168246859Y-80373256D01*
X168188768Y-80453211D01*
X168110128Y-80607552D01*
X168056597Y-80772302D01*
X168029500Y-80943389D01*
X154990500Y-80943389D01*
X154963402Y-80772299D01*
X154909873Y-80607555D01*
X154831232Y-80453212D01*
X154729414Y-80313072D01*
X154606928Y-80190586D01*
X154466788Y-80088768D01*
X154312445Y-80010127D01*
X154147701Y-79956598D01*
X154147699Y-79956597D01*
X154147698Y-79956597D01*
X154016271Y-79935781D01*
X153976611Y-79929500D01*
X153803389Y-79929500D01*
X153763728Y-79935781D01*
X153632302Y-79956597D01*
X153467552Y-80010128D01*
X153313211Y-80088768D01*
X153233256Y-80146859D01*
X153173072Y-80190586D01*
X153173070Y-80190588D01*
X153173069Y-80190588D01*
X153050588Y-80313069D01*
X153050588Y-80313070D01*
X153050586Y-80313072D01*
X153006859Y-80373256D01*
X152948768Y-80453211D01*
X152870128Y-80607552D01*
X152816597Y-80772302D01*
X152789500Y-80943389D01*
X114900500Y-80943389D01*
X114900500Y-78403389D01*
X152789500Y-78403389D01*
X152789500Y-78576611D01*
X152816598Y-78747701D01*
X152870127Y-78912445D01*
X152948768Y-79066788D01*
X153050586Y-79206928D01*
X153173072Y-79329414D01*
X153313212Y-79431232D01*
X153467555Y-79509873D01*
X153632299Y-79563402D01*
X153803389Y-79590500D01*
X153803390Y-79590500D01*
X153976610Y-79590500D01*
X153976611Y-79590500D01*
X154147701Y-79563402D01*
X154312445Y-79509873D01*
X154466788Y-79431232D01*
X154606928Y-79329414D01*
X154729414Y-79206928D01*
X154831232Y-79066788D01*
X154909873Y-78912445D01*
X154963402Y-78747701D01*
X154990500Y-78576611D01*
X154990500Y-78403389D01*
X154963402Y-78232299D01*
X154909873Y-78067555D01*
X154831232Y-77913212D01*
X154729414Y-77773072D01*
X154606928Y-77650586D01*
X154466788Y-77548768D01*
X154312445Y-77470127D01*
X154147701Y-77416598D01*
X154147699Y-77416597D01*
X154147698Y-77416597D01*
X154016271Y-77395781D01*
X153976611Y-77389500D01*
X153803389Y-77389500D01*
X153763728Y-77395781D01*
X153632302Y-77416597D01*
X153467552Y-77470128D01*
X153313211Y-77548768D01*
X153233256Y-77606859D01*
X153173072Y-77650586D01*
X153173070Y-77650588D01*
X153173069Y-77650588D01*
X153050588Y-77773069D01*
X153050588Y-77773070D01*
X153050586Y-77773072D01*
X153031385Y-77799500D01*
X152948768Y-77913211D01*
X152870128Y-78067552D01*
X152816597Y-78232302D01*
X152802558Y-78320943D01*
X152789500Y-78403389D01*
X114900500Y-78403389D01*
X114900500Y-73456898D01*
X122199500Y-73456898D01*
X122199500Y-75543102D01*
X122202515Y-75568209D01*
X122210122Y-75631561D01*
X122265639Y-75772343D01*
X122357077Y-75892922D01*
X122477656Y-75984360D01*
X122477657Y-75984360D01*
X122477658Y-75984361D01*
X122618436Y-76039877D01*
X122706898Y-76050500D01*
X122706903Y-76050500D01*
X124793097Y-76050500D01*
X124793102Y-76050500D01*
X124881564Y-76039877D01*
X125022342Y-75984361D01*
X125142922Y-75892922D01*
X125234361Y-75772342D01*
X125289877Y-75631564D01*
X125300500Y-75543102D01*
X125300500Y-75105131D01*
X152789500Y-75105131D01*
X152789500Y-76794856D01*
X152789502Y-76794882D01*
X152792413Y-76819987D01*
X152792415Y-76819991D01*
X152837793Y-76922764D01*
X152837794Y-76922765D01*
X152917235Y-77002206D01*
X153020009Y-77047585D01*
X153045135Y-77050500D01*
X154734864Y-77050499D01*
X154734879Y-77050497D01*
X154734882Y-77050497D01*
X154759987Y-77047586D01*
X154759988Y-77047585D01*
X154759991Y-77047585D01*
X154862765Y-77002206D01*
X154942206Y-76922765D01*
X154987585Y-76819991D01*
X154990500Y-76794865D01*
X154990499Y-75105136D01*
X154990497Y-75105117D01*
X154987586Y-75080012D01*
X154987585Y-75080010D01*
X154987585Y-75080009D01*
X154942206Y-74977235D01*
X154862765Y-74897794D01*
X154862763Y-74897793D01*
X154759992Y-74852415D01*
X154734865Y-74849500D01*
X153045143Y-74849500D01*
X153045117Y-74849502D01*
X153020012Y-74852413D01*
X153020008Y-74852415D01*
X152917235Y-74897793D01*
X152837794Y-74977234D01*
X152792415Y-75080006D01*
X152792415Y-75080008D01*
X152789500Y-75105131D01*
X125300500Y-75105131D01*
X125300500Y-74420943D01*
X158499500Y-74420943D01*
X158499500Y-74579057D01*
X158503822Y-74595187D01*
X158542527Y-74739636D01*
X158541832Y-74739822D01*
X158549500Y-74778362D01*
X158549500Y-79770943D01*
X158549500Y-79929057D01*
X158556880Y-79956597D01*
X158590423Y-80081783D01*
X158590426Y-80081790D01*
X158669475Y-80218709D01*
X158669479Y-80218714D01*
X158669480Y-80218716D01*
X158781284Y-80330520D01*
X158781286Y-80330521D01*
X158781290Y-80330524D01*
X158918209Y-80409573D01*
X158918216Y-80409577D01*
X159070943Y-80450500D01*
X159070945Y-80450500D01*
X159229055Y-80450500D01*
X159229057Y-80450500D01*
X159381784Y-80409577D01*
X159518716Y-80330520D01*
X159630520Y-80218716D01*
X159709577Y-80081784D01*
X159750500Y-79929057D01*
X159750500Y-79770943D01*
X159709577Y-79618216D01*
X159667112Y-79544663D01*
X159650500Y-79482664D01*
X159650500Y-75720943D01*
X162999500Y-75720943D01*
X162999500Y-75879056D01*
X163040423Y-76031783D01*
X163040426Y-76031790D01*
X163119475Y-76168709D01*
X163119479Y-76168714D01*
X163119480Y-76168716D01*
X163231284Y-76280520D01*
X163231286Y-76280521D01*
X163231290Y-76280524D01*
X163368209Y-76359573D01*
X163368216Y-76359577D01*
X163520943Y-76400500D01*
X163520945Y-76400500D01*
X163679055Y-76400500D01*
X163679057Y-76400500D01*
X163831784Y-76359577D01*
X163968716Y-76280520D01*
X164080520Y-76168716D01*
X164159577Y-76031784D01*
X164200500Y-75879057D01*
X164200500Y-75879044D01*
X164201441Y-75871901D01*
X164229707Y-75808003D01*
X164236688Y-75800414D01*
X167150284Y-72886819D01*
X167211607Y-72853334D01*
X167237965Y-72850500D01*
X172150069Y-72850500D01*
X172217108Y-72870185D01*
X172225557Y-72876125D01*
X172231281Y-72880517D01*
X172231284Y-72880520D01*
X172231287Y-72880521D01*
X172231290Y-72880524D01*
X172350762Y-72949500D01*
X172368216Y-72959577D01*
X172445278Y-72980225D01*
X172504937Y-73016590D01*
X172535466Y-73079437D01*
X172527171Y-73148813D01*
X172482686Y-73202691D01*
X172445279Y-73219774D01*
X172415863Y-73227656D01*
X172368214Y-73240423D01*
X172368209Y-73240426D01*
X172231290Y-73319475D01*
X172225557Y-73323875D01*
X172160388Y-73349070D01*
X172150069Y-73349500D01*
X168140691Y-73349500D01*
X168026114Y-73380201D01*
X168026112Y-73380201D01*
X168026112Y-73380202D01*
X167983482Y-73404815D01*
X167983481Y-73404815D01*
X167923389Y-73439508D01*
X167923384Y-73439512D01*
X163599597Y-77763299D01*
X163538274Y-77796784D01*
X163528107Y-77798556D01*
X163520949Y-77799498D01*
X163368216Y-77840423D01*
X163368209Y-77840426D01*
X163231290Y-77919475D01*
X163231282Y-77919481D01*
X163119481Y-78031282D01*
X163119475Y-78031290D01*
X163040426Y-78168209D01*
X163040423Y-78168216D01*
X162999500Y-78320943D01*
X162999500Y-78479057D01*
X163025640Y-78576611D01*
X163040423Y-78631783D01*
X163040426Y-78631790D01*
X163119475Y-78768709D01*
X163119479Y-78768714D01*
X163119480Y-78768716D01*
X163231284Y-78880520D01*
X163231286Y-78880521D01*
X163231290Y-78880524D01*
X163368209Y-78959573D01*
X163368216Y-78959577D01*
X163520943Y-79000500D01*
X163520945Y-79000500D01*
X163679055Y-79000500D01*
X163679057Y-79000500D01*
X163831784Y-78959577D01*
X163968716Y-78880520D01*
X164080520Y-78768716D01*
X164159577Y-78631784D01*
X164200500Y-78479057D01*
X164200500Y-78479044D01*
X164201441Y-78471901D01*
X164229707Y-78408003D01*
X164236688Y-78400414D01*
X166773714Y-75863389D01*
X168029500Y-75863389D01*
X168029500Y-76036610D01*
X168050423Y-76168717D01*
X168056598Y-76207701D01*
X168110127Y-76372445D01*
X168188768Y-76526788D01*
X168290586Y-76666928D01*
X168413072Y-76789414D01*
X168553212Y-76891232D01*
X168707555Y-76969873D01*
X168872299Y-77023402D01*
X169043389Y-77050500D01*
X169043390Y-77050500D01*
X169216610Y-77050500D01*
X169216611Y-77050500D01*
X169387701Y-77023402D01*
X169552445Y-76969873D01*
X169706788Y-76891232D01*
X169846928Y-76789414D01*
X169969414Y-76666928D01*
X170071232Y-76526788D01*
X170149873Y-76372445D01*
X170203402Y-76207701D01*
X170230500Y-76036611D01*
X170230500Y-75863389D01*
X170203402Y-75692299D01*
X170149873Y-75527555D01*
X170071232Y-75373212D01*
X169969414Y-75233072D01*
X169846928Y-75110586D01*
X169706788Y-75008768D01*
X169552445Y-74930127D01*
X169387701Y-74876598D01*
X169387699Y-74876597D01*
X169387698Y-74876597D01*
X169256271Y-74855781D01*
X169216611Y-74849500D01*
X169043389Y-74849500D01*
X169003728Y-74855781D01*
X168872302Y-74876597D01*
X168707552Y-74930128D01*
X168553211Y-75008768D01*
X168473256Y-75066859D01*
X168413072Y-75110586D01*
X168413070Y-75110588D01*
X168413069Y-75110588D01*
X168290588Y-75233069D01*
X168290588Y-75233070D01*
X168290586Y-75233072D01*
X168285243Y-75240426D01*
X168188768Y-75373211D01*
X168110128Y-75527552D01*
X168056597Y-75692302D01*
X168029500Y-75863389D01*
X166773714Y-75863389D01*
X168350284Y-74286819D01*
X168411607Y-74253334D01*
X168437965Y-74250500D01*
X172150069Y-74250500D01*
X172217108Y-74270185D01*
X172225557Y-74276125D01*
X172231281Y-74280517D01*
X172231284Y-74280520D01*
X172231287Y-74280521D01*
X172231290Y-74280524D01*
X172368209Y-74359573D01*
X172368216Y-74359577D01*
X172520943Y-74400500D01*
X172520945Y-74400500D01*
X172679055Y-74400500D01*
X172679057Y-74400500D01*
X172831784Y-74359577D01*
X172968716Y-74280520D01*
X173080520Y-74168716D01*
X173159577Y-74031784D01*
X173200500Y-73879057D01*
X173200500Y-73877973D01*
X197449500Y-73877973D01*
X197449500Y-74122026D01*
X197487124Y-74359577D01*
X197487679Y-74363076D01*
X197563096Y-74595185D01*
X197636697Y-74739636D01*
X197673896Y-74812642D01*
X197817339Y-75010076D01*
X197817343Y-75010081D01*
X197989918Y-75182656D01*
X197989923Y-75182660D01*
X198059310Y-75233072D01*
X198187361Y-75326106D01*
X198404815Y-75436904D01*
X198636924Y-75512321D01*
X198877973Y-75550500D01*
X198877974Y-75550500D01*
X199122026Y-75550500D01*
X199122027Y-75550500D01*
X199363076Y-75512321D01*
X199595185Y-75436904D01*
X199812639Y-75326106D01*
X200010083Y-75182655D01*
X200182655Y-75010083D01*
X200326106Y-74812639D01*
X200436904Y-74595185D01*
X200512321Y-74363076D01*
X200550500Y-74122027D01*
X200550500Y-73877973D01*
X200512321Y-73636924D01*
X200436904Y-73404815D01*
X200326106Y-73187361D01*
X200267777Y-73107078D01*
X200182660Y-72989923D01*
X200182656Y-72989918D01*
X200010081Y-72817343D01*
X200010076Y-72817339D01*
X199812642Y-72673896D01*
X199812641Y-72673895D01*
X199812639Y-72673894D01*
X199595185Y-72563096D01*
X199363076Y-72487679D01*
X199363074Y-72487678D01*
X199363072Y-72487678D01*
X199194769Y-72461021D01*
X199122027Y-72449500D01*
X198877973Y-72449500D01*
X198822093Y-72458350D01*
X198636927Y-72487678D01*
X198404812Y-72563097D01*
X198187357Y-72673896D01*
X197989923Y-72817339D01*
X197989918Y-72817343D01*
X197817343Y-72989918D01*
X197817339Y-72989923D01*
X197673896Y-73187357D01*
X197563097Y-73404812D01*
X197487678Y-73636927D01*
X197449500Y-73877973D01*
X173200500Y-73877973D01*
X173200500Y-73720943D01*
X173159577Y-73568216D01*
X173095311Y-73456903D01*
X173080524Y-73431290D01*
X173080518Y-73431282D01*
X172968717Y-73319481D01*
X172968709Y-73319475D01*
X172831790Y-73240426D01*
X172831786Y-73240424D01*
X172831784Y-73240423D01*
X172754721Y-73219774D01*
X172695062Y-73183410D01*
X172664533Y-73120563D01*
X172672828Y-73051188D01*
X172717313Y-72997310D01*
X172754720Y-72980225D01*
X172831784Y-72959577D01*
X172968716Y-72880520D01*
X173080520Y-72768716D01*
X173159577Y-72631784D01*
X173200500Y-72479057D01*
X173200500Y-72320943D01*
X173159577Y-72168216D01*
X173085270Y-72039511D01*
X173080524Y-72031290D01*
X173080518Y-72031282D01*
X172968717Y-71919481D01*
X172968709Y-71919475D01*
X172831790Y-71840426D01*
X172831786Y-71840424D01*
X172831784Y-71840423D01*
X172679057Y-71799500D01*
X172520943Y-71799500D01*
X172368216Y-71840423D01*
X172368209Y-71840426D01*
X172231290Y-71919475D01*
X172225557Y-71923875D01*
X172160388Y-71949070D01*
X172150069Y-71949500D01*
X166940691Y-71949500D01*
X166850325Y-71973713D01*
X166850324Y-71973712D01*
X166826116Y-71980199D01*
X166826113Y-71980200D01*
X166723386Y-72039511D01*
X166723383Y-72039513D01*
X163599597Y-75163299D01*
X163538274Y-75196784D01*
X163528107Y-75198556D01*
X163520949Y-75199498D01*
X163368216Y-75240423D01*
X163368209Y-75240426D01*
X163231290Y-75319475D01*
X163231282Y-75319481D01*
X163119481Y-75431282D01*
X163119475Y-75431290D01*
X163040426Y-75568209D01*
X163040423Y-75568216D01*
X162999500Y-75720943D01*
X159650500Y-75720943D01*
X159650500Y-74778362D01*
X159658167Y-74739822D01*
X159657473Y-74739636D01*
X159659577Y-74731784D01*
X159700500Y-74579057D01*
X159700500Y-74420943D01*
X159659577Y-74268216D01*
X159602132Y-74168717D01*
X159580524Y-74131290D01*
X159580518Y-74131282D01*
X159468717Y-74019481D01*
X159468709Y-74019475D01*
X159331790Y-73940426D01*
X159331786Y-73940424D01*
X159331784Y-73940423D01*
X159179057Y-73899500D01*
X159020943Y-73899500D01*
X158868216Y-73940423D01*
X158868209Y-73940426D01*
X158731290Y-74019475D01*
X158731282Y-74019481D01*
X158619481Y-74131282D01*
X158619475Y-74131290D01*
X158540426Y-74268209D01*
X158540423Y-74268216D01*
X158499500Y-74420943D01*
X125300500Y-74420943D01*
X125300500Y-73456898D01*
X125289877Y-73368436D01*
X125234361Y-73227658D01*
X125234360Y-73227657D01*
X125234360Y-73227656D01*
X125142922Y-73107077D01*
X125022343Y-73015639D01*
X124881561Y-72960122D01*
X124835926Y-72954642D01*
X124793102Y-72949500D01*
X122706898Y-72949500D01*
X122667853Y-72954188D01*
X122618438Y-72960122D01*
X122477656Y-73015639D01*
X122357077Y-73107077D01*
X122265639Y-73227656D01*
X122210122Y-73368438D01*
X122205755Y-73404812D01*
X122199500Y-73456898D01*
X114900500Y-73456898D01*
X114900500Y-69377973D01*
X122199500Y-69377973D01*
X122199500Y-69622027D01*
X122237679Y-69863076D01*
X122313096Y-70095185D01*
X122403362Y-70272343D01*
X122423896Y-70312642D01*
X122567339Y-70510076D01*
X122567343Y-70510081D01*
X122739918Y-70682656D01*
X122739923Y-70682660D01*
X122872602Y-70779056D01*
X122937361Y-70826106D01*
X123154815Y-70936904D01*
X123386924Y-71012321D01*
X123627973Y-71050500D01*
X123627974Y-71050500D01*
X123872026Y-71050500D01*
X123872027Y-71050500D01*
X124113076Y-71012321D01*
X124345185Y-70936904D01*
X124562639Y-70826106D01*
X124760083Y-70682655D01*
X124821795Y-70620943D01*
X162099500Y-70620943D01*
X162099500Y-70779056D01*
X162140423Y-70931783D01*
X162140426Y-70931790D01*
X162219475Y-71068709D01*
X162219479Y-71068714D01*
X162219480Y-71068716D01*
X162331284Y-71180520D01*
X162331286Y-71180521D01*
X162331290Y-71180524D01*
X162452494Y-71250500D01*
X162468216Y-71259577D01*
X162620943Y-71300500D01*
X162620945Y-71300500D01*
X162779055Y-71300500D01*
X162779057Y-71300500D01*
X162931784Y-71259577D01*
X162931785Y-71259576D01*
X162939635Y-71257473D01*
X162939820Y-71258165D01*
X162978363Y-71250500D01*
X167921637Y-71250500D01*
X167960179Y-71258165D01*
X167960365Y-71257473D01*
X167968214Y-71259576D01*
X167968216Y-71259577D01*
X168120943Y-71300500D01*
X168120945Y-71300500D01*
X168279055Y-71300500D01*
X168279057Y-71300500D01*
X168431784Y-71259577D01*
X168568716Y-71180520D01*
X168680520Y-71068716D01*
X168759577Y-70931784D01*
X168800500Y-70779057D01*
X168800500Y-70620943D01*
X168759577Y-70468216D01*
X168759573Y-70468209D01*
X168680524Y-70331290D01*
X168680518Y-70331282D01*
X168568717Y-70219481D01*
X168568709Y-70219475D01*
X168431790Y-70140426D01*
X168431786Y-70140424D01*
X168431784Y-70140423D01*
X168279057Y-70099500D01*
X168120943Y-70099500D01*
X167968216Y-70140423D01*
X167968214Y-70140423D01*
X167960365Y-70142527D01*
X167960179Y-70141834D01*
X167921637Y-70149500D01*
X162978363Y-70149500D01*
X162939820Y-70141834D01*
X162939635Y-70142527D01*
X162931785Y-70140423D01*
X162931784Y-70140423D01*
X162779057Y-70099500D01*
X162620943Y-70099500D01*
X162468216Y-70140423D01*
X162468209Y-70140426D01*
X162331290Y-70219475D01*
X162331282Y-70219481D01*
X162219481Y-70331282D01*
X162219475Y-70331290D01*
X162140426Y-70468209D01*
X162140423Y-70468216D01*
X162099500Y-70620943D01*
X124821795Y-70620943D01*
X124932655Y-70510083D01*
X125076106Y-70312639D01*
X125186904Y-70095185D01*
X125262321Y-69863076D01*
X125300500Y-69622027D01*
X125300500Y-69377973D01*
X125262321Y-69136924D01*
X125186904Y-68904815D01*
X125076106Y-68687361D01*
X125027851Y-68620943D01*
X124932660Y-68489923D01*
X124932656Y-68489918D01*
X124760081Y-68317343D01*
X124760076Y-68317339D01*
X124562642Y-68173896D01*
X124562641Y-68173895D01*
X124562639Y-68173894D01*
X124345185Y-68063096D01*
X124113076Y-67987679D01*
X124113074Y-67987678D01*
X124113072Y-67987678D01*
X123918735Y-67956898D01*
X123872027Y-67949500D01*
X123627973Y-67949500D01*
X123581265Y-67956898D01*
X123386927Y-67987678D01*
X123154812Y-68063097D01*
X122937357Y-68173896D01*
X122739923Y-68317339D01*
X122739918Y-68317343D01*
X122567343Y-68489918D01*
X122567339Y-68489923D01*
X122423896Y-68687357D01*
X122313097Y-68904812D01*
X122237678Y-69136927D01*
X122218252Y-69259577D01*
X122199500Y-69377973D01*
X114900500Y-69377973D01*
X114900500Y-64120943D01*
X150999500Y-64120943D01*
X150999500Y-64279056D01*
X151040423Y-64431783D01*
X151040426Y-64431790D01*
X151119475Y-64568709D01*
X151119479Y-64568714D01*
X151119480Y-64568716D01*
X151231284Y-64680520D01*
X151231286Y-64680521D01*
X151231290Y-64680524D01*
X151375254Y-64763641D01*
X151374895Y-64764262D01*
X151407570Y-64786095D01*
X155761985Y-69140510D01*
X155887515Y-69212984D01*
X156027525Y-69250500D01*
X156027526Y-69250500D01*
X156172474Y-69250500D01*
X157921637Y-69250500D01*
X157960179Y-69258165D01*
X157960365Y-69257473D01*
X157968214Y-69259576D01*
X157968216Y-69259577D01*
X158120943Y-69300500D01*
X158120945Y-69300500D01*
X158279055Y-69300500D01*
X158279057Y-69300500D01*
X158431784Y-69259577D01*
X158568716Y-69180520D01*
X158680520Y-69068716D01*
X158759577Y-68931784D01*
X158800500Y-68779057D01*
X158800500Y-68620943D01*
X158759577Y-68468216D01*
X158759573Y-68468209D01*
X158680524Y-68331290D01*
X158680518Y-68331282D01*
X158568717Y-68219481D01*
X158568709Y-68219475D01*
X158431790Y-68140426D01*
X158431786Y-68140424D01*
X158431784Y-68140423D01*
X158279057Y-68099500D01*
X158120943Y-68099500D01*
X157968216Y-68140423D01*
X157968214Y-68140423D01*
X157960365Y-68142527D01*
X157960179Y-68141834D01*
X157921637Y-68149500D01*
X156379387Y-68149500D01*
X156349946Y-68140855D01*
X156319960Y-68134332D01*
X156314944Y-68130577D01*
X156312348Y-68129815D01*
X156291706Y-68113181D01*
X156135423Y-67956898D01*
X197449500Y-67956898D01*
X197449500Y-70043102D01*
X197455126Y-70089954D01*
X197460122Y-70131561D01*
X197515639Y-70272343D01*
X197607077Y-70392922D01*
X197727656Y-70484360D01*
X197727657Y-70484360D01*
X197727658Y-70484361D01*
X197868436Y-70539877D01*
X197956898Y-70550500D01*
X197956903Y-70550500D01*
X200043097Y-70550500D01*
X200043102Y-70550500D01*
X200131564Y-70539877D01*
X200272342Y-70484361D01*
X200392922Y-70392922D01*
X200484361Y-70272342D01*
X200539877Y-70131564D01*
X200550500Y-70043102D01*
X200550500Y-67956898D01*
X200539877Y-67868436D01*
X200484361Y-67727658D01*
X200484360Y-67727657D01*
X200484360Y-67727656D01*
X200392922Y-67607077D01*
X200272343Y-67515639D01*
X200131561Y-67460122D01*
X200085926Y-67454642D01*
X200043102Y-67449500D01*
X197956898Y-67449500D01*
X197917853Y-67454188D01*
X197868438Y-67460122D01*
X197727656Y-67515639D01*
X197607077Y-67607077D01*
X197515639Y-67727656D01*
X197460122Y-67868438D01*
X197454188Y-67917853D01*
X197449500Y-67956898D01*
X156135423Y-67956898D01*
X155290705Y-67112180D01*
X155257220Y-67050857D01*
X155262204Y-66981165D01*
X155304076Y-66925232D01*
X155369540Y-66900815D01*
X155378360Y-66900499D01*
X157024864Y-66900499D01*
X157024879Y-66900497D01*
X157024882Y-66900497D01*
X157049987Y-66897586D01*
X157049988Y-66897585D01*
X157049991Y-66897585D01*
X157152765Y-66852206D01*
X157232206Y-66772765D01*
X157277585Y-66669991D01*
X157280500Y-66644865D01*
X157280499Y-65659448D01*
X160059500Y-65659448D01*
X160059500Y-65840551D01*
X160087829Y-66019410D01*
X160143787Y-66191636D01*
X160143788Y-66191639D01*
X160226006Y-66352997D01*
X160332441Y-66499494D01*
X160332445Y-66499499D01*
X160460500Y-66627554D01*
X160460505Y-66627558D01*
X160588287Y-66720396D01*
X160607006Y-66733996D01*
X160683094Y-66772765D01*
X160768360Y-66816211D01*
X160768363Y-66816212D01*
X160854476Y-66844191D01*
X160940591Y-66872171D01*
X161023429Y-66885291D01*
X161119449Y-66900500D01*
X161119454Y-66900500D01*
X161300551Y-66900500D01*
X161387259Y-66886765D01*
X161479409Y-66872171D01*
X161651639Y-66816211D01*
X161812994Y-66733996D01*
X161959501Y-66627553D01*
X162087553Y-66499501D01*
X162193996Y-66352994D01*
X162276211Y-66191639D01*
X162332171Y-66019409D01*
X162346422Y-65929425D01*
X162357527Y-65859321D01*
X162387456Y-65796186D01*
X162446768Y-65759255D01*
X162516630Y-65760253D01*
X162574863Y-65798863D01*
X162602473Y-65859321D01*
X162627829Y-66019410D01*
X162683787Y-66191636D01*
X162683788Y-66191639D01*
X162766006Y-66352997D01*
X162872441Y-66499494D01*
X162872445Y-66499499D01*
X163000500Y-66627554D01*
X163000505Y-66627558D01*
X163128287Y-66720396D01*
X163147006Y-66733996D01*
X163223094Y-66772765D01*
X163308360Y-66816211D01*
X163308363Y-66816212D01*
X163394476Y-66844191D01*
X163480591Y-66872171D01*
X163563429Y-66885291D01*
X163659449Y-66900500D01*
X163659454Y-66900500D01*
X163840551Y-66900500D01*
X163927259Y-66886765D01*
X164019409Y-66872171D01*
X164191639Y-66816211D01*
X164352994Y-66733996D01*
X164499501Y-66627553D01*
X164627553Y-66499501D01*
X164733996Y-66352994D01*
X164816211Y-66191639D01*
X164872171Y-66019409D01*
X164886422Y-65929425D01*
X164897527Y-65859321D01*
X164927456Y-65796186D01*
X164986768Y-65759255D01*
X165056630Y-65760253D01*
X165114863Y-65798863D01*
X165142473Y-65859321D01*
X165167829Y-66019410D01*
X165223787Y-66191636D01*
X165223788Y-66191639D01*
X165306006Y-66352997D01*
X165412441Y-66499494D01*
X165412445Y-66499499D01*
X165540500Y-66627554D01*
X165540505Y-66627558D01*
X165668287Y-66720396D01*
X165687006Y-66733996D01*
X165763094Y-66772765D01*
X165848360Y-66816211D01*
X165848363Y-66816212D01*
X165934476Y-66844191D01*
X166020591Y-66872171D01*
X166103429Y-66885291D01*
X166199449Y-66900500D01*
X166199454Y-66900500D01*
X166380551Y-66900500D01*
X166467259Y-66886765D01*
X166559409Y-66872171D01*
X166731639Y-66816211D01*
X166892994Y-66733996D01*
X167039501Y-66627553D01*
X167167553Y-66499501D01*
X167273996Y-66352994D01*
X167356211Y-66191639D01*
X167412171Y-66019409D01*
X167426422Y-65929425D01*
X167437527Y-65859321D01*
X167467456Y-65796186D01*
X167526768Y-65759255D01*
X167596630Y-65760253D01*
X167654863Y-65798863D01*
X167682473Y-65859321D01*
X167707829Y-66019410D01*
X167763787Y-66191636D01*
X167763788Y-66191639D01*
X167846006Y-66352997D01*
X167952441Y-66499494D01*
X167952445Y-66499499D01*
X168080500Y-66627554D01*
X168080505Y-66627558D01*
X168208287Y-66720396D01*
X168227006Y-66733996D01*
X168303094Y-66772765D01*
X168388360Y-66816211D01*
X168388363Y-66816212D01*
X168474476Y-66844191D01*
X168560591Y-66872171D01*
X168643429Y-66885291D01*
X168739449Y-66900500D01*
X168739454Y-66900500D01*
X168920551Y-66900500D01*
X169007259Y-66886765D01*
X169099409Y-66872171D01*
X169271639Y-66816211D01*
X169432994Y-66733996D01*
X169579501Y-66627553D01*
X169707553Y-66499501D01*
X169813996Y-66352994D01*
X169896211Y-66191639D01*
X169952171Y-66019409D01*
X169966422Y-65929425D01*
X169977527Y-65859321D01*
X170007456Y-65796186D01*
X170066768Y-65759255D01*
X170136630Y-65760253D01*
X170194863Y-65798863D01*
X170222473Y-65859321D01*
X170247829Y-66019410D01*
X170303787Y-66191636D01*
X170303788Y-66191639D01*
X170386006Y-66352997D01*
X170492441Y-66499494D01*
X170492445Y-66499499D01*
X170620500Y-66627554D01*
X170620505Y-66627558D01*
X170748287Y-66720396D01*
X170767006Y-66733996D01*
X170843094Y-66772765D01*
X170928360Y-66816211D01*
X170928363Y-66816212D01*
X171014476Y-66844191D01*
X171100591Y-66872171D01*
X171183429Y-66885291D01*
X171279449Y-66900500D01*
X171279454Y-66900500D01*
X171460551Y-66900500D01*
X171547259Y-66886765D01*
X171639409Y-66872171D01*
X171811639Y-66816211D01*
X171972994Y-66733996D01*
X172119501Y-66627553D01*
X172247553Y-66499501D01*
X172353996Y-66352994D01*
X172436211Y-66191639D01*
X172492171Y-66019409D01*
X172506422Y-65929425D01*
X172517527Y-65859321D01*
X172547456Y-65796186D01*
X172606768Y-65759255D01*
X172676630Y-65760253D01*
X172734863Y-65798863D01*
X172762473Y-65859321D01*
X172787829Y-66019410D01*
X172843787Y-66191636D01*
X172843788Y-66191639D01*
X172926006Y-66352997D01*
X173032441Y-66499494D01*
X173032445Y-66499499D01*
X173160500Y-66627554D01*
X173160505Y-66627558D01*
X173288287Y-66720396D01*
X173307006Y-66733996D01*
X173383094Y-66772765D01*
X173468360Y-66816211D01*
X173468363Y-66816212D01*
X173554476Y-66844191D01*
X173640591Y-66872171D01*
X173723429Y-66885291D01*
X173819449Y-66900500D01*
X173819454Y-66900500D01*
X174000551Y-66900500D01*
X174087259Y-66886765D01*
X174179409Y-66872171D01*
X174351639Y-66816211D01*
X174512994Y-66733996D01*
X174659501Y-66627553D01*
X174787553Y-66499501D01*
X174893996Y-66352994D01*
X174976211Y-66191639D01*
X175032171Y-66019409D01*
X175046765Y-65927259D01*
X175060500Y-65840551D01*
X175060500Y-65659448D01*
X175044019Y-65555397D01*
X175032171Y-65480591D01*
X174976211Y-65308361D01*
X174976211Y-65308360D01*
X174947740Y-65252484D01*
X174893996Y-65147006D01*
X174880396Y-65128287D01*
X174787558Y-65000505D01*
X174787554Y-65000500D01*
X174659499Y-64872445D01*
X174659494Y-64872441D01*
X174512997Y-64766006D01*
X174512996Y-64766005D01*
X174512994Y-64766004D01*
X174436906Y-64727235D01*
X174351639Y-64683788D01*
X174351636Y-64683787D01*
X174179410Y-64627829D01*
X174000551Y-64599500D01*
X174000546Y-64599500D01*
X173819454Y-64599500D01*
X173819449Y-64599500D01*
X173640589Y-64627829D01*
X173468363Y-64683787D01*
X173468360Y-64683788D01*
X173307002Y-64766006D01*
X173160505Y-64872441D01*
X173160500Y-64872445D01*
X173032445Y-65000500D01*
X173032441Y-65000505D01*
X172926006Y-65147002D01*
X172843788Y-65308360D01*
X172843787Y-65308363D01*
X172787829Y-65480589D01*
X172762473Y-65640678D01*
X172732544Y-65703813D01*
X172673232Y-65740744D01*
X172603369Y-65739746D01*
X172545137Y-65701136D01*
X172517527Y-65640678D01*
X172503740Y-65553639D01*
X172492171Y-65480591D01*
X172436211Y-65308361D01*
X172436211Y-65308360D01*
X172407740Y-65252484D01*
X172353996Y-65147006D01*
X172340396Y-65128287D01*
X172247558Y-65000505D01*
X172247554Y-65000500D01*
X172119499Y-64872445D01*
X172119494Y-64872441D01*
X171972997Y-64766006D01*
X171972996Y-64766005D01*
X171972994Y-64766004D01*
X171896906Y-64727235D01*
X171811639Y-64683788D01*
X171811636Y-64683787D01*
X171639410Y-64627829D01*
X171460551Y-64599500D01*
X171460546Y-64599500D01*
X171279454Y-64599500D01*
X171279449Y-64599500D01*
X171100589Y-64627829D01*
X170928363Y-64683787D01*
X170928360Y-64683788D01*
X170767002Y-64766006D01*
X170620505Y-64872441D01*
X170620500Y-64872445D01*
X170492445Y-65000500D01*
X170492441Y-65000505D01*
X170386006Y-65147002D01*
X170303788Y-65308360D01*
X170303787Y-65308363D01*
X170247829Y-65480589D01*
X170222473Y-65640678D01*
X170192544Y-65703813D01*
X170133232Y-65740744D01*
X170063369Y-65739746D01*
X170005137Y-65701136D01*
X169977527Y-65640678D01*
X169963740Y-65553639D01*
X169952171Y-65480591D01*
X169896211Y-65308361D01*
X169896211Y-65308360D01*
X169867740Y-65252484D01*
X169813996Y-65147006D01*
X169800396Y-65128287D01*
X169707558Y-65000505D01*
X169707554Y-65000500D01*
X169579499Y-64872445D01*
X169579494Y-64872441D01*
X169432997Y-64766006D01*
X169432996Y-64766005D01*
X169432994Y-64766004D01*
X169356906Y-64727235D01*
X169271639Y-64683788D01*
X169271636Y-64683787D01*
X169099410Y-64627829D01*
X168920551Y-64599500D01*
X168920546Y-64599500D01*
X168739454Y-64599500D01*
X168739449Y-64599500D01*
X168560589Y-64627829D01*
X168388363Y-64683787D01*
X168388360Y-64683788D01*
X168227002Y-64766006D01*
X168080505Y-64872441D01*
X168080500Y-64872445D01*
X167952445Y-65000500D01*
X167952441Y-65000505D01*
X167846006Y-65147002D01*
X167763788Y-65308360D01*
X167763787Y-65308363D01*
X167707829Y-65480589D01*
X167682473Y-65640678D01*
X167652544Y-65703813D01*
X167593232Y-65740744D01*
X167523369Y-65739746D01*
X167465137Y-65701136D01*
X167437527Y-65640678D01*
X167423740Y-65553639D01*
X167412171Y-65480591D01*
X167356211Y-65308361D01*
X167356211Y-65308360D01*
X167327740Y-65252484D01*
X167273996Y-65147006D01*
X167260396Y-65128287D01*
X167167558Y-65000505D01*
X167167554Y-65000500D01*
X167039499Y-64872445D01*
X167039494Y-64872441D01*
X166892997Y-64766006D01*
X166892996Y-64766005D01*
X166892994Y-64766004D01*
X166816906Y-64727235D01*
X166731639Y-64683788D01*
X166731636Y-64683787D01*
X166559410Y-64627829D01*
X166380551Y-64599500D01*
X166380546Y-64599500D01*
X166199454Y-64599500D01*
X166199449Y-64599500D01*
X166020589Y-64627829D01*
X165848363Y-64683787D01*
X165848360Y-64683788D01*
X165687002Y-64766006D01*
X165540505Y-64872441D01*
X165540500Y-64872445D01*
X165412445Y-65000500D01*
X165412441Y-65000505D01*
X165306006Y-65147002D01*
X165223788Y-65308360D01*
X165223787Y-65308363D01*
X165167829Y-65480589D01*
X165142473Y-65640678D01*
X165112544Y-65703813D01*
X165053232Y-65740744D01*
X164983369Y-65739746D01*
X164925137Y-65701136D01*
X164897527Y-65640678D01*
X164883740Y-65553639D01*
X164872171Y-65480591D01*
X164816211Y-65308361D01*
X164816211Y-65308360D01*
X164787740Y-65252484D01*
X164733996Y-65147006D01*
X164720396Y-65128287D01*
X164627558Y-65000505D01*
X164627554Y-65000500D01*
X164499499Y-64872445D01*
X164499494Y-64872441D01*
X164352997Y-64766006D01*
X164352996Y-64766005D01*
X164352994Y-64766004D01*
X164276906Y-64727235D01*
X164191639Y-64683788D01*
X164191636Y-64683787D01*
X164019410Y-64627829D01*
X163840551Y-64599500D01*
X163840546Y-64599500D01*
X163659454Y-64599500D01*
X163659449Y-64599500D01*
X163480589Y-64627829D01*
X163308363Y-64683787D01*
X163308360Y-64683788D01*
X163147002Y-64766006D01*
X163000505Y-64872441D01*
X163000500Y-64872445D01*
X162872445Y-65000500D01*
X162872441Y-65000505D01*
X162766006Y-65147002D01*
X162683788Y-65308360D01*
X162683787Y-65308363D01*
X162627829Y-65480589D01*
X162602473Y-65640678D01*
X162572544Y-65703813D01*
X162513232Y-65740744D01*
X162443369Y-65739746D01*
X162385137Y-65701136D01*
X162357527Y-65640678D01*
X162343740Y-65553639D01*
X162332171Y-65480591D01*
X162276211Y-65308361D01*
X162276211Y-65308360D01*
X162247740Y-65252484D01*
X162193996Y-65147006D01*
X162180396Y-65128287D01*
X162087558Y-65000505D01*
X162087554Y-65000500D01*
X161959499Y-64872445D01*
X161959494Y-64872441D01*
X161812997Y-64766006D01*
X161812996Y-64766005D01*
X161812994Y-64766004D01*
X161736906Y-64727235D01*
X161651639Y-64683788D01*
X161651636Y-64683787D01*
X161479410Y-64627829D01*
X161300551Y-64599500D01*
X161300546Y-64599500D01*
X161119454Y-64599500D01*
X161119449Y-64599500D01*
X160940589Y-64627829D01*
X160768363Y-64683787D01*
X160768360Y-64683788D01*
X160607002Y-64766006D01*
X160460505Y-64872441D01*
X160460500Y-64872445D01*
X160332445Y-65000500D01*
X160332441Y-65000505D01*
X160226006Y-65147002D01*
X160143788Y-65308360D01*
X160143787Y-65308363D01*
X160087829Y-65480589D01*
X160059500Y-65659448D01*
X157280499Y-65659448D01*
X157280499Y-64855136D01*
X157280497Y-64855117D01*
X157277586Y-64830012D01*
X157277585Y-64830010D01*
X157277585Y-64830009D01*
X157232206Y-64727235D01*
X157152765Y-64647794D01*
X157152763Y-64647793D01*
X157049992Y-64602415D01*
X157024865Y-64599500D01*
X155235143Y-64599500D01*
X155235117Y-64599502D01*
X155210012Y-64602413D01*
X155210008Y-64602415D01*
X155107235Y-64647793D01*
X155027794Y-64727234D01*
X154982415Y-64830006D01*
X154982415Y-64830008D01*
X154979500Y-64855131D01*
X154979500Y-66501613D01*
X154959815Y-66568652D01*
X154907011Y-66614407D01*
X154837853Y-66624351D01*
X154774297Y-66595326D01*
X154767819Y-66589294D01*
X152186095Y-64007570D01*
X152164262Y-63974895D01*
X152163641Y-63975254D01*
X152080524Y-63831290D01*
X152080518Y-63831282D01*
X151968717Y-63719481D01*
X151968709Y-63719475D01*
X151831790Y-63640426D01*
X151831786Y-63640424D01*
X151831784Y-63640423D01*
X151679057Y-63599500D01*
X151520943Y-63599500D01*
X151368216Y-63640423D01*
X151368209Y-63640426D01*
X151231290Y-63719475D01*
X151231282Y-63719481D01*
X151119481Y-63831282D01*
X151119475Y-63831290D01*
X151040426Y-63968209D01*
X151040423Y-63968216D01*
X150999500Y-64120943D01*
X114900500Y-64120943D01*
X114900500Y-59670943D01*
X122199500Y-59670943D01*
X122199500Y-59829056D01*
X122240423Y-59981783D01*
X122240426Y-59981790D01*
X122319475Y-60118709D01*
X122319479Y-60118714D01*
X122319480Y-60118716D01*
X122431284Y-60230520D01*
X122431286Y-60230521D01*
X122431290Y-60230524D01*
X122568209Y-60309573D01*
X122568216Y-60309577D01*
X122720943Y-60350500D01*
X122720945Y-60350500D01*
X122879055Y-60350500D01*
X122879057Y-60350500D01*
X123031784Y-60309577D01*
X123168716Y-60230520D01*
X123280520Y-60118716D01*
X123359577Y-59981784D01*
X123400500Y-59829057D01*
X123400500Y-59829044D01*
X123401441Y-59821901D01*
X123429707Y-59758003D01*
X123436688Y-59750414D01*
X125550284Y-57636819D01*
X125611607Y-57603334D01*
X125637965Y-57600500D01*
X127259308Y-57600500D01*
X127259309Y-57600500D01*
X127349673Y-57576286D01*
X127373887Y-57569799D01*
X127387796Y-57561768D01*
X127397835Y-57558086D01*
X127416941Y-57556823D01*
X127440540Y-57550500D01*
X127479055Y-57550500D01*
X127479057Y-57550500D01*
X127631784Y-57509577D01*
X127768716Y-57430520D01*
X127880520Y-57318716D01*
X127959577Y-57181784D01*
X128000500Y-57029057D01*
X128000500Y-56870943D01*
X127959577Y-56718216D01*
X127954515Y-56709448D01*
X127880524Y-56581290D01*
X127880521Y-56581286D01*
X127880520Y-56581284D01*
X127768716Y-56469480D01*
X127768714Y-56469479D01*
X127768709Y-56469475D01*
X127631790Y-56390426D01*
X127631786Y-56390424D01*
X127631784Y-56390423D01*
X127479057Y-56349500D01*
X127320943Y-56349500D01*
X127168216Y-56390423D01*
X127168209Y-56390426D01*
X127031290Y-56469475D01*
X127031282Y-56469481D01*
X126919481Y-56581282D01*
X126919479Y-56581285D01*
X126887025Y-56637499D01*
X126836458Y-56685715D01*
X126779637Y-56699500D01*
X125340691Y-56699500D01*
X125259862Y-56721158D01*
X125259861Y-56721157D01*
X125226114Y-56730200D01*
X125226111Y-56730201D01*
X125123386Y-56789511D01*
X125123383Y-56789513D01*
X122799597Y-59113299D01*
X122738274Y-59146784D01*
X122728107Y-59148556D01*
X122720949Y-59149498D01*
X122568216Y-59190423D01*
X122568209Y-59190426D01*
X122431290Y-59269475D01*
X122431282Y-59269481D01*
X122319481Y-59381282D01*
X122319475Y-59381290D01*
X122240426Y-59518209D01*
X122240423Y-59518216D01*
X122199500Y-59670943D01*
X114900500Y-59670943D01*
X114900500Y-52470943D01*
X118799500Y-52470943D01*
X118799500Y-52629056D01*
X118840423Y-52781783D01*
X118840426Y-52781790D01*
X118919475Y-52918709D01*
X118919479Y-52918714D01*
X118919480Y-52918716D01*
X119031284Y-53030520D01*
X119031286Y-53030521D01*
X119031290Y-53030524D01*
X119168083Y-53109500D01*
X119168216Y-53109577D01*
X119320943Y-53150500D01*
X119320945Y-53150500D01*
X119479055Y-53150500D01*
X119479057Y-53150500D01*
X119631784Y-53109577D01*
X119768716Y-53030520D01*
X119768721Y-53030514D01*
X119774443Y-53026125D01*
X119839612Y-53000930D01*
X119849931Y-53000500D01*
X142962035Y-53000500D01*
X143029074Y-53020185D01*
X143049716Y-53036819D01*
X143913181Y-53900284D01*
X143946666Y-53961607D01*
X143949500Y-53987965D01*
X143949500Y-55900069D01*
X143929815Y-55967108D01*
X143923875Y-55975557D01*
X143919475Y-55981290D01*
X143840426Y-56118209D01*
X143840423Y-56118216D01*
X143799500Y-56270943D01*
X143799500Y-56429057D01*
X143840290Y-56581285D01*
X143840423Y-56581783D01*
X143840426Y-56581790D01*
X143919475Y-56718709D01*
X143919479Y-56718714D01*
X143919480Y-56718716D01*
X144031284Y-56830520D01*
X144031286Y-56830521D01*
X144031290Y-56830524D01*
X144168209Y-56909573D01*
X144168216Y-56909577D01*
X144320943Y-56950500D01*
X144320945Y-56950500D01*
X144479055Y-56950500D01*
X144479057Y-56950500D01*
X144631784Y-56909577D01*
X144768716Y-56830520D01*
X144880520Y-56718716D01*
X144959577Y-56581784D01*
X145000500Y-56429057D01*
X145000500Y-56270943D01*
X144959577Y-56118216D01*
X144959573Y-56118209D01*
X144880524Y-55981290D01*
X144880521Y-55981287D01*
X144880520Y-55981284D01*
X144880517Y-55981281D01*
X144876125Y-55975557D01*
X144850930Y-55910388D01*
X144850500Y-55900069D01*
X144850500Y-53690693D01*
X144850500Y-53690691D01*
X144819799Y-53576114D01*
X144781916Y-53510499D01*
X144760489Y-53473386D01*
X143476614Y-52189511D01*
X143425250Y-52159856D01*
X143373888Y-52130201D01*
X143361780Y-52126957D01*
X143349673Y-52123713D01*
X143349670Y-52123712D01*
X143311478Y-52113478D01*
X143259309Y-52099500D01*
X143259308Y-52099500D01*
X119849931Y-52099500D01*
X119782892Y-52079815D01*
X119774443Y-52073875D01*
X119768709Y-52069475D01*
X119631790Y-51990426D01*
X119631786Y-51990424D01*
X119631784Y-51990423D01*
X119479057Y-51949500D01*
X119320943Y-51949500D01*
X119168216Y-51990423D01*
X119168209Y-51990426D01*
X119031290Y-52069475D01*
X119031282Y-52069481D01*
X118919481Y-52181282D01*
X118919475Y-52181290D01*
X118840426Y-52318209D01*
X118840423Y-52318216D01*
X118799500Y-52470943D01*
X114900500Y-52470943D01*
X114900500Y-51629448D01*
X179849500Y-51629448D01*
X179849500Y-51810551D01*
X179877829Y-51989410D01*
X179933787Y-52161636D01*
X179933788Y-52161639D01*
X179989664Y-52271300D01*
X180013569Y-52318216D01*
X180016006Y-52322997D01*
X180122441Y-52469494D01*
X180122445Y-52469499D01*
X180250500Y-52597554D01*
X180250505Y-52597558D01*
X180378287Y-52690396D01*
X180397006Y-52703996D01*
X180502484Y-52757740D01*
X180558360Y-52786211D01*
X180558363Y-52786212D01*
X180644476Y-52814191D01*
X180730591Y-52842171D01*
X180803639Y-52853740D01*
X180890678Y-52867527D01*
X180953813Y-52897456D01*
X180990744Y-52956768D01*
X180989746Y-53026631D01*
X180951136Y-53084863D01*
X180890678Y-53112473D01*
X180730589Y-53137829D01*
X180558363Y-53193787D01*
X180558360Y-53193788D01*
X180397002Y-53276006D01*
X180250505Y-53382441D01*
X180250500Y-53382445D01*
X180122448Y-53510498D01*
X180122441Y-53510505D01*
X180016006Y-53657002D01*
X179933788Y-53818360D01*
X179933787Y-53818363D01*
X179877829Y-53990589D01*
X179849500Y-54169448D01*
X179849500Y-54350551D01*
X179877829Y-54529410D01*
X179933787Y-54701636D01*
X179933788Y-54701639D01*
X180016006Y-54862997D01*
X180122441Y-55009494D01*
X180122445Y-55009499D01*
X180250500Y-55137554D01*
X180250505Y-55137558D01*
X180378287Y-55230396D01*
X180397006Y-55243996D01*
X180502484Y-55297740D01*
X180558360Y-55326211D01*
X180558363Y-55326212D01*
X180644476Y-55354191D01*
X180730591Y-55382171D01*
X180803639Y-55393740D01*
X180890678Y-55407527D01*
X180953813Y-55437456D01*
X180990744Y-55496768D01*
X180989746Y-55566631D01*
X180951136Y-55624863D01*
X180890678Y-55652473D01*
X180730589Y-55677829D01*
X180558363Y-55733787D01*
X180558360Y-55733788D01*
X180397002Y-55816006D01*
X180250505Y-55922441D01*
X180250500Y-55922445D01*
X180122445Y-56050500D01*
X180122441Y-56050505D01*
X180016006Y-56197002D01*
X179933788Y-56358360D01*
X179933787Y-56358363D01*
X179877829Y-56530589D01*
X179849500Y-56709448D01*
X179849500Y-56890551D01*
X179877829Y-57069410D01*
X179933787Y-57241636D01*
X179933788Y-57241639D01*
X180016006Y-57402997D01*
X180122441Y-57549494D01*
X180122445Y-57549499D01*
X180250500Y-57677554D01*
X180250505Y-57677558D01*
X180378287Y-57770396D01*
X180397006Y-57783996D01*
X180502484Y-57837740D01*
X180558360Y-57866211D01*
X180558363Y-57866212D01*
X180644476Y-57894191D01*
X180730591Y-57922171D01*
X180813429Y-57935291D01*
X180909449Y-57950500D01*
X180909454Y-57950500D01*
X181090551Y-57950500D01*
X181177259Y-57936765D01*
X181269409Y-57922171D01*
X181441639Y-57866211D01*
X181602994Y-57783996D01*
X181749501Y-57677553D01*
X181877553Y-57549501D01*
X181983996Y-57402994D01*
X182066211Y-57241639D01*
X182122171Y-57069409D01*
X182136765Y-56977259D01*
X182150500Y-56890551D01*
X182150500Y-56709448D01*
X182130200Y-56581284D01*
X182122171Y-56530591D01*
X182089181Y-56429056D01*
X182066212Y-56358363D01*
X182066211Y-56358360D01*
X182021669Y-56270943D01*
X181983996Y-56197006D01*
X181926747Y-56118209D01*
X181877558Y-56050505D01*
X181877554Y-56050500D01*
X181749499Y-55922445D01*
X181749494Y-55922441D01*
X181602997Y-55816006D01*
X181602996Y-55816005D01*
X181602994Y-55816004D01*
X181551300Y-55789664D01*
X181441639Y-55733788D01*
X181441636Y-55733787D01*
X181269410Y-55677829D01*
X181109321Y-55652473D01*
X181046186Y-55622544D01*
X181009255Y-55563232D01*
X181010253Y-55493370D01*
X181048863Y-55435137D01*
X181109321Y-55407527D01*
X181179425Y-55396422D01*
X181269409Y-55382171D01*
X181441639Y-55326211D01*
X181602994Y-55243996D01*
X181749501Y-55137553D01*
X181877553Y-55009501D01*
X181983996Y-54862994D01*
X182066211Y-54701639D01*
X182122171Y-54529409D01*
X182136765Y-54437259D01*
X182150500Y-54350551D01*
X182150500Y-54169448D01*
X182134019Y-54065397D01*
X182122171Y-53990591D01*
X182066211Y-53818361D01*
X182066211Y-53818360D01*
X182001159Y-53690691D01*
X181983996Y-53657006D01*
X181925225Y-53576114D01*
X181877558Y-53510505D01*
X181877552Y-53510498D01*
X181749499Y-53382445D01*
X181749494Y-53382441D01*
X181602997Y-53276006D01*
X181602996Y-53276005D01*
X181602994Y-53276004D01*
X181551300Y-53249664D01*
X181441639Y-53193788D01*
X181441636Y-53193787D01*
X181269410Y-53137829D01*
X181109321Y-53112473D01*
X181046186Y-53082544D01*
X181009255Y-53023232D01*
X181010253Y-52953370D01*
X181048863Y-52895137D01*
X181109321Y-52867527D01*
X181179425Y-52856422D01*
X181269409Y-52842171D01*
X181441639Y-52786211D01*
X181602994Y-52703996D01*
X181749501Y-52597553D01*
X181877553Y-52469501D01*
X181983996Y-52322994D01*
X182066211Y-52161639D01*
X182122171Y-51989409D01*
X182136765Y-51897259D01*
X182150500Y-51810551D01*
X182150500Y-51629448D01*
X182134019Y-51525397D01*
X182122171Y-51450591D01*
X182066211Y-51278361D01*
X182066211Y-51278360D01*
X182037740Y-51222484D01*
X181983996Y-51117006D01*
X181970396Y-51098287D01*
X181877558Y-50970505D01*
X181877554Y-50970500D01*
X181749499Y-50842445D01*
X181749494Y-50842441D01*
X181602997Y-50736006D01*
X181602996Y-50736005D01*
X181602994Y-50736004D01*
X181551300Y-50709664D01*
X181441639Y-50653788D01*
X181441636Y-50653787D01*
X181269410Y-50597829D01*
X181090551Y-50569500D01*
X181090546Y-50569500D01*
X180909454Y-50569500D01*
X180909449Y-50569500D01*
X180730589Y-50597829D01*
X180558363Y-50653787D01*
X180558360Y-50653788D01*
X180397002Y-50736006D01*
X180250505Y-50842441D01*
X180250500Y-50842445D01*
X180122445Y-50970500D01*
X180122441Y-50970505D01*
X180016006Y-51117002D01*
X179933788Y-51278360D01*
X179933787Y-51278363D01*
X179877829Y-51450589D01*
X179849500Y-51629448D01*
X114900500Y-51629448D01*
X114900500Y-41002706D01*
X114900618Y-40997298D01*
X114904557Y-40907077D01*
X114905510Y-40885258D01*
X117649500Y-40885258D01*
X117649500Y-41114741D01*
X117668217Y-41256903D01*
X117679452Y-41342238D01*
X117679453Y-41342240D01*
X117738842Y-41563887D01*
X117826650Y-41775876D01*
X117826657Y-41775890D01*
X117941392Y-41974617D01*
X118081081Y-42156661D01*
X118081089Y-42156670D01*
X118243330Y-42318911D01*
X118243338Y-42318918D01*
X118425382Y-42458607D01*
X118425385Y-42458608D01*
X118425388Y-42458611D01*
X118624112Y-42573344D01*
X118624117Y-42573346D01*
X118624123Y-42573349D01*
X118715480Y-42611190D01*
X118836113Y-42661158D01*
X119057762Y-42720548D01*
X119285266Y-42750500D01*
X119285273Y-42750500D01*
X119514727Y-42750500D01*
X119514734Y-42750500D01*
X119742238Y-42720548D01*
X119963887Y-42661158D01*
X120175888Y-42573344D01*
X120374612Y-42458611D01*
X120556661Y-42318919D01*
X120556665Y-42318914D01*
X120556670Y-42318911D01*
X120718911Y-42156670D01*
X120718914Y-42156665D01*
X120718919Y-42156661D01*
X120858611Y-41974612D01*
X120973344Y-41775888D01*
X121061158Y-41563887D01*
X121120548Y-41342238D01*
X121131783Y-41256898D01*
X130399500Y-41256898D01*
X130399500Y-43443102D01*
X130405126Y-43489954D01*
X130410122Y-43531561D01*
X130465639Y-43672343D01*
X130557077Y-43792922D01*
X130677656Y-43884360D01*
X130677657Y-43884360D01*
X130677658Y-43884361D01*
X130818436Y-43939877D01*
X130906898Y-43950500D01*
X130906903Y-43950500D01*
X133093097Y-43950500D01*
X133093102Y-43950500D01*
X133181564Y-43939877D01*
X133322342Y-43884361D01*
X133442922Y-43792922D01*
X133534361Y-43672342D01*
X133589877Y-43531564D01*
X133600500Y-43443102D01*
X133600500Y-41256898D01*
X148499500Y-41256898D01*
X148499500Y-43443102D01*
X148505126Y-43489954D01*
X148510122Y-43531561D01*
X148565639Y-43672343D01*
X148657077Y-43792922D01*
X148777656Y-43884360D01*
X148777657Y-43884360D01*
X148777658Y-43884361D01*
X148918436Y-43939877D01*
X149006898Y-43950500D01*
X149006903Y-43950500D01*
X151193097Y-43950500D01*
X151193102Y-43950500D01*
X151281564Y-43939877D01*
X151422342Y-43884361D01*
X151542922Y-43792922D01*
X151634361Y-43672342D01*
X151689877Y-43531564D01*
X151700500Y-43443102D01*
X151700500Y-43205131D01*
X179849500Y-43205131D01*
X179849500Y-44994856D01*
X179849502Y-44994882D01*
X179852413Y-45019987D01*
X179852415Y-45019991D01*
X179897793Y-45122764D01*
X179897794Y-45122765D01*
X179977235Y-45202206D01*
X180080009Y-45247585D01*
X180105135Y-45250500D01*
X180842873Y-45250499D01*
X180909910Y-45270183D01*
X180955665Y-45322987D01*
X180965609Y-45392146D01*
X180936584Y-45455702D01*
X180877806Y-45493476D01*
X180862270Y-45496972D01*
X180730589Y-45517829D01*
X180558363Y-45573787D01*
X180558360Y-45573788D01*
X180397002Y-45656006D01*
X180250505Y-45762441D01*
X180250500Y-45762445D01*
X180122445Y-45890500D01*
X180122441Y-45890505D01*
X180016006Y-46037002D01*
X179933788Y-46198360D01*
X179933787Y-46198363D01*
X179877829Y-46370589D01*
X179849500Y-46549448D01*
X179849500Y-46730551D01*
X179877829Y-46909410D01*
X179933787Y-47081636D01*
X179933788Y-47081639D01*
X180016006Y-47242997D01*
X180122441Y-47389494D01*
X180122445Y-47389499D01*
X180250500Y-47517554D01*
X180250505Y-47517558D01*
X180378287Y-47610396D01*
X180397006Y-47623996D01*
X180502484Y-47677740D01*
X180558360Y-47706211D01*
X180558363Y-47706212D01*
X180644476Y-47734191D01*
X180730591Y-47762171D01*
X180813429Y-47775291D01*
X180909449Y-47790500D01*
X180909454Y-47790500D01*
X181090551Y-47790500D01*
X181177259Y-47776765D01*
X181269409Y-47762171D01*
X181441639Y-47706211D01*
X181602994Y-47623996D01*
X181749501Y-47517553D01*
X181877553Y-47389501D01*
X181983996Y-47242994D01*
X182066211Y-47081639D01*
X182122171Y-46909409D01*
X182136765Y-46817259D01*
X182150500Y-46730551D01*
X182150500Y-46549448D01*
X182134019Y-46445397D01*
X182122171Y-46370591D01*
X182066211Y-46198361D01*
X182066211Y-46198360D01*
X182037740Y-46142484D01*
X181983996Y-46037006D01*
X181970396Y-46018287D01*
X181877558Y-45890505D01*
X181877554Y-45890500D01*
X181749499Y-45762445D01*
X181749494Y-45762441D01*
X181602997Y-45656006D01*
X181602996Y-45656005D01*
X181602994Y-45656004D01*
X181551300Y-45629664D01*
X181441639Y-45573788D01*
X181441636Y-45573787D01*
X181269410Y-45517829D01*
X181137728Y-45496972D01*
X181074594Y-45467042D01*
X181037663Y-45407731D01*
X181038661Y-45337868D01*
X181077271Y-45279636D01*
X181141235Y-45251522D01*
X181157120Y-45250499D01*
X181894864Y-45250499D01*
X181894879Y-45250497D01*
X181894882Y-45250497D01*
X181919987Y-45247586D01*
X181919988Y-45247585D01*
X181919991Y-45247585D01*
X182022765Y-45202206D01*
X182102206Y-45122765D01*
X182147585Y-45019991D01*
X182150500Y-44994865D01*
X182150499Y-43205136D01*
X182150497Y-43205117D01*
X182147586Y-43180012D01*
X182147585Y-43180010D01*
X182147585Y-43180009D01*
X182102206Y-43077235D01*
X182022765Y-42997794D01*
X182022763Y-42997793D01*
X181919992Y-42952415D01*
X181894865Y-42949500D01*
X180105143Y-42949500D01*
X180105117Y-42949502D01*
X180080012Y-42952413D01*
X180080008Y-42952415D01*
X179977235Y-42997793D01*
X179897794Y-43077234D01*
X179852415Y-43180006D01*
X179852415Y-43180008D01*
X179849500Y-43205131D01*
X151700500Y-43205131D01*
X151700500Y-41256898D01*
X151689877Y-41168436D01*
X151634361Y-41027658D01*
X151580120Y-40956131D01*
X151580120Y-40956130D01*
X151542922Y-40907077D01*
X151514149Y-40885258D01*
X202649500Y-40885258D01*
X202649500Y-41114741D01*
X202668217Y-41256903D01*
X202679452Y-41342238D01*
X202679453Y-41342240D01*
X202738842Y-41563887D01*
X202826650Y-41775876D01*
X202826657Y-41775890D01*
X202941392Y-41974617D01*
X203081081Y-42156661D01*
X203081089Y-42156670D01*
X203243330Y-42318911D01*
X203243338Y-42318918D01*
X203425382Y-42458607D01*
X203425385Y-42458608D01*
X203425388Y-42458611D01*
X203624112Y-42573344D01*
X203624117Y-42573346D01*
X203624123Y-42573349D01*
X203715480Y-42611190D01*
X203836113Y-42661158D01*
X204057762Y-42720548D01*
X204285266Y-42750500D01*
X204285273Y-42750500D01*
X204514727Y-42750500D01*
X204514734Y-42750500D01*
X204742238Y-42720548D01*
X204963887Y-42661158D01*
X205175888Y-42573344D01*
X205374612Y-42458611D01*
X205556661Y-42318919D01*
X205556665Y-42318914D01*
X205556670Y-42318911D01*
X205718911Y-42156670D01*
X205718914Y-42156665D01*
X205718919Y-42156661D01*
X205858611Y-41974612D01*
X205973344Y-41775888D01*
X206061158Y-41563887D01*
X206120548Y-41342238D01*
X206150500Y-41114734D01*
X206150500Y-40885266D01*
X206120548Y-40657762D01*
X206061158Y-40436113D01*
X205973344Y-40224112D01*
X205858611Y-40025388D01*
X205858608Y-40025385D01*
X205858607Y-40025382D01*
X205718918Y-39843338D01*
X205718911Y-39843330D01*
X205556670Y-39681089D01*
X205556661Y-39681081D01*
X205374617Y-39541392D01*
X205175890Y-39426657D01*
X205175876Y-39426650D01*
X204963887Y-39338842D01*
X204742238Y-39279452D01*
X204704215Y-39274446D01*
X204514741Y-39249500D01*
X204514734Y-39249500D01*
X204285266Y-39249500D01*
X204285258Y-39249500D01*
X204068715Y-39278009D01*
X204057762Y-39279452D01*
X203964076Y-39304554D01*
X203836112Y-39338842D01*
X203624123Y-39426650D01*
X203624109Y-39426657D01*
X203425382Y-39541392D01*
X203243338Y-39681081D01*
X203081081Y-39843338D01*
X202941392Y-40025382D01*
X202826657Y-40224109D01*
X202826650Y-40224123D01*
X202787332Y-40319047D01*
X202738842Y-40436113D01*
X202694267Y-40602473D01*
X202679453Y-40657759D01*
X202679451Y-40657770D01*
X202649500Y-40885258D01*
X151514149Y-40885258D01*
X151422343Y-40815639D01*
X151281561Y-40760122D01*
X151235926Y-40754642D01*
X151193102Y-40749500D01*
X149006898Y-40749500D01*
X148967853Y-40754188D01*
X148918438Y-40760122D01*
X148777656Y-40815639D01*
X148657077Y-40907077D01*
X148565639Y-41027656D01*
X148510122Y-41168438D01*
X148504188Y-41217853D01*
X148499500Y-41256898D01*
X133600500Y-41256898D01*
X133589877Y-41168436D01*
X133534361Y-41027658D01*
X133534360Y-41027657D01*
X133534360Y-41027656D01*
X133442922Y-40907077D01*
X133322343Y-40815639D01*
X133181561Y-40760122D01*
X133135926Y-40754642D01*
X133093102Y-40749500D01*
X130906898Y-40749500D01*
X130867853Y-40754188D01*
X130818438Y-40760122D01*
X130677656Y-40815639D01*
X130557077Y-40907077D01*
X130465639Y-41027656D01*
X130410122Y-41168438D01*
X130404188Y-41217853D01*
X130399500Y-41256898D01*
X121131783Y-41256898D01*
X121150500Y-41114734D01*
X121150500Y-40885266D01*
X121120548Y-40657762D01*
X121061158Y-40436113D01*
X120973344Y-40224112D01*
X120858611Y-40025388D01*
X120858608Y-40025385D01*
X120858607Y-40025382D01*
X120718918Y-39843338D01*
X120718911Y-39843330D01*
X120556670Y-39681089D01*
X120556661Y-39681081D01*
X120374617Y-39541392D01*
X120175890Y-39426657D01*
X120175876Y-39426650D01*
X119963887Y-39338842D01*
X119742238Y-39279452D01*
X119704215Y-39274446D01*
X119514741Y-39249500D01*
X119514734Y-39249500D01*
X119285266Y-39249500D01*
X119285258Y-39249500D01*
X119068715Y-39278009D01*
X119057762Y-39279452D01*
X118964076Y-39304554D01*
X118836112Y-39338842D01*
X118624123Y-39426650D01*
X118624109Y-39426657D01*
X118425382Y-39541392D01*
X118243338Y-39681081D01*
X118081081Y-39843338D01*
X117941392Y-40025382D01*
X117826657Y-40224109D01*
X117826650Y-40224123D01*
X117787332Y-40319047D01*
X117738842Y-40436113D01*
X117694267Y-40602473D01*
X117679453Y-40657759D01*
X117679451Y-40657770D01*
X117649500Y-40885258D01*
X114905510Y-40885258D01*
X114917386Y-40613226D01*
X114918326Y-40602495D01*
X114968152Y-40224025D01*
X114970025Y-40213405D01*
X115052649Y-39840709D01*
X115055440Y-39830295D01*
X115170230Y-39466227D01*
X115173917Y-39456095D01*
X115320003Y-39103412D01*
X115324561Y-39093638D01*
X115500822Y-38755045D01*
X115506217Y-38745700D01*
X115711325Y-38423744D01*
X115717515Y-38414905D01*
X115949896Y-38112060D01*
X115956834Y-38103791D01*
X116214726Y-37822352D01*
X116222352Y-37814726D01*
X116503791Y-37556834D01*
X116512060Y-37549896D01*
X116814905Y-37317515D01*
X116823744Y-37311325D01*
X117145700Y-37106217D01*
X117155045Y-37100822D01*
X117493638Y-36924561D01*
X117503412Y-36920003D01*
X117856095Y-36773917D01*
X117866227Y-36770230D01*
X118230295Y-36655440D01*
X118240709Y-36652649D01*
X118613405Y-36570025D01*
X118624025Y-36568152D01*
X119002495Y-36518326D01*
X119013226Y-36517386D01*
X119397297Y-36500617D01*
X119402706Y-36500500D01*
X119465892Y-36500500D01*
X204334108Y-36500500D01*
X204397294Y-36500500D01*
X204402702Y-36500617D01*
G37*
%TD.AperFunction*%
%TD*%
M02*
